<?xml version="1.0" encoding="utf-8"?>
<!-- Generator: Adobe Illustrator 27.5.0, SVG Export Plug-In . SVG Version: 6.00 Build 0)  -->
<svg version="1.1" xmlns="http://www.w3.org/2000/svg" xmlns:xlink="http://www.w3.org/1999/xlink" x="0px" y="0px"
	 viewBox="0 0 500 500" style="enable-background:new 0 0 500 500;" xml:space="preserve">
<g id="BACKGROUND_x0A_">
	<rect style="fill:#E4E5D1;" width="500" height="500"/>
</g>
<g id="OBJECTS_x0A_">
	<g>
		<g>
			<g>
				<path style="fill:#282828;" d="M32.104,416.676c57.421,0,114.841,0,172.262,0c57.128,0,114.255,0,171.383,0
					c32.226,0,64.452,0,96.678,0c0.804,0,0.806-1.25,0-1.25c-57.421,0-114.841,0-172.262,0c-57.128,0-114.255,0-171.383,0
					c-32.226,0-64.452,0-96.678,0C31.299,415.426,31.298,416.676,32.104,416.676L32.104,416.676z"/>
			</g>
		</g>
		<g>
			<path style="fill:#D6D6BF;" d="M97.226,435.08c5.668,5.705,9.776,12.023,22.218,18.318
				c44.763,22.649,79.398,22.956,130.688,23.355c51.29,0.4,126.38-19.244,159.887-48.162c-22.076,1.254-44.152,2.507-66.228,3.761
				c-82.732,4.698-165.947,9.395-248.549,3.561"/>
		</g>
		<g>
			<g>
				<g>
					<path style="fill:none;stroke:#588B7E;stroke-linecap:round;stroke-linejoin:round;stroke-miterlimit:10;" d="M292.146,126.202
						c20.379-19.561,44.827-47.773,61.29-70.727"/>
					
						<line style="fill:none;stroke:#588B7E;stroke-linecap:round;stroke-linejoin:round;stroke-miterlimit:10;" x1="333.484" y1="80.601" x2="334.562" y2="59.357"/>
					<path style="fill:none;stroke:#588B7E;stroke-linecap:round;stroke-linejoin:round;stroke-miterlimit:10;" d="M346.761,85.182
						c-11.366,3.755-9.015,2.561-20.774,4.8"/>
					<path style="fill:#F0B478;" d="M355.143,48.981c-2.716-0.797-5.564,0.759-6.36,3.475c-0.797,2.716,0.759,5.564,3.475,6.36
						c2.716,0.797,5.564-0.759,6.36-3.475C359.415,52.625,357.859,49.777,355.143,48.981z"/>
					<path style="fill:#F0B478;" d="M347.755,79.813c-2.878-0.844-5.896,0.805-6.741,3.683c-0.844,2.878,0.805,5.896,3.683,6.741
						c2.878,0.844,5.896-0.805,6.741-3.683C352.282,83.676,350.633,80.658,347.755,79.813z"/>
					<path style="fill:#F0B478;" d="M337.333,54.705c-2.101-1.311-4.866-0.67-6.177,1.431c-1.311,2.101-0.67,4.866,1.431,6.177
						c2.101,1.311,4.866,0.67,6.177-1.431C340.074,58.78,339.434,56.015,337.333,54.705z"/>
				</g>
				<g>
					<path style="fill:#588B7E;" d="M346.561,237.228c7.502-3.983,16.762-4.492,24.655-1.354c1.577,0.627,3.129,1.411,4.329,2.61
						c1.201,1.199,2.017,2.872,1.869,4.562c-10.441,2.413-21.807,0.541-30.923-5.093"/>
				</g>
				<g>
					<g>
						<g>
							<path style="fill:#588B7E;" d="M358.254,215.164c-8.69,10.896-15.097,23.477-18.764,36.925
								c-0.212,0.777,0.994,1.109,1.205,0.332c3.607-13.229,9.891-25.651,18.442-36.373
								C359.634,215.425,358.755,214.535,358.254,215.164L358.254,215.164z"/>
						</g>
					</g>
					<g>
						<g>
							<g>
								<path style="fill:#FFFFFF;" d="M360.233,200.509c-0.643,5.265-0.003,9.676,1.43,9.851c1.433,0.175,3.115-3.952,3.758-9.217
									c0.643-5.265,0.003-9.676-1.43-9.851C362.558,191.117,360.875,195.244,360.233,200.509z"/>
								<path style="fill:#FFFFFF;" d="M365.349,201.114c-3.189,4.238-4.84,8.378-3.687,9.246c1.153,0.868,4.674-1.865,7.863-6.103
									c3.189-4.239,4.84-8.378,3.687-9.246C372.059,194.143,368.539,196.875,365.349,201.114z"/>
								<path style="fill:#FFFFFF;" d="M369.479,204.196c-4.881,2.076-8.381,4.836-7.816,6.164c0.565,1.328,4.98,0.722,9.861-1.354
									c4.881-2.076,8.381-4.836,7.816-6.164C378.775,201.514,374.36,202.12,369.479,204.196z"/>
								<path style="fill:#FFFFFF;" d="M371.513,208.929c-5.265-0.643-9.676-0.003-9.851,1.43c-0.175,1.433,3.952,3.115,9.217,3.758
									c5.265,0.643,9.676,0.003,9.851-1.43C380.905,211.255,376.779,209.572,371.513,208.929z"/>
								<path style="fill:#FFFFFF;" d="M370.909,214.046c-4.238-3.189-8.378-4.84-9.246-3.687s1.865,4.674,6.103,7.863
									c4.238,3.189,8.378,4.84,9.246,3.687C377.88,220.756,375.147,217.236,370.909,214.046z"/>
								<path style="fill:#FFFFFF;" d="M367.827,218.175c-2.076-4.881-4.836-8.381-6.164-7.816c-1.328,0.565-0.722,4.98,1.354,9.861
									c2.076,4.881,4.836,8.381,6.164,7.816C370.509,227.472,369.903,223.057,367.827,218.175z"/>
								<path style="fill:#FFFFFF;" d="M363.093,220.21c0.643-5.265,0.003-9.676-1.43-9.85c-1.433-0.175-3.116,3.952-3.758,9.217
									c-0.643,5.265-0.003,9.676,1.43,9.851C360.768,229.602,362.45,225.475,363.093,220.21z"/>
								<path style="fill:#FFFFFF;" d="M357.976,219.605c3.189-4.238,4.84-8.378,3.687-9.246c-1.153-0.868-4.674,1.864-7.863,6.103
									c-3.19,4.238-4.84,8.378-3.687,9.246C351.266,226.576,354.787,223.844,357.976,219.605z"/>
								<path style="fill:#FFFFFF;" d="M353.847,216.523c4.881-2.076,8.381-4.836,7.816-6.164c-0.565-1.328-4.98-0.722-9.861,1.354
									c-4.881,2.076-8.381,4.836-7.816,6.164C344.551,219.206,348.966,218.6,353.847,216.523z"/>
								<path style="fill:#FFFFFF;" d="M351.812,211.79c5.265,0.643,9.676,0.003,9.851-1.43c0.175-1.433-3.952-3.116-9.217-3.758
									c-5.265-0.643-9.676-0.003-9.851,1.43C342.42,209.464,346.547,211.147,351.812,211.79z"/>
								<path style="fill:#FFFFFF;" d="M352.417,206.673c4.238,3.189,8.378,4.84,9.246,3.687s-1.865-4.674-6.103-7.863
									c-4.238-3.189-8.378-4.84-9.246-3.687C345.446,199.963,348.178,203.484,352.417,206.673z"/>
								<path style="fill:#FFFFFF;" d="M355.499,202.544c2.076,4.881,4.836,8.381,6.164,7.816c1.328-0.565,0.722-4.98-1.354-9.861
									c-2.076-4.881-4.836-8.381-6.164-7.816C352.817,193.247,353.423,197.663,355.499,202.544z"/>
							</g>
						</g>
						<path style="fill:#F0B478;" d="M358.301,210.834c0.262,1.857,1.98,3.15,3.837,2.887c1.857-0.262,3.15-1.98,2.887-3.837
							c-0.262-1.857-1.98-3.15-3.837-2.887C359.331,207.26,358.038,208.977,358.301,210.834z"/>
					</g>
				</g>
				<g>
					<g>
						<path style="fill:#F0B478;" d="M344.591,153.413c-0.362-5.764,0.427-11.597,2.309-17.057c0.807-2.343,1.879-4.707,3.793-6.281
							c1.914-1.574,4.868-2.119,6.876-0.668c1.689,1.22,2.3,3.532,2.01,5.595c-0.291,2.063-1.333,3.935-2.415,5.715
							c-3.796,6.249-8.302,12.033-12.796,17.801"/>
						<path style="fill:#F0B478;" d="M376.322,157.157c-0.496-2.023-2.409-3.459-4.43-3.964c-2.021-0.506-4.147-0.243-6.203,0.09
							c-7.218,1.17-14.271,3.173-21.304,5.171l4.814,1.711c5.205,2.501,10.908,3.961,16.675,4.269
							c2.475,0.132,5.069,0.027,7.246-1.156C375.297,162.096,376.912,159.564,376.322,157.157z"/>
						<path style="fill:#F0B478;" d="M344.368,158.517c2.39-3.424,5.898-7.852,8.383-11.359c2.485-3.506,5.649-6.624,9.643-8.211
							c2.016-0.801,4.419-1.07,6.275,0.054c2.865,1.735,3.062,6.095,1.273,8.926c-1.789,2.831-4.923,4.477-7.942,5.927
							C356.122,156.675,350.884,158.313,344.368,158.517"/>
						<path style="fill:#588B7E;" d="M355.845,159.598c-0.217-0.459-0.457-0.993-1.832-1.319c-2.733-0.649-3.855-0.797-6.257-1.015
							c1.951-0.148,4.098-1.105,5.903-1.86c0.78-0.326,1.859-1.812,1.687-2.639c-0.178-0.858-1.316-1.055-2.186-0.954
							c-2.691,0.313-5.242,1.697-6.972,3.783c1.167-2.18,1.517-4.785,0.969-7.197c-0.134-0.591-0.396-1.251-0.973-1.437
							c-0.466-0.15-0.989,0.084-1.31,0.454s-0.479,0.851-0.608,1.323c-0.875,3.18-0.819,6.611,0.158,9.761
							c3.31,1.809,4.108,2.412,9.745,3.687c0.408,0.092,1.032-0.037,1.529-0.734C355.991,161.04,356.062,160.056,355.845,159.598z"
							/>
					</g>
					<path style="fill:none;stroke:#588B7E;stroke-linecap:round;stroke-linejoin:round;stroke-miterlimit:10;" d="M295.995,219.083
						c0.967-5.397,6.038-29.858,31.459-50.057c7.825-6.217,17.847-12.04,20.595-11.671"/>
					<path style="fill:#588B7E;" d="M331.429,165.888c6.342,14.62,23.117,23.677,39.586,21.372
						C366.213,172.11,348.941,163.317,331.429,165.888"/>
				</g>
				<g>
					<path style="fill:none;stroke:#588B7E;stroke-linecap:round;stroke-linejoin:round;stroke-miterlimit:10;" d="M193.249,196.752
						c-10.696-26.145-27.94-59.254-43.232-83.005"/>
					
						<line style="fill:none;stroke:#588B7E;stroke-linecap:round;stroke-linejoin:round;stroke-miterlimit:10;" x1="166.046" y1="141.541" x2="146.686" y2="132.726"/>
					<path style="fill:none;stroke:#588B7E;stroke-linecap:round;stroke-linejoin:round;stroke-miterlimit:10;" d="M175.188,130.879
						c-0.688,11.951-0.934,9.325-3.176,21.084"/>
					<path style="fill:#F0B478;" d="M144.606,109.771c-1.74,2.233-1.34,5.453,0.893,7.193c2.233,1.74,5.453,1.34,7.193-0.893
						c1.74-2.233,1.34-5.453-0.893-7.192C149.566,107.139,146.346,107.538,144.606,109.771z"/>
					<path style="fill:#F0B478;" d="M170.561,127.981c-1.844,2.366-1.42,5.779,0.946,7.623c2.366,1.844,5.779,1.42,7.623-0.946
						c1.844-2.366,1.42-5.779-0.946-7.623C175.818,125.191,172.405,125.615,170.561,127.981z"/>
					<path style="fill:#F0B478;" d="M143.379,128.439c-1.991,1.472-2.413,4.279-0.941,6.27c1.472,1.991,4.279,2.413,6.27,0.941
						c1.991-1.472,2.412-4.279,0.941-6.27C148.177,127.388,145.37,126.967,143.379,128.439z"/>
				</g>
				<g>
					<path style="fill:none;stroke:#588B7E;stroke-linecap:round;stroke-linejoin:round;stroke-miterlimit:10;" d="M354.192,361.519
						c25.837-11.419,58.453-29.579,81.769-45.526"/>
					
						<line style="fill:none;stroke:#588B7E;stroke-linecap:round;stroke-linejoin:round;stroke-miterlimit:10;" x1="408.624" y1="332.789" x2="416.896" y2="313.192"/>
					<path style="fill:none;stroke:#588B7E;stroke-linecap:round;stroke-linejoin:round;stroke-miterlimit:10;" d="M419.536,341.631
						c-11.966-0.355-9.347-0.674-21.164-2.588"/>
					<path style="fill:#F0B478;" d="M439.784,310.473c-2.28-1.677-5.488-1.188-7.165,1.093c-1.677,2.28-1.188,5.488,1.093,7.165
						c2.28,1.677,5.488,1.188,7.165-1.093C442.554,315.358,442.064,312.15,439.784,310.473z"/>
					<path style="fill:#F0B478;" d="M422.304,336.925c-2.417-1.777-5.816-1.259-7.593,1.158c-1.777,2.417-1.259,5.816,1.158,7.593
						c2.417,1.777,5.816,1.259,7.593-1.158C425.239,342.102,424.721,338.702,422.304,336.925z"/>
					<path style="fill:#F0B478;" d="M421.09,309.766c-1.526-1.949-4.344-2.292-6.294-0.766c-1.949,1.526-2.292,4.344-0.766,6.294
						c1.526,1.95,4.344,2.292,6.294,0.766C422.273,314.534,422.616,311.716,421.09,309.766z"/>
				</g>
				<g>
					<path style="fill:none;stroke:#588B7E;stroke-linecap:round;stroke-linejoin:round;stroke-miterlimit:10;" d="M149.553,326.134
						c-21.261-18.599-51.494-40.498-75.794-54.901"/>
					
						<line style="fill:none;stroke:#588B7E;stroke-linecap:round;stroke-linejoin:round;stroke-miterlimit:10;" x1="100.526" y1="288.923" x2="79.269" y2="289.698"/>
					<path style="fill:#F0B478;" d="M67.14,270.098c-0.557,2.775,1.241,5.476,4.016,6.034c2.775,0.557,5.476-1.241,6.034-4.016
						c0.557-2.775-1.241-5.476-4.016-6.033C70.399,265.525,67.697,267.323,67.14,270.098z"/>
					<path style="fill:#F0B478;" d="M74.393,287.343c-1.123,2.207-0.244,4.906,1.963,6.029c2.207,1.123,4.906,0.244,6.029-1.963
						c1.123-2.207,0.244-4.906-1.963-6.029C78.215,284.257,75.515,285.136,74.393,287.343z"/>
				</g>
				<g>
					<path style="fill:#F0B478;" d="M236.615,73.81c-4.383-1.707-8.423-4.288-11.813-7.548c-1.455-1.399-2.835-3.001-3.342-4.954
						c-0.508-1.953,0.102-4.322,1.862-5.309c1.48-0.83,3.398-0.49,4.822,0.431c1.424,0.921,2.451,2.333,3.396,3.742
						c3.317,4.945,6.048,10.256,8.77,15.552"/>
					<path style="fill:#F0B478;" d="M250.25,51.647c-1.665-0.326-3.381,0.596-4.447,1.915s-1.6,2.981-2.058,4.615
						c-1.608,5.734-2.544,11.631-3.476,17.513l2.913-2.971c3.631-2.99,6.663-6.703,8.866-10.859c0.945-1.783,1.756-3.736,1.628-5.75
						C253.549,54.096,252.23,52.036,250.25,51.647z"/>
					<path style="fill:#F0B478;" d="M240.31,75.723c-1.711-2.939-3.782-7.047-5.521-10.084c-1.74-3.037-2.959-6.443-2.764-9.937
						c0.098-1.764,0.723-3.632,2.189-4.618c2.263-1.523,5.552-0.175,7.031,2.117c1.479,2.292,1.622,5.171,1.659,7.898
						C242.975,66.408,242.391,70.838,240.31,75.723"/>
					<path style="fill:#588B7E;" d="M245.04,67.614c-0.413,0.003-0.89-0.002-1.602,0.902c-1.415,1.797-1.909,2.576-2.893,4.276
						c0.559-1.492,0.587-3.407,0.648-4.999c0.026-0.688-0.702-1.994-1.372-2.15c-0.695-0.162-1.23,0.611-1.454,1.289
						c-0.69,2.095-0.542,4.455,0.407,6.447c-1.211-1.609-3.016-2.76-4.986-3.181c-0.483-0.103-1.06-0.136-1.395,0.227
						c-0.271,0.293-0.277,0.76-0.113,1.123c0.163,0.364,0.465,0.645,0.769,0.903c2.05,1.736,4.604,2.869,7.267,3.226
						c2.47-1.826,3.189-2.209,6.062-5.937c0.208-0.27,0.326-0.775-0.019-1.381C246.155,67.999,245.453,67.61,245.04,67.614z"/>
				</g>
				<g>
					<path style="fill:none;stroke:#588B7E;stroke-width:0.75;stroke-miterlimit:10;" d="M219.436,167.213
						c-2.842-32.286-13.919-62.821-31.48-88.721"/>
					<path style="fill:#588B7E;" d="M179.333,66.771c1.706,29.296,15.972,31.11,24.374,41.869c4.585,5.978,2.514,6.995,1.398-0.612
						C203.255,96.133,207.05,75.774,179.333,66.771z"/>
					<path style="fill:#588B7E;" d="M210.733,124.908c-3.297-10.43-19.088-26.215-39.078-22.723c0.571,3.67,4.636,7.203,8.1,9.055
						C195.405,119.655,206.706,113.425,210.733,124.908z"/>
					<path style="fill:#588B7E;" d="M210.733,124.908c-3.53-11.097-2.921-34.945,6.563-49.432
						c5.767,5.137,8.758,20.528-4.882,37.979C209.36,117.324,210.18,123.331,210.733,124.908z"/>
					<path style="fill:#588B7E;" d="M216.391,146.14c-2.555-12.312-17.184-28.255-36.178-27.131c0.016,2.353,1.994,5.304,3.605,7.06
						C195.238,138.023,213.686,133.792,216.391,146.14z"/>
					<path style="fill:#588B7E;" d="M216.391,146.14c-2.189-10.453,0.856-34.654,12.275-48.318c1.355,1.601,3.087,5.495,3.296,9.93
						C233.315,127.874,213.609,133.444,216.391,146.14z"/>
				</g>
				<g>
					<path style="fill:none;stroke:#588B7E;stroke-width:0.75;stroke-miterlimit:10;" d="M176.377,310.324
						c-19.079-23.19-43.535-40.729-70.521-51.331"/>
					<path style="fill:#588B7E;" d="M93.129,254.55c16.645,21.499,28.499,15.416,40.555,19.24c6.635,2.168,5.585,4.03,0.748-1.2
						C126.789,264.466,119.029,246.918,93.129,254.55z"/>
					<path style="fill:#588B7E;" d="M147.573,282.545c-7.982-6.246-28.317-10.043-41.769,3.095
						c2.358,2.506,7.315,3.078,10.933,2.679C133.106,286.557,138.482,275.877,147.573,282.545z"/>
					<path style="fill:#588B7E;" d="M147.573,282.545c-8.51-6.634-20.532-25.181-20.868-41.221
						c7.098,0.906,17.444,11.104,16.155,31.586C142.551,277.467,146.324,281.629,147.573,282.545z"/>
					<path style="fill:#588B7E;" d="M163.016,295.811c-8.4-8.073-27.931-12.599-41.861-1.794c1.245,1.79,4.302,3.01,6.453,3.508
						C142.597,300.683,154.482,287.789,163.016,295.811z"/>
					<path style="fill:#588B7E;" d="M163.016,295.811c-7.147-6.844-17.493-26.937-15.919-43.36c1.874,0.514,5.237,2.584,7.719,5.864
						C166.387,272.988,154.241,287.564,163.016,295.811z"/>
				</g>
				<g>
					<path style="fill:none;stroke:#588B7E;stroke-width:0.75;stroke-miterlimit:10;" d="M348.359,312.915
						c19.079-23.19,43.535-40.729,70.521-51.331"/>
					<path style="fill:#588B7E;" d="M431.608,257.141c-16.645,21.499-28.499,15.416-40.555,19.24c-6.635,2.168-5.585,4.03-0.748-1.2
						C397.947,267.057,405.708,249.509,431.608,257.141z"/>
					<path style="fill:#588B7E;" d="M377.164,285.136c7.982-6.246,28.317-10.043,41.769,3.095
						c-2.358,2.506-7.315,3.078-10.933,2.679C391.631,289.148,386.255,278.468,377.164,285.136z"/>
					<path style="fill:#588B7E;" d="M377.164,285.136c8.51-6.634,20.532-25.181,20.868-41.221
						c-7.098,0.906-17.444,11.104-16.155,31.586C382.185,280.058,378.413,284.22,377.164,285.136z"/>
					<path style="fill:#588B7E;" d="M361.721,298.402c8.4-8.073,27.931-12.599,41.861-1.794c-1.245,1.79-4.302,3.01-6.453,3.508
						C382.14,303.274,370.255,290.38,361.721,298.402z"/>
					<path style="fill:#588B7E;" d="M361.721,298.402c7.147-6.844,17.493-26.936,15.919-43.36c-1.874,0.514-5.237,2.584-7.719,5.864
						C358.35,275.579,370.496,290.155,361.721,298.402z"/>
				</g>
				<g>
					<g>
						<g>
							<path style="fill:#FFFFFF;" d="M183.095,157.135c-2.644,7.912-3.043,14.91-0.89,15.629c2.153,0.72,6.042-5.111,8.687-13.023
								c2.645-7.912,3.043-14.91,0.89-15.629C189.629,143.392,185.74,149.223,183.095,157.135z"/>
							<path style="fill:#FFFFFF;" d="M190.791,159.674c-6.246,5.53-10.09,11.391-8.585,13.09c1.505,1.7,7.788-1.405,14.035-6.935
								c6.246-5.53,10.09-11.391,8.585-13.09C203.32,151.039,197.037,154.144,190.791,159.674z"/>
							<path style="fill:#FFFFFF;" d="M196.186,165.72c-8.174,1.666-14.434,4.82-13.98,7.044c0.453,2.224,7.448,2.677,15.622,1.011
								c8.174-1.666,14.434-4.82,13.98-7.044C211.354,164.507,204.36,164.054,196.186,165.72z"/>
							<path style="fill:#FFFFFF;" d="M197.835,173.654c-7.912-2.644-14.91-3.043-15.629-0.89c-0.72,2.153,5.111,6.042,13.023,8.687
								c7.912,2.644,14.91,3.043,15.629,0.89C211.578,180.188,205.747,176.299,197.835,173.654z"/>
							<path style="fill:#FFFFFF;" d="M195.296,181.35c-5.53-6.246-11.391-10.09-13.09-8.585c-1.7,1.505,1.405,7.788,6.935,14.035
								c5.53,6.246,11.391,10.09,13.091,8.585C203.931,193.879,200.826,187.596,195.296,181.35z"/>
							<path style="fill:#FFFFFF;" d="M189.25,186.745c-1.666-8.174-4.82-14.433-7.044-13.98c-2.224,0.453-2.677,7.447-1.011,15.622
								c1.666,8.174,4.82,14.434,7.044,13.98C190.463,201.913,190.916,194.919,189.25,186.745z"/>
							<path style="fill:#FFFFFF;" d="M181.316,188.394c2.644-7.912,3.043-14.91,0.89-15.629c-2.153-0.72-6.042,5.111-8.687,13.023
								c-2.644,7.912-3.043,14.91-0.89,15.629C174.783,202.137,178.672,196.306,181.316,188.394z"/>
							<path style="fill:#FFFFFF;" d="M173.621,185.855c6.246-5.53,10.09-11.391,8.585-13.09c-1.505-1.7-7.788,1.405-14.035,6.935
								c-6.246,5.53-10.09,11.391-8.585,13.09C161.091,194.49,167.374,191.385,173.621,185.855z"/>
							<path style="fill:#FFFFFF;" d="M168.225,179.809c8.174-1.666,14.434-4.82,13.98-7.044c-0.453-2.224-7.447-2.677-15.622-1.011
								c-8.174,1.666-14.433,4.82-13.98,7.044C153.057,181.022,160.051,181.475,168.225,179.809z"/>
							<path style="fill:#FFFFFF;" d="M166.576,171.875c7.912,2.644,14.91,3.043,15.629,0.89c0.72-2.153-5.111-6.042-13.023-8.687
								c-7.912-2.644-14.91-3.043-15.629-0.89C152.834,165.341,158.664,169.231,166.576,171.875z"/>
							<path style="fill:#FFFFFF;" d="M169.115,164.18c5.53,6.246,11.391,10.09,13.09,8.585c1.7-1.505-1.405-7.788-6.935-14.035
								c-5.53-6.246-11.391-10.09-13.09-8.585C160.48,151.65,163.585,157.933,169.115,164.18z"/>
							<path style="fill:#FFFFFF;" d="M175.161,158.785c1.666,8.174,4.82,14.433,7.044,13.98c2.224-0.453,2.677-7.448,1.011-15.622
								c-1.666-8.174-4.82-14.434-7.044-13.98C173.948,143.616,173.496,150.61,175.161,158.785z"/>
						</g>
					</g>
					<path style="fill:#F0B478;" d="M176.875,172.44c-0.179,2.944,2.062,5.476,5.006,5.655c2.944,0.179,5.476-2.062,5.655-5.006
						c0.179-2.944-2.062-5.476-5.006-5.655C179.586,167.255,177.054,169.497,176.875,172.44z"/>
				</g>
				<g>
					<g>
						<g>
							<path style="fill:#FFFFFF;" d="M104.397,309.141c-2.644,7.912-3.043,14.91-0.89,15.629s6.042-5.111,8.687-13.023
								s3.043-14.91,0.89-15.629C110.931,295.398,107.042,301.229,104.397,309.141z"/>
							<path style="fill:#FFFFFF;" d="M112.093,311.68c-6.246,5.53-10.09,11.391-8.585,13.091c1.505,1.7,7.788-1.405,14.035-6.935
								s10.09-11.391,8.585-13.09C124.622,303.045,118.339,306.15,112.093,311.68z"/>
							<path style="fill:#FFFFFF;" d="M117.488,317.726c-8.174,1.666-14.433,4.82-13.98,7.044c0.453,2.224,7.448,2.677,15.622,1.011
								c8.174-1.666,14.434-4.82,13.98-7.044C132.656,316.513,125.662,316.06,117.488,317.726z"/>
							<path style="fill:#FFFFFF;" d="M119.137,325.66c-7.912-2.644-14.91-3.043-15.629-0.89c-0.72,2.153,5.111,6.042,13.023,8.687
								c7.912,2.644,14.91,3.043,15.629,0.89C132.88,332.193,127.049,328.304,119.137,325.66z"/>
							<path style="fill:#FFFFFF;" d="M116.598,333.355c-5.53-6.246-11.391-10.09-13.091-8.585c-1.7,1.505,1.405,7.788,6.935,14.034
								c5.53,6.246,11.391,10.09,13.09,8.585C125.233,345.885,122.128,339.602,116.598,333.355z"/>
							<path style="fill:#FFFFFF;" d="M110.552,338.75c-1.666-8.174-4.82-14.433-7.044-13.98c-2.224,0.453-2.677,7.448-1.011,15.622
								c1.666,8.174,4.82,14.434,7.044,13.98C111.765,353.919,112.218,346.925,110.552,338.75z"/>
							<path style="fill:#FFFFFF;" d="M102.618,340.399c2.644-7.912,3.043-14.91,0.89-15.629s-6.042,5.111-8.687,13.023
								c-2.645,7.912-3.043,14.91-0.89,15.629C96.084,354.142,99.974,348.312,102.618,340.399z"/>
							<path style="fill:#FFFFFF;" d="M94.923,337.861c6.246-5.53,10.09-11.391,8.585-13.09c-1.505-1.7-7.788,1.405-14.035,6.935
								c-6.246,5.53-10.09,11.391-8.585,13.09C82.393,346.496,88.676,343.391,94.923,337.861z"/>
							<path style="fill:#FFFFFF;" d="M89.527,331.814c8.174-1.666,14.434-4.82,13.98-7.044c-0.453-2.224-7.447-2.677-15.622-1.011
								c-8.174,1.666-14.433,4.82-13.98,7.044C74.359,333.028,81.353,333.48,89.527,331.814z"/>
							<path style="fill:#FFFFFF;" d="M87.878,323.881c7.912,2.644,14.91,3.043,15.629,0.89c0.72-2.153-5.111-6.042-13.023-8.687
								c-7.912-2.644-14.91-3.043-15.629-0.89C74.135,317.347,79.966,321.236,87.878,323.881z"/>
							<path style="fill:#FFFFFF;" d="M90.417,316.185c5.53,6.246,11.391,10.09,13.09,8.585c1.7-1.505-1.405-7.788-6.935-14.035
								c-5.53-6.246-11.391-10.09-13.09-8.585C81.782,303.655,84.887,309.939,90.417,316.185z"/>
							<path style="fill:#FFFFFF;" d="M96.463,310.79c1.666,8.174,4.82,14.433,7.044,13.98c2.224-0.453,2.677-7.448,1.011-15.622
								c-1.666-8.174-4.82-14.434-7.044-13.98C95.25,295.622,94.798,302.616,96.463,310.79z"/>
						</g>
					</g>
					<path style="fill:#F0B478;" d="M98.177,324.446c-0.179,2.944,2.062,5.476,5.006,5.655c2.944,0.179,5.476-2.062,5.655-5.006
						c0.179-2.944-2.062-5.476-5.006-5.655C100.888,319.261,98.356,321.502,98.177,324.446z"/>
				</g>
				<g>
					<g>
						<path style="fill:#F0B478;" d="M140.701,216.902c-4.415,0.409-8.911-0.065-13.144-1.385c-1.817-0.566-3.656-1.335-4.907-2.769
							c-1.252-1.433-1.737-3.688-0.669-5.262c0.898-1.324,2.659-1.846,4.249-1.669c1.59,0.176,3.05,0.934,4.441,1.724
							c4.883,2.772,9.424,6.099,13.953,9.418"/>
						<path style="fill:#F0B478;" d="M142.854,192.463c-1.541,0.427-2.6,1.928-2.942,3.49c-0.342,1.563-0.092,3.189,0.21,4.759
							c1.062,5.513,2.759,10.881,4.453,16.234l1.204-3.734c1.801-4.052,2.793-8.462,2.898-12.895
							c0.045-1.902-0.094-3.891-1.051-5.536C146.669,193.137,144.688,191.956,142.854,192.463z"/>
						<path style="fill:#F0B478;" d="M144.623,216.958c-2.682-1.757-6.161-4.348-8.908-6.176c-2.748-1.828-5.212-4.185-6.521-7.214
							c-0.661-1.529-0.921-3.368-0.101-4.817c1.267-2.238,4.609-2.489,6.822-1.18c2.214,1.309,3.548,3.677,4.729,5.962
							C142.943,207.978,144.319,211.961,144.623,216.958"/>
						<path style="fill:#588B7E;" d="M145.193,208.125c-0.347,0.177-0.752,0.374-0.971,1.436c-0.436,2.112-0.524,2.977-0.637,4.826
							c-0.158-1.494-0.941-3.12-1.561-4.489c-0.268-0.591-1.433-1.385-2.064-1.235c-0.654,0.156-0.78,1.034-0.682,1.7
							c0.301,2.058,1.422,3.985,3.062,5.265c-1.7-0.846-3.707-1.056-5.545-0.58c-0.451,0.117-0.951,0.332-1.081,0.779
							c-0.105,0.361,0.087,0.757,0.378,0.995c0.291,0.238,0.664,0.348,1.03,0.437c2.461,0.599,5.093,0.479,7.488-0.343
							c1.313-2.582,1.758-3.208,2.609-7.563c0.062-0.315-0.052-0.791-0.598-1.157C146.296,207.98,145.539,207.948,145.193,208.125z"
							/>
					</g>
					<g>
						<g>
							<path style="fill:#588B7E;" d="M143.625,217.068c5.476,14.118,17.264,25.366,31.638,30.145
								c0.765,0.254,1.093-0.952,0.332-1.205c-13.926-4.63-25.456-15.585-30.765-29.272
								C144.543,215.994,143.334,216.317,143.625,217.068L143.625,217.068z"/>
						</g>
					</g>
				</g>
			</g>
			<g>
				<g>
					<g>
						<path style="fill:#588B7E;" d="M275.306,361.591l-119.29,5.205c-38.574,3.927-75.28,23.797-99.659,53.947
							c48.579,26.508,130.656,34.694,185.982,35.973c74.182,1.714,138.356-8.246,206.563-48.212
							C401.898,368.112,336.257,350.373,275.306,361.591z"/>
					</g>
					<g>
						<g>
							<path style="fill:#BDD1DA;" d="M102.968,382.591c9.302,16.93,18.604,33.86,27.905,50.79c0.129,0.234,0.449,0.368,0.706,0.287
								c4.424-1.385,8.848-2.77,13.271-4.155c10.601-3.319,21.203-6.638,31.805-9.958c12.775-4,25.55-8,38.325-11.999
								c10.944-3.427,21.888-6.853,32.832-10.279c5.086-1.592,10.306-2.972,15.316-4.795c0.294-0.107-0.217-0.035-0.181-0.032
								c0.135,0.011,0.28,0.048,0.413,0.078c0.708,0.158,1.431,0.27,2.144,0.404c2.978,0.562,5.956,1.124,8.933,1.685
								c10.462,1.974,20.925,3.948,31.387,5.921c13.113,2.474,26.227,4.948,39.34,7.422c11.758,2.218,23.517,4.436,35.275,6.655
								c6.388,1.205,12.776,2.41,19.163,3.615c0.301,0.057,0.603,0.114,0.904,0.171c0.302,0.057,0.714-0.081,0.769-0.436
								c1.697-10.901,3.393-21.802,5.09-32.702c0.238-1.531,0.476-3.061,0.715-4.592c0.122-0.787-1.082-1.126-1.205-0.332
								c-1.697,10.901-3.393,21.802-5.09,32.702c-0.238,1.531-0.476,3.061-0.715,4.592c0.256-0.146,0.513-0.291,0.769-0.436
								c-4.531-0.855-9.063-1.71-13.594-2.565c-10.846-2.046-21.692-4.092-32.537-6.138c-13.154-2.482-26.308-4.963-39.463-7.445
								c-11.491-2.168-22.982-4.336-34.473-6.503c-5.71-1.077-11.435-2.413-17.188-3.243c-0.827-0.119-1.503,0.198-2.303,0.448
								c-2.626,0.822-5.253,1.645-7.879,2.467c-9.865,3.089-19.73,6.177-29.595,9.266c-12.741,3.989-25.482,7.978-38.223,11.967
								c-11.506,3.602-23.011,7.204-34.517,10.807c-6.31,1.976-12.62,3.951-18.931,5.927c-0.297,0.093-0.593,0.186-0.89,0.279
								c0.235,0.096,0.471,0.191,0.706,0.287c-9.302-16.93-18.604-33.86-27.905-50.79
								C103.66,381.255,102.58,381.885,102.968,382.591L102.968,382.591z"/>
						</g>
					</g>
					<g>
						<g>
							<path style="fill:#BDD1DA;" d="M258.741,407.964c4.251,15.529,7.226,31.388,8.876,47.404c0.082,0.792,1.332,0.801,1.25,0
								c-1.662-16.127-4.641-32.099-8.921-47.737C259.734,406.857,258.528,407.186,258.741,407.964L258.741,407.964z"/>
						</g>
					</g>
				</g>
				<g>
					<g>
						<path style="fill:#282828;" d="M55.112,422.47c24.762,3.224,49.457,6.947,74.211,10.232
							c24.339,3.23,48.734,5.825,73.215,7.712c11.415,0.88,22.841,1.627,34.274,2.234c5.324,0.283,10.649,0.536,15.975,0.757
							c5.07,0.211,10.25,0.696,15.316,0.306c4.296-0.331,8.599-1.388,12.822-2.202c18.632-3.591,37.265-7.181,55.897-10.772
							c23.756-4.578,47.511-9.156,71.267-13.734c8.941-1.723,17.883-3.446,26.824-5.169c4.508-0.869,9.1-1.556,13.569-2.615
							c0.193-0.046,0.39-0.075,0.585-0.113c0.789-0.152,0.455-1.357-0.332-1.205c-11.189,2.156-22.378,4.313-33.567,6.469
							c-23.203,4.471-46.405,8.943-69.608,13.414c-20.1,3.873-40.199,7.747-60.299,11.62c-4.162,0.802-8.322,1.615-12.487,2.406
							c-6.992,1.329-14.222,0.59-21.287,0.29c-10.727-0.456-21.448-1.039-32.162-1.74c-24.38-1.596-48.725-3.766-72.977-6.732
							c-24.731-3.025-49.375-6.71-74.057-10.104c-5.724-0.787-11.45-1.558-17.18-2.304C54.317,421.116,54.324,422.367,55.112,422.47
							L55.112,422.47z"/>
					</g>
				</g>
			</g>
			<g>
				<g>
					<path style="fill:none;stroke:#588B7E;stroke-linecap:round;stroke-linejoin:round;stroke-miterlimit:10;" d="M268.526,129.669
						c-3.656-2.563-19.993-14.688-26.211-40.39c-1.914-7.911-2.784-17.31-1.57-19.215"/>
					<g>
						<path style="fill:#282828;" d="M330.52,151.03c-0.735-10.787,5.652-20.654,8.091-31.187
							c4.012-17.33-6.048-38.229-21.032-47.814l-3.936-2.482c-8.29-5.229-17.999-7.95-27.78-7.305
							c-24.635,1.626-37.795,21.88-45.458,34.546c-4.956,8.193-11.052,19.712-16.978,25.17c-7.043,6.487-15.175,13.618-24.73,14.235
							c0.473,4.868,4.04,9.295,8.697,10.792c4.656,1.497,10.135-0.021,13.356-3.702c-3.016,3.314-6.032,6.628-9.048,9.942
							c7.295,9.711,17.921,16.511,29.18,21.068c11.258,4.558,23.228,7.042,35.122,9.503c10.594,2.192,21.188,4.384,31.782,6.577
							c4.168,0.862,8.625,1.703,12.574,0.115c3.949-1.588,6.775-6.657,4.476-10.239c2.194,3.327,3.408,7.292,3.452,11.277
							c4.104-0.119,8.208-0.237,12.312-0.355C344.331,177.648,331.473,165.025,330.52,151.03z"/>
					</g>
					<g>
						<path style="fill:#F7C2A0;" d="M281.365,152.473c-0.384,0.864-7.348,32.59-7.348,32.59l-40.185-17.86l17.724-39.881
							L281.365,152.473z"/>
						<path style="fill:#F7C2A0;" d="M279.812,163.158c0,0,23.555,6.387,34.46-18.078c3.729-8.365,7.598-17.261,12.853-33.568
							c5.651-17.533-3.844-30.03-21.917-37.625l-1.796-0.755c-19.81-7.075-36.479-2.036-42.433,16.818l-5.538,18.251
							c0,0-18.359,37.064,24.337,54.971"/>
						<g>
							<g>
								<path style="fill:#282828;" d="M283.474,108.339c3.033-0.491,6.176,0.832,8.053,3.234c0.21,0.268,0.664,0.216,0.884,0
									c0.266-0.26,0.207-0.619,0-0.884c-2.168-2.775-5.818-4.115-9.27-3.556c-0.336,0.054-0.516,0.468-0.436,0.769
									C282.799,108.257,283.143,108.392,283.474,108.339L283.474,108.339z"/>
							</g>
						</g>
						<g>
							<g>
								<path style="fill:#282828;" d="M309.945,118.759c3.033-0.491,6.177,0.832,8.053,3.234c0.21,0.268,0.664,0.216,0.884,0
									c0.266-0.26,0.207-0.619,0-0.884c-2.168-2.775-5.818-4.115-9.27-3.556c-0.336,0.054-0.516,0.468-0.436,0.769
									C309.27,118.678,309.613,118.813,309.945,118.759L309.945,118.759z"/>
							</g>
						</g>
						<path style="fill:none;stroke:#282828;stroke-width:3;stroke-linecap:round;stroke-linejoin:round;stroke-miterlimit:10;" d="
							M314.845,109.579c2.483,0.601,4.859,1.646,6.979,3.072"/>
						<path style="fill:none;stroke:#282828;stroke-width:3;stroke-linecap:round;stroke-linejoin:round;stroke-miterlimit:10;" d="
							M289.482,99.538c2.375,0.789,4.708,1.907,6.855,3.287"/>
						<g>
							<path style="fill:#282828;" d="M257.277,110.597c8.694,5.589,18.897-11.244,38.585-11.911
								c10.622-0.36,23.451-9.85,29.691-18.753c0,0-16.111-21.32-38.933-16.815c-22.822,4.505-33.797,26.323-33.797,26.323
								L257.277,110.597z"/>
						</g>
						<g>
							<path style="fill:#F7C2A0;" d="M261.207,108.25c-2.171-2.843-5.359-5.129-8.927-5.037c-3.656,0.094-7.139,2.875-8.428,6.473
								c-1.289,3.598-0.438,7.778,1.923,10.571c2.362,2.794,6.089,4.194,9.744,3.927L261.207,108.25z"/>
						</g>
						<g>
							<path style="fill:#F5B297;" d="M253.117,109.951c-0.859-0.737-2.21-0.747-3.17-0.148c-0.961,0.599-1.533,1.714-1.627,2.842
								c-0.095,1.128,0.247,2.262,0.799,3.25c0.475,0.851,1.152,1.646,2.07,1.972c1.105,0.392,2.414-0.007,3.198-0.88
								c0.784-0.872,1.051-2.146,0.797-3.291c-0.254-1.145-0.99-2.152-1.936-2.845"/>
						</g>
						<g>
							<g>
								<path style="fill:#F07666;" d="M255.466,115.273c0.468-2.559-1.174-5.438-3.531-6.467c-0.804-0.351-1.671-0.495-2.547-0.445
									c-0.48,0.027-0.483,0.778,0,0.75c1.319-0.075,2.583,0.344,3.558,1.246c0.87,0.804,1.473,1.884,1.732,3.039
									c0.122,0.546,0.166,1.126,0.065,1.679C254.656,115.546,255.379,115.748,255.466,115.273L255.466,115.273z"/>
							</g>
						</g>
						<g>
							<path style="fill:#F07666;" d="M280.005,163.237c-4.67-2.128-10.457-6.044-13.325-12.661c0,0-0.824,13.005,10.824,18.288
								L280.005,163.237z"/>
						</g>
						<g>
							<g>
								<path style="fill:#282828;" d="M301.292,116.769c-1.161,2.619-2.338,5.262-3.196,7.999c-0.4,1.276-0.752,2.624-0.716,3.973
									c0.025,0.938,0.272,1.837,0.49,2.742c0.19,0.79,0.406,1.633,0.394,2.448c-0.036,2.496-3.067,2.318-4.803,2.124
									c-0.798-0.089-0.792,1.162,0,1.25c2.246,0.25,5.496,0.113,5.991-2.716c0.226-1.29-0.192-2.689-0.502-3.946
									c-0.48-1.946-0.248-3.631,0.352-5.543c0.827-2.635,1.953-5.179,3.07-7.7C302.694,116.671,301.618,116.034,301.292,116.769
									L301.292,116.769z"/>
							</g>
						</g>
						<g>
							<path style="fill:#F07666;" d="M280.206,133.303c1.421-0.018,2.894-0.017,4.19,0.567c1.296,0.584,2.366,1.921,2.171,3.329
								c-0.139,1.008-0.867,1.821-1.56,2.566c-0.494,0.531-1.022,1.083-1.716,1.295c-1.13,0.344-2.36-0.352-3.045-1.315
								c-1.166-1.637-1.048-4.069,0.271-5.586"/>
						</g>
						<g>
							<g>
								<path style="fill:#282828;" d="M278.876,131.435c0.182,3.96,2.721,7.527,6.365,9.053c0.314,0.131,0.684-0.142,0.769-0.436
									c0.103-0.359-0.127-0.639-0.436-0.769c-3.104-1.3-5.294-4.499-5.447-7.848C280.089,130.634,278.839,130.63,278.876,131.435
									L278.876,131.435z"/>
							</g>
						</g>
						<path style="fill:#F5B297;" d="M271.279,123.103c-1.176,2.645,0.016,5.743,2.661,6.919c2.645,1.176,5.743-0.016,6.919-2.661
							s-0.016-5.743-2.661-6.919C275.552,119.266,272.455,120.458,271.279,123.103z"/>
					</g>
					<g>
						<g>
							<path style="fill:#282828;" d="M312.06,128.437c-0.444,1.298-1.827,2.015-3.088,1.606c-1.258-0.409-1.921-1.79-1.475-3.088
								c0.445-1.298,1.828-2.017,3.086-1.609C311.844,125.756,312.506,127.14,312.06,128.437z"/>
						</g>
					</g>
					<g>
						<g>
							<path style="fill:#282828;" d="M289.286,118.574c-0.445,1.298-1.827,2.015-3.088,1.606c-1.258-0.409-1.921-1.79-1.475-3.088
								c0.445-1.298,1.828-2.017,3.086-1.609C289.069,115.893,289.731,117.277,289.286,118.574z"/>
						</g>
					</g>
					<g>
						<g>
							<path style="fill:#282828;" d="M324.604,81.766c11.035,8.99,17.132,23.331,16.38,37.505
								c-0.192,3.619-0.859,7.182-1.953,10.635c-1.278,4.036-2.998,7.928-4.079,12.027c-1.019,3.862-1.296,7.787-0.465,11.712
								c0.831,3.925,2.525,7.602,4.199,11.225c3.457,7.48,7.678,17.276,2.15,24.868c-0.474,0.651,0.61,1.275,1.079,0.631
								c4.494-6.172,2.86-14.483,0.135-21.032c-3.338-8.021-8.129-15.669-6.43-24.718c0.822-4.38,2.61-8.494,4.055-12.688
								c1.194-3.468,2.045-7.005,2.407-10.659c0.708-7.143-0.344-14.461-2.891-21.163c-2.835-7.459-7.505-14.177-13.703-19.226
								C324.869,80.378,323.979,81.257,324.604,81.766L324.604,81.766z"/>
						</g>
					</g>
					<g>
						<g>
							<path style="fill:#282828;" d="M197.952,132.227c6.66-0.664,13.111-2.816,18.819-6.32
								c5.876-3.608,10.586-8.545,14.411-14.247c3.999-5.963,7.142-12.453,11.195-18.382c3.909-5.719,8.795-10.756,14.395-14.835
								c6.202-4.518,13.202-7.852,20.624-9.8c0.777-0.204,0.448-1.41-0.332-1.205c-12.738,3.344-24.339,10.771-32.639,21.007
								c-8.931,11.013-13.293,25.369-24.96,34.125c-6.246,4.687-13.74,7.632-21.511,8.407
								C197.159,131.056,197.151,132.307,197.952,132.227L197.952,132.227z"/>
						</g>
					</g>
					<g>
						<g>
							<path style="fill:#443B3B;" d="M200.295,138.315c6.856,6.157,17.179,7.08,24.888,1.938c3.701-2.468,6.343-5.99,7.962-10.11
								c1.736-4.419,2.35-9.165,3.383-13.772c1.047-4.669,2.605-9.213,5.845-12.838c3.057-3.42,7.102-5.833,11.371-7.431
								c10.347-3.874,21.542-2.84,32.364-3.353c12.064-0.572,23.785-3.82,34.311-9.773c0.7-0.396,0.071-1.476-0.631-1.079
								c-9.277,5.246-19.638,8.497-30.265,9.383c-10.693,0.892-21.674-0.405-32.158,2.364c-8.16,2.155-16.043,6.823-19.634,14.773
								c-3.753,8.309-2.833,18.424-8.265,26.021c-2.983,4.172-7.727,7.062-12.806,7.789c-5.561,0.796-11.321-1.059-15.481-4.796
								C200.582,136.895,199.695,137.777,200.295,138.315L200.295,138.315z"/>
						</g>
					</g>
					<g>
						<g>
							<path style="fill:#443B3B;" d="M322.819,83.54c4.88,4.303,8.141,10.25,9.117,16.689c1.016,6.708-0.855,13.32-3.32,19.504
								c-2.486,6.239-5.568,12.256-7.328,18.764c-1.768,6.535-2.368,13.393-1.812,20.138c0.609,7.394,2.592,14.613,5.865,21.27
								c0.355,0.722,1.433,0.089,1.079-0.631c-6.181-12.575-7.578-27.354-3.813-40.858c3.512-12.599,12.452-24.297,10.614-37.963
								c-0.92-6.84-4.343-13.235-9.517-17.798C323.102,82.126,322.214,83.006,322.819,83.54L322.819,83.54z"/>
						</g>
					</g>
				</g>
				<g>
					<g>
						<g>
							<g>
								<path style="fill:#F7C2A0;" d="M314.414,421.828c5.148-1.784,11.578-4.931,11.711-10.379
									c0.134-5.447-2.451-10.693-6.081-14.757c-3.63-4.064-8.251-7.1-12.905-9.934c-4.789-2.917-9.982-6.006-12.214-11.15
									c-1.432-3.301-0.637-9.604-2.452-12.711c-1.806-3.094-5.072-5.555-9.5-5.958c-3.568-0.324-7.934-0.807-11.513-0.644
									c-6.993,0.318-13.15,3.42-20.122,4.044c-0.82,0.073-1.705,0.177-2.305,0.74c-0.677,0.635-0.785,1.653-0.85,2.579
									c-0.585,8.24-1.169,16.48-1.754,24.72c6.225,2.701,10.752,0.116,16.654,3.464c2.005,1.137,3.566,2.904,5.049,4.668
									c5.851,6.966,14.426,14.076,21.391,19.928c6.965,5.852,16.083,9.941,25.057,8.446"/>
							</g>
							<g>
								<path style="fill:#F7C2A0;" d="M307.73,424.539c-0.502,1.976-2.9,2.805-4.939,2.76c-1.387-0.031-2.857-0.362-3.82-1.36
									c-0.69-0.714-1.038-1.684-1.577-2.518c-1.51-2.342-16.655-12.922-19.799-16.74"/>
								<g>
									<path style="fill:#F07666;" d="M307.127,424.373c-0.559,1.784-2.658,2.334-4.336,2.301
										c-0.946-0.019-1.962-0.183-2.774-0.697c-0.894-0.566-1.296-1.505-1.798-2.39c-0.758-1.336-2.022-2.303-3.186-3.273
										c-3.961-3.302-8.123-6.354-12.113-9.621c-1.688-1.382-3.476-2.775-4.884-4.454c-0.518-0.617-1.398,0.271-0.884,0.884
										c1.379,1.645,3.126,3.012,4.778,4.368c2.309,1.894,4.671,3.724,7.023,5.564c2.073,1.621,4.167,3.227,6.152,4.957
										c0.557,0.486,1.174,0.98,1.63,1.567c0.887,1.139,1.226,2.54,2.491,3.381c2.735,1.818,8.008,1.248,9.105-2.254
										C308.573,423.936,307.367,423.607,307.127,424.373L307.127,424.373z"/>
								</g>
							</g>
							<g>
								<path style="fill:#F7C2A0;" d="M318.391,421.828c-1.11,4.67-7.427,3.952-10.232,2.781c-2.805-1.171-4.942-3.821-5.493-6.81"
									/>
								<g>
									<path style="fill:#F07666;" d="M317.788,421.661c-0.818,3.191-4.452,3.511-7.194,2.999
										c-3.67-0.685-6.587-3.299-7.325-7.028c-0.156-0.788-1.361-0.455-1.205,0.332c0.842,4.251,4.317,7.279,8.516,7.957
										c3.358,0.542,7.441-0.127,8.414-3.927C319.193,421.214,317.988,420.882,317.788,421.661L317.788,421.661z"/>
								</g>
							</g>
							<g>
								<path style="fill:#F7C2A0;" d="M324.094,416.624c-0.279,2.395-2.37,4.363-4.735,4.833c-2.365,0.47-4.876-0.408-6.698-1.987
									c-1.823-1.579-3.011-3.791-3.713-6.098"/>
								<g>
									<path style="fill:#F07666;" d="M323.491,416.458c-0.482,3.464-4.132,5.115-7.288,4.239
										c-3.504-0.972-5.624-4.193-6.653-7.492c-0.239-0.765-1.446-0.439-1.205,0.332c1.202,3.855,3.816,7.59,7.993,8.48
										c3.639,0.776,7.81-1.292,8.358-5.228C324.806,416.004,323.602,415.664,323.491,416.458L323.491,416.458z"/>
								</g>
							</g>
							<g>
								<path style="fill:#F7C2A0;" d="M314.259,391.761c4.637,2.019,8.69,5.359,11.558,9.525c1.855,2.695,3.252,5.935,2.78,9.172
									c-0.471,3.237-3.355,6.258-6.612,5.945c-2.684-0.258-4.694-2.51-6.273-4.695c-1.579-2.185-3.193-4.607-5.729-5.521"/>
								<g>
									<path style="fill:#F07666;" d="M313.944,392.301c3.861,1.716,7.287,4.259,9.986,7.518
										c2.678,3.233,5.473,8.097,3.512,12.345c-0.789,1.71-2.343,3.248-4.256,3.576c-2.139,0.367-4.002-0.952-5.386-2.434
										c-2.518-2.698-4.009-6.289-7.651-7.722c-0.749-0.295-1.073,0.914-0.332,1.205c3.443,1.355,4.904,5.173,7.359,7.672
										c2.159,2.198,5.186,3.398,8.082,1.854c2.859-1.524,4.28-4.827,4.021-7.963c-0.303-3.671-2.386-6.984-4.722-9.723
										c-2.718-3.186-6.16-5.709-9.982-7.408C313.846,390.897,313.209,391.974,313.944,392.301L313.944,392.301z"/>
								</g>
							</g>
						</g>
						<g>
							<path style="fill:#BE5F5A;" d="M220.71,333.4c-19.949-19.576-43.782-33.919-68.958-35.961
								c-11.058-0.897-22.63,0.755-32.102,8.045c-9.472,7.29-16.337,21.132-14.908,35.062c0.972,9.48,5.583,17.911,11.419,23.965
								c5.836,6.054,12.843,9.995,19.898,13.372c19.654,9.407,119.658,29.388,140.633,30.884l20.18-34.755L220.71,333.4z"/>
						</g>
						<g>
							<path style="fill:#BE5F5A;" d="M131.54,326.753c29.661-1.376,58.593,16.758,89.674,38.205"/>
							<g>
								<path style="fill:#282828;" d="M131.54,327.378c25.222-1.098,48.655,11.616,69.303,24.73
									c6.786,4.31,13.439,8.826,20.056,13.39c0.664,0.458,1.289-0.625,0.631-1.079c-11.679-8.056-23.478-16.016-35.937-22.83
									c-10.936-5.981-22.512-11.153-34.751-13.765c-6.339-1.353-12.822-1.977-19.301-1.695
									C130.739,326.162,130.735,327.413,131.54,327.378L131.54,327.378z"/>
							</g>
						</g>
					</g>
					<g>
						<g>
							<path style="fill:#F7C2A0;" d="M174.353,437.047c-5.148-1.784-11.577-4.931-11.711-10.379
								c-0.134-5.447,2.451-10.693,6.081-14.757c3.63-4.064,8.251-7.1,12.905-9.934c4.789-2.917,9.982-6.006,12.214-11.15
								c1.432-3.301,0.637-9.604,2.452-12.711c1.806-3.094,5.072-5.555,9.5-5.958c3.568-0.324,7.934-0.807,11.513-0.644
								c6.993,0.318,13.15,3.42,20.122,4.044c0.82,0.073,1.705,0.177,2.305,0.74c0.677,0.635,0.785,1.654,0.85,2.579
								c0.585,8.24,1.169,16.48,1.754,24.719c-6.225,2.701-10.752,0.117-16.654,3.464c-2.005,1.137-3.566,2.904-5.049,4.669
								c-5.851,6.966-14.426,14.076-21.391,19.928c-6.965,5.852-16.083,9.941-25.057,8.446"/>
						</g>
						<g>
							<path style="fill:#F7C2A0;" d="M181.037,439.759c0.502,1.976,2.9,2.806,4.939,2.76c1.387-0.031,2.857-0.362,3.82-1.36
								c0.69-0.715,1.038-1.684,1.577-2.518c1.51-2.342,16.655-12.922,19.799-16.74"/>
							<g>
								<path style="fill:#F07666;" d="M180.435,439.925c0.969,3.094,5.04,3.758,7.775,2.876c2.547-0.822,3.077-3.419,4.901-5.082
									c4.019-3.663,8.526-6.804,12.753-10.218c1.979-1.598,4.107-3.199,5.75-5.158c0.514-0.612-0.366-1.501-0.884-0.884
									c-1.21,1.443-2.715,2.656-4.157,3.855c-2.045,1.7-4.142,3.338-6.237,4.976c-2.001,1.565-4.013,3.119-5.979,4.729
									c-1.171,0.959-2.532,1.932-3.429,3.171c-0.434,0.6-0.703,1.302-1.111,1.918c-0.713,1.08-1.825,1.584-3.08,1.735
									c-1.852,0.224-4.459-0.212-5.097-2.252C181.401,438.827,180.193,439.154,180.435,439.925L180.435,439.925z"/>
							</g>
						</g>
						<g>
							<path style="fill:#F7C2A0;" d="M170.377,437.047c1.11,4.67,7.427,3.952,10.232,2.781s4.942-3.821,5.493-6.81"/>
							<g>
								<path style="fill:#F07666;" d="M169.774,437.213c0.974,3.8,5.056,4.47,8.414,3.927c4.199-0.678,7.674-3.706,8.516-7.957
									c0.156-0.786-1.049-1.122-1.205-0.332c-0.738,3.729-3.655,6.343-7.325,7.028c-2.742,0.512-6.376,0.192-7.194-2.999
									C170.78,436.102,169.574,436.432,169.774,437.213L169.774,437.213z"/>
							</g>
						</g>
						<g>
							<path style="fill:#F7C2A0;" d="M164.673,431.844c0.279,2.395,2.37,4.363,4.735,4.833c2.365,0.47,4.876-0.408,6.698-1.987
								c1.823-1.579,3.011-3.791,3.713-6.098"/>
							<g>
								<path style="fill:#F07666;" d="M164.071,432.01c0.547,3.927,4.721,6.014,8.359,5.228c4.177-0.903,6.788-4.616,7.993-8.48
									c0.24-0.77-0.966-1.099-1.205-0.332c-1.031,3.305-3.149,6.51-6.653,7.492c-3.154,0.883-6.806-0.782-7.288-4.239
									C165.166,430.884,163.961,431.222,164.071,432.01L164.071,432.01z"/>
							</g>
						</g>
						<g>
							<path style="fill:#F7C2A0;" d="M174.508,406.98c-4.637,2.019-8.69,5.359-11.558,9.525c-1.855,2.695-3.252,5.934-2.78,9.172
								c0.471,3.237,3.355,6.258,6.611,5.945c2.684-0.258,4.694-2.51,6.273-4.695s3.193-4.607,5.729-5.521"/>
							<g>
								<path style="fill:#F07666;" d="M174.193,406.441c-3.338,1.484-6.376,3.59-8.91,6.225c-2.52,2.62-4.837,5.873-5.588,9.49
									c-0.67,3.225,0.168,6.624,2.825,8.72c2.46,1.941,5.567,1.686,7.97-0.205c3.164-2.49,4.554-7.124,8.462-8.661
									c0.74-0.291,0.418-1.5-0.332-1.205c-3.642,1.433-5.132,5.023-7.651,7.722c-1.385,1.483-3.247,2.801-5.386,2.434
									c-1.914-0.328-3.466-1.865-4.256-3.576c-1.96-4.248,0.832-9.11,3.512-12.345c2.699-3.259,6.125-5.802,9.986-7.518
									C175.557,407.194,174.922,406.116,174.193,406.441L174.193,406.441z"/>
							</g>
						</g>
					</g>
					<g>
						<g>
							<path style="fill:#BE5F5A;" d="M284.614,333.4c19.949-19.576,43.782-33.919,68.958-35.961
								c11.058-0.897,22.63,0.755,32.102,8.045c9.472,7.29,16.337,21.132,14.908,35.062c-0.972,9.48-5.583,17.911-11.419,23.965
								c-5.836,6.054-12.843,9.995-19.898,13.372c-19.654,9.407-119.658,29.388-140.633,30.884l-18.309-38.851L284.614,333.4z"/>
						</g>
						<g>
							<g>
								<path style="fill:#282828;" d="M353.837,328.256c5.471-2.412,11.501-3.298,17.438-2.638c0.798,0.089,0.792-1.162,0-1.25
									c-6.169-0.686-12.394,0.307-18.069,2.808C352.471,327.501,353.107,328.578,353.837,328.256L353.837,328.256z"/>
							</g>
						</g>
						<g>
							<g>
								<path style="fill:#282828;" d="M243.773,357.72c-5.734,1.721-11.502,3.346-17.186,5.229
									c-5.632,1.866-11.132,4.08-16.579,6.427c-0.232,0.1-0.375,0.472-0.287,0.706c5.146,13.697,11.405,26.956,18.719,39.628
									c0.148,0.256,0.431,0.338,0.706,0.287c8.835-1.639,17.668-3.293,26.499-4.955c15.45-2.907,30.899-5.826,46.324-8.869
									c5.537-1.092,11.092-2.143,16.589-3.428c0.783-0.183,0.452-1.389-0.332-1.205c-11.987,2.803-24.158,4.925-36.246,7.24
									c-14.529,2.782-29.067,5.518-43.608,8.233c-3.186,0.595-6.371,1.189-9.557,1.78c0.235,0.096,0.471,0.191,0.706,0.287
									c-7.261-12.579-13.485-25.733-18.593-39.329c-0.096,0.235-0.191,0.471-0.287,0.706c5.447-2.347,10.952-4.546,16.587-6.402
									c5.585-1.84,11.249-3.438,16.88-5.128C244.874,358.695,244.546,357.488,243.773,357.72L243.773,357.72z"/>
							</g>
						</g>
					</g>
				</g>
				<g>
					<g>
						<path style="fill:#F0B478;" d="M360.89,285.997c-4.379-7.68-12.042-13.058-20.249-16.344
							c-8.207-3.286-17.025-4.689-25.757-6.07l-150.472,15.258c-12.423,3.538-20.05,17.504-18.758,30.355
							c1.292,12.852,9.997,24.102,20.824,31.147c10.827,7.044,23.613,10.418,36.314,12.767c34.061,6.298,69.341,5.932,103.265-1.07
							c16.416-3.388,33.185-8.696,45.237-20.346C363.346,320.046,369.192,300.559,360.89,285.997z"/>
					</g>
					<g>
						<g>
							<path style="fill:#282828;" d="M204.1,353.904c28.204,6.58,57.497,4.585,85.953,0.86c14.193-1.858,28.405-4.016,41.72-9.52
								c10.9-4.505,21.188-11.529,27.512-21.691c3.261-5.239,5.013-11.379,5.611-17.49c0.607-6.21-0.039-12.665-2.619-18.392
								c-0.33-0.732-1.407-0.097-1.079,0.631c4.504,9.998,3.209,22.908-1.776,32.49c-5.418,10.414-15.656,17.805-26.171,22.472
								c-12.691,5.633-26.404,7.979-40.067,9.832c-13.945,1.892-27.966,3.4-42.042,3.777c-15.668,0.42-31.415-0.607-46.709-4.175
								C203.65,352.516,203.316,353.721,204.1,353.904L204.1,353.904z"/>
						</g>
					</g>
					<g>
						<g>
							<path style="fill:#E4E5D1;" d="M144.841,308.514c6.775,11.302,20.329,15.471,32.416,18.288
								c16.681,3.887,33.593,6.988,50.643,8.7c17.047,1.712,34.298,1.983,51.334-0.006c14.743-1.721,29.318-5.131,43.161-10.518
								c13.605-5.295,26.479-12.497,37.789-21.757c1.445-1.183,2.86-2.4,4.251-3.645c0.601-0.538-0.286-1.419-0.884-0.884
								c-10.824,9.688-23.313,17.365-36.642,23.098c-13.406,5.767-27.638,9.574-42.062,11.713
								c-16.348,2.424-32.99,2.629-49.452,1.405c-17.005-1.265-33.862-4.077-50.518-7.682c-12.499-2.705-27.227-5.365-36.128-15.447
								c-1.067-1.208-2.001-2.515-2.829-3.896C145.507,307.194,144.426,307.822,144.841,308.514L144.841,308.514z"/>
						</g>
					</g>
				</g>
				<g>
					<g>
						<path style="fill:#F7C2A0;" d="M289.258,172.036l-47.169-9.81c0,0-48.791,4.805-54.648,9.973
							c-5.857,5.169,14.815,118.18,14.815,118.18h109.91v-91.837L289.258,172.036z"/>
						<g>
							<g>
								<path style="fill:#F07666;" d="M291.853,176.984c-5.784-1.643-11.703-2.747-17.689-3.318c-0.8-0.076-0.795,1.174,0,1.25
									c5.875,0.56,11.68,1.661,17.356,3.274C292.296,178.41,292.626,177.204,291.853,176.984L291.853,176.984z"/>
							</g>
						</g>
						<g>
							<g>
								<path style="fill:#F07666;" d="M248.824,173.22c-3.602-0.705-7.204-1.41-10.805-2.115c-0.786-0.154-1.122,1.051-0.332,1.205
									c3.602,0.705,7.204,1.41,10.805,2.115C249.277,174.579,249.614,173.374,248.824,173.22L248.824,173.22z"/>
							</g>
						</g>
						<g>
							<g>
								<path style="fill:#F07666;" d="M307.563,227.476c-0.602-6.233-5.128-11.747-11.157-13.489
									c-0.774-0.224-1.105,0.982-0.332,1.205c5.459,1.577,9.692,6.614,10.239,12.284
									C306.389,228.27,307.64,228.278,307.563,227.476L307.563,227.476z"/>
							</g>
						</g>
						<g>
							<g>
								<path style="fill:#F07666;" d="M304.761,198.684c-1.382,5.693-3.197,11.378-5.371,16.818
									c-0.298,0.747,0.91,1.071,1.205,0.332c2.174-5.441,3.989-11.125,5.371-16.818
									C306.156,198.235,304.951,197.902,304.761,198.684L304.761,198.684z"/>
							</g>
						</g>
						<g>
							<g>
								<path style="fill:#F07666;" d="M258.044,237.205c-0.151-6.738,3.128-13.35,8.633-17.257
									c0.651-0.462,0.027-1.546-0.631-1.079c-5.865,4.162-9.413,11.135-9.252,18.336
									C256.812,238.008,258.062,238.011,258.044,237.205L258.044,237.205z"/>
							</g>
						</g>
						<g>
							<g>
								<path style="fill:#F07666;" d="M243.678,217.853c2.767,2.129,4.769,5.179,5.682,8.542c0.21,0.775,1.417,0.446,1.205-0.332
									c-1.005-3.702-3.222-6.954-6.257-9.289c-0.27-0.207-0.697-0.039-0.855,0.224
									C243.262,217.318,243.412,217.648,243.678,217.853L243.678,217.853z"/>
							</g>
						</g>
					</g>
					<polygon style="fill:#FFFFFF;" points="292.339,258.008 214.48,213.116 200.534,219.353 193.921,241.436 198.007,266.186 
						295.724,264.518 					"/>
					<path style="fill:#F7C2A0;" d="M289.015,172.135c0,0,26.271,3.804,32.631,13.795c4.724,7.421,11.366,26.593,11.366,26.593
						l-31.139,4.447l-12.535-44.205"/>
					<g>
						<path style="fill:#F7C2A0;" d="M349.939,262.616c-4.971-20.598-23.88-68.064-23.88-68.064l-21.467,13.975l9.083,56.047
							l20.816,36.382C353.375,293.317,353.375,276.85,349.939,262.616z"/>
						<polygon style="fill:#FFFFFF;" points="339.046,219.408 295.635,258.063 299.02,264.573 341.277,225.474 						"/>
					</g>
					<g>
						<path style="fill:#F7C2A0;stroke:#F07666;stroke-miterlimit:10;" d="M289.16,268.902c0,0,7.023,5.239,15.296,5.774
							c12.527,0.811,22.171-6.579,22.171-6.579s17.063-9.225,6.769-30.248c-10.294-21.023-31.91-13.052-34.323-10.8
							c-2.413,2.252-4.974,3.324-6.245,3.934c-1.271,0.61-8.169-0.594-12.697,3.023c-3.941,3.147-5.705,10.236-5.202,14.217
							c0.503,3.982,1.772,9.296,1.772,9.296"/>
						<g>
							<g>
								<path style="fill:#F07666;" d="M301.736,239.522c1.353,0.691,2.101,2.219,1.93,3.721c-0.172,1.523-1.285,2.798-2.608,3.485
									c-3.082,1.6-7.247-0.315-7.39-3.952c-0.031-0.802-1.282-0.806-1.25,0c0.135,3.432,3.184,5.972,6.565,5.77
									c3.081-0.184,6.153-2.712,5.944-6.003c-0.108-1.694-1.025-3.317-2.56-4.1C301.652,238.078,301.019,239.156,301.736,239.522
									L301.736,239.522z"/>
							</g>
						</g>
						<g>
							<g>
								<path style="fill:#282828;" d="M291.986,229.429c-0.259,1.393,0.112,2.798,1.023,3.883c0.211,0.251,0.669,0.234,0.884,0
									c0.245-0.267,0.225-0.616,0-0.884c-0.023-0.027-0.045-0.053-0.067-0.081c0.044,0.058,0.045,0.059,0.002,0.002
									c-0.04-0.057-0.081-0.113-0.119-0.171c-0.076-0.117-0.146-0.237-0.21-0.361c-0.032-0.062-0.061-0.125-0.09-0.188
									c-0.029-0.065-0.028-0.064,0.002,0.005c-0.013-0.032-0.026-0.065-0.038-0.098c-0.045-0.123-0.085-0.247-0.118-0.374
									c-0.033-0.127-0.057-0.255-0.081-0.383c-0.011-0.073-0.011-0.069,0,0.011c-0.004-0.035-0.008-0.069-0.011-0.104
									c-0.007-0.069-0.011-0.139-0.014-0.208c-0.006-0.139-0.004-0.279,0.005-0.417c0.005-0.07,0.012-0.139,0.019-0.208
									c-0.018,0.162,0.013-0.063,0.018-0.092c0.06-0.32-0.088-0.689-0.436-0.769C292.448,228.922,292.05,229.085,291.986,229.429
									L291.986,229.429z"/>
							</g>
						</g>
						<path style="fill:#588B7E;" d="M253.31,248.475"/>
						<g>
							<path style="fill:#588B7E;" d="M291.623,258.539c-2.375-3.28-6.354-5.131-10.367-5.674
								c-4.013-0.544-8.092,0.086-12.046,0.958c-13.344,2.94-26.065,8.68-37.099,16.738c-6.349,4.636-12.525,10.209-20.259,11.621
								c-2.652,0.484-5.737,0.63-7.372,2.774c-1.193,1.564-4.617,3.813-4.097,5.711c1.766,6.451,5.426,16.557,11.495,19.369
								c7.486,3.468,21.541,0.083,29.705,1.275c8.164,1.192,16.724,0.589,24.274-2.738c5.901-2.6,13.383-6.321,18.125-10.691
								c4.576-4.217,6.576-9.206,9.438-14.731c2.863-5.525,4.038-12.18,1.946-18.041"/>
						</g>
						<g>
							<path style="fill:#588B7E;" d="M184.494,282.439c3.809-5.052,10.553-15.284,15.487-19.244
								c4.934-3.96,11.135-6.714,17.447-6.276c6.312,0.438,13.66,3.292,15.28,9.408c0.368-0.442-0.368,0.442,0,0l4.001,10.367
								l-20.113,12.109l-27.031,11.48c-3.098,1.072-6.265,2.155-9.543,2.169c-3.278,0.014-6.745-1.234-8.567-3.96
								c-1.178-1.762-1.551-3.924-1.897-6.015c-1.002-6.054-2.005-12.108-3.007-18.162c-0.243-1.468-0.453-3.101,0.38-4.334
								c1.395-2.065,5.133-2.932,7.552-2.334c2.799,0.692,3.926,3.112,5.658,6.625C182.698,279.462,184.494,282.439,184.494,282.439
								L184.494,282.439z"/>
						</g>
						<g>
							<g>
								<path style="fill:#282828;" d="M192.203,272.842c3.741-7.181,10.214-13.165,18.296-14.868
									c8.202-1.728,17.258,1.22,21.626,8.649c2.256,3.837,3.084,8.428,1.961,12.762c-0.202,0.779,1.003,1.112,1.205,0.332
									c2.102-8.111-2.15-16.891-9.418-20.846c-7.967-4.335-17.909-3.053-25.153,2.121c-4.059,2.899-7.297,6.807-9.596,11.219
									C190.752,272.923,191.831,273.556,192.203,272.842L192.203,272.842z"/>
							</g>
						</g>
						<g>
							<g>
								<path style="fill:#282828;" d="M206.502,308.015c11.873,7.149,26.709,7.128,40.1,6.07c7.35-0.581,14.717-1.848,21.55-4.707
									c5.499-2.301,10.551-5.621,14.891-9.704c5.047-4.747,9.096-10.518,11.807-16.895c0.311-0.732-0.765-1.37-1.079-0.631
									c-4.7,11.056-13.465,20.216-24.357,25.313c-6.429,3.009-13.484,4.465-20.513,5.169c-6.717,0.672-13.571,0.902-20.308,0.421
									c-7.496-0.535-14.965-2.206-21.459-6.116C206.442,306.52,205.813,307.6,206.502,308.015L206.502,308.015z"/>
							</g>
						</g>
						<g>
							<path style="fill:#F7C2A0;" d="M238.056,255.478c0.778-1.259-0.881-2.882-1.575-4.189c-0.695-1.307-1.755-2.376-2.621-3.576
								c-2.892-4.005-3.442-9.582-1.388-14.075c-0.172-0.971,0.273-2.024,1.089-2.578c0.816-0.554,1.959-0.578,2.798-0.059
								c-0.403-1.169,0.794-2.489,2.027-2.383c1.232,0.105,2.071,0.611,2.037,1.848c0.055-0.564,1.081-0.864,1.617-0.68
								c0.536,0.184,0.862,1.103,0.771,2.006c-0.057,0.564,0.053,1.128,0.024,1.694c-0.063,1.223,0.043,2.456,0.313,3.65
								c0.185,0.82,0.479,1.67,1.131,2.2c0.652,0.531,1.754,0.578,2.251-0.1c0.56-0.764,0.096-1.951,0.645-2.724
								c0.562-0.792,1.895-0.593,2.516,0.154c0.62,0.747,0.705,1.795,0.689,2.765c-0.041,2.494-1.151,6.122-2.814,8.298l1.491,4.158
								L238.056,255.478z"/>
							<g>
								<path style="fill:#F07666;" d="M238.596,255.794c0.853-1.795-0.713-3.353-1.575-4.82c-1.27-2.159-3.123-3.869-4.097-6.217
									c-0.953-2.297-1.275-4.85-0.917-7.311c0.089-0.614,0.219-1.222,0.393-1.818c0.17-0.584,0.524-1.165,0.645-1.749
									c0.118-0.573-0.02-1.152,0.309-1.701c0.569-0.947,1.765-1.117,2.692-0.638c0.493,0.255,1.039-0.164,0.918-0.706
									c-0.399-1.797,2.767-2.208,2.836-0.37c0.027,0.708,1.011,0.844,1.228,0.166c0.091-0.168,0.24-0.254,0.448-0.258
									c0.536,0.166,0.778,0.51,0.727,1.032c0.025,0.4-0.021,0.829-0.013,1.232c0.022,1.049-0.02,2.095,0.101,3.141
									c0.162,1.403,0.439,3.202,1.675,4.097c0.884,0.64,2.267,0.704,3.009-0.198c0.463-0.563,0.385-1.138,0.51-1.801
									c0.145-0.768,0.346-1.503,1.249-1.132c0.581,0.238,0.819,0.809,0.94,1.386c0.354,1.684-0.126,3.614-0.634,5.216
									c-0.277,0.875-0.618,1.73-1.049,2.542c-0.284,0.537-1.015,1.228-1.048,1.841c-0.034,0.641,0.515,1.541,0.727,2.13
									c0.262,0.731,0.525,1.463,0.787,2.195c0.146-0.256,0.291-0.512,0.437-0.769c-3.667,1.197-7.335,2.394-11.002,3.591
									c-0.761,0.249-0.436,1.456,0.332,1.205c3.667-1.197,7.335-2.394,11.002-3.591c0.303-0.099,0.555-0.438,0.437-0.769
									c-0.235-0.654-0.47-1.309-0.704-1.964c-0.184-0.513-0.839-1.607-0.772-2.154c-0.043,0.347,0.341-0.155,0.423-0.285
									c0.198-0.314,0.38-0.638,0.549-0.969c0.349-0.681,0.647-1.392,0.902-2.113c0.508-1.435,0.865-2.963,0.937-4.489
									c0.058-1.234-0.035-2.702-0.964-3.628c-0.721-0.719-1.975-1.01-2.866-0.432c-0.413,0.268-0.664,0.664-0.799,1.133
									c-0.217,0.758-0.137,2.851-1.507,2.151c-1.71-0.875-1.369-4.361-1.398-5.911c-0.022-1.196,0.251-3.18-1.105-3.815
									c-0.929-0.435-2.227,0.086-2.535,1.054c0.409,0.055,0.818,0.111,1.228,0.166c-0.138-3.655-6.094-2.911-5.291,0.702
									c0.306-0.235,0.612-0.471,0.918-0.706c-2.055-1.061-4.476-0.001-4.834,2.359c-0.188,1.239-0.678,2.367-0.926,3.609
									c-0.265,1.328-0.359,2.691-0.263,4.041c0.181,2.562,0.997,5.108,2.444,7.239c0.829,1.221,1.878,2.28,2.646,3.544
									c0.542,0.891,2.289,2.825,1.773,3.909C237.173,255.885,238.25,256.521,238.596,255.794z"/>
							</g>
						</g>
						<g>
							<g>
								<path style="fill:#F07666;" d="M241.087,238.309c-1.152-2.301-1.299-5.207-0.124-7.528c0.363-0.716-0.715-1.35-1.079-0.631
									c-1.388,2.742-1.238,6.069,0.124,8.79C240.368,239.659,241.447,239.027,241.087,238.309L241.087,238.309z"/>
							</g>
						</g>
						<g>
							<g>
								<path style="fill:#F07666;" d="M237.001,238.753c-0.749-2.507-0.755-5.252,0.079-7.739c0.256-0.764-0.95-1.092-1.205-0.332
									c-0.9,2.684-0.887,5.698-0.079,8.403C236.025,239.854,237.232,239.527,237.001,238.753L237.001,238.753z"/>
							</g>
						</g>
						<g>
							<g>
								<path style="fill:#F07666;" d="M233.708,239.335c-0.361-0.805-0.554-1.787-0.651-2.688c-0.1-0.931-0.131-1.954,0.018-2.843
									c0.055-0.333-0.087-0.673-0.436-0.769c-0.299-0.082-0.713,0.102-0.769,0.436c-0.18,1.081-0.176,2.182-0.052,3.269
									c0.127,1.11,0.353,2.202,0.812,3.225c0.138,0.308,0.586,0.382,0.855,0.224C233.801,240.005,233.847,239.645,233.708,239.335
									L233.708,239.335z"/>
							</g>
						</g>
						<g>
							<path style="fill:#588B7E;" d="M236.407,251.861c0.073,4.111,0.152,8.266,1.165,12.25c1.014,3.985,3.063,7.844,6.391,10.26
								c2.325,1.688,5.124,2.578,7.895,3.336c5.12,1.399,10.458,2.443,15.718,1.739c5.261-0.704,10.479-3.404,13.113-8.012
								c1.157-2.024,1.775-4.333,1.941-6.659c0.167-2.335-0.231-4.933-2.002-6.465c-1.488-1.287-3.597-1.526-5.564-1.581
								c-4.587-0.128-9.163,0.425-13.718,0.978c-1.891,0.229-3.782,0.459-5.674,0.688c-0.456,0.055-0.938,0.107-1.359-0.078
								c-0.347-0.153-0.607-0.448-0.85-0.739c-2.228-2.665-2.389-6.508-3.648-9.745"/>
						</g>
						<g>
							<g>
								<path style="fill:#282828;" d="M235.62,253.61c2.474,7.82,1.204,17.84,7.958,23.77c3.276,2.876,7.466,3.144,11.623,2.645
									c4.642-0.558,9.298-1.287,13.882-2.21c5.245-1.056,10.395-2.529,15.249-4.806c0.728-0.341,0.094-1.419-0.631-1.079
									c-8.017,3.761-16.828,5.167-25.518,6.431c-4.288,0.624-9.087,1.474-12.883-1.203c-2.975-2.098-4.672-5.639-5.594-9.065
									c-1.312-4.872-1.354-9.988-2.88-14.814C236.584,252.513,235.377,252.84,235.62,253.61L235.62,253.61z"/>
							</g>
						</g>
						<g>
							<g>
								<path style="fill:#282828;" d="M253.482,266.33c1-2.671,1.224-5.567,0.707-8.367c-0.146-0.79-1.351-0.455-1.205,0.332
									c0.477,2.584,0.212,5.246-0.707,7.703C251.994,266.752,253.202,267.078,253.482,266.33L253.482,266.33z"/>
							</g>
						</g>
					</g>
					<g>
						<path style="fill:#F7C2A0;" d="M321.387,268.938l-55.216,2.228l-17.49-0.517l12.368,24.721c0,0,34.1,4.048,58.093,6.353
							c28.928,2.78,30.1-14.157,25.341-24.97C340.224,267.077,321.387,268.938,321.387,268.938z"/>
						<g>
							<g>
								<path style="fill:#F07666;" d="M260.286,271.161c20.047,0.835,40.083-1.859,60.131-1.8
									c5.276,0.016,10.56,0.206,15.802,0.821c0.797,0.094,0.791-1.157,0-1.25c-9.679-1.137-19.493-0.921-29.213-0.544
									c-10.354,0.401-20.693,1.125-31.049,1.477c-5.221,0.178-10.451,0.263-15.672,0.046
									C259.482,269.878,259.483,271.128,260.286,271.161L260.286,271.161z"/>
							</g>
						</g>
						<g>
							<g>
								<path style="fill:#F7C2A0;" d="M232.435,256.557c-0.826-1.183-1.666-2.396-2.053-3.786
									c-0.606-2.182,0.101-4.944,3.268-5.196c0.664-0.053,1.337,0.055,1.966,0.275c1.525,0.533,2.999,1.467,3.892,2.813
									c3.688,5.56,7.125,10.162,10.816,15.362c1.479,2.083,3.805,3.463,6.356,3.601c0.961,0.052,1.553-0.079,1.553-0.079
									c1.334-1.051,0.82-3.631,0.332-5.377c-0.335-1.201-0.863-2.341-1.563-3.373c-1.43-2.11-3.418-4.734-2.801-7.571
									c0.28-1.287,1.179-2.423,2.458-2.74c1.822-0.452,3.255,0.897,4.45,2.142c3.465,3.608,6.93,7.215,10.394,10.823
									c2.938,3.06,5.952,6.236,7.447,10.206c1.346,3.573,1.345,7.54,0.638,11.292c-0.707,3.751,9.891,3.215,8.516,6.776
									c-0.641,1.659,9.885,7.22,8.295,8.015c-1.321,0.661-24.153-0.454-25.613-0.674c-5.949-0.895-13.466-1.558-18.87-4.201
									c-8.012-3.917-14.359-10.199-19.266-17.646c-0.886-1.346-1.771-2.747-2.076-4.329c-0.305-1.582,0.095-3.404,1.385-4.371
									c-1.304-1.309-2.627-2.644-3.493-4.277c-0.866-1.632-1.222-3.636-0.503-5.338
									C228.681,257.201,230.674,255.998,232.435,256.557z"/>
							</g>
							<g>
								<path style="fill:#F7C2A0;" d="M246.428,274.441c-5.141-5.234-12.336-13.543-16.577-21.208"/>
								<g>
									<path style="fill:#F07666;" d="M246.87,273.999c-6.215-6.343-12.14-13.299-16.479-21.081
										c-0.392-0.703-1.472-0.073-1.079,0.631c4.387,7.869,10.39,14.92,16.674,21.334
										C246.55,275.458,247.434,274.574,246.87,273.999L246.87,273.999z"/>
								</g>
							</g>
							<g>
								<path style="fill:#F7C2A0;" d="M240.986,280.203c-4.084-4.322-8.101-9.539-11.965-14.048"/>
								<g>
									<path style="fill:#F07666;" d="M241.428,279.761c-4.221-4.48-7.967-9.375-11.965-14.048
										c-0.524-0.612-1.404,0.276-0.884,0.884c3.999,4.673,7.744,9.568,11.965,14.048
										C241.097,281.232,241.979,280.347,241.428,279.761L241.428,279.761z"/>
								</g>
							</g>
						</g>
						<g>
							<g>
								<path style="fill:#F07666;" d="M301.008,299.247c-11.224,0.038-22.503-0.73-33.646-2.057c-4.2-0.5-8.452-1.036-12.559-2.077
									c-4.812-1.219-9.136-4.435-12.825-7.643c-2.873-2.499-5.49-5.307-7.773-8.355c-1.84-2.455-5.995-7.212-2.657-9.879
									c0.268-0.214,0.213-0.662,0-0.884c-1.523-1.585-3.465-4.014-3.844-6.238c-0.37-2.17,0.826-6.139,3.704-5.41
									c0.493,0.125,1.031-0.45,0.706-0.918c-1.044-1.499-2.254-3.174-2.158-5.092c0.106-2.135,1.945-3.273,3.963-2.881
									c1.8,0.35,2.85,1.814,3.808,3.243c0.96,1.432,1.951,2.842,2.995,4.214c1.703,2.237,3.532,4.373,5.292,6.565
									c2.065,2.571,3.85,5.434,6.693,7.23c1.453,0.918,3.782,2.045,5.512,1.21c2.206-1.065,0.916-4.308,0.349-5.975
									c-0.483-1.422-0.962-2.746-1.763-4.031c-0.963-1.544-2.143-3.013-2.688-4.776c-0.521-1.684-0.248-4.053,1.646-4.772
									c1.916-0.727,3.551,1.378,4.713,2.589c3.185,3.317,6.371,6.633,9.556,9.95c2.907,3.027,5.898,6.132,7.454,10.104
									c0.29,0.741,1.5,0.418,1.205-0.332c-1.399-3.57-3.828-6.489-6.433-9.25c-2.991-3.171-6.036-6.292-9.055-9.436
									c-1.9-1.978-4.73-6.141-8.004-4.753c-3.212,1.362-2.895,5.354-1.582,7.925c0.858,1.68,2.121,3.125,2.923,4.834
									c0.665,1.416,1.227,3.134,1.534,4.671c0.124,0.62,0.321,1.624-0.28,2.067c-0.372,0.274-1.001,0.21-1.422,0.148
									c-1.362-0.202-2.651-0.932-3.745-1.737c-1.646-1.211-2.816-2.824-4.053-4.423c-1.109-1.434-2.249-2.843-3.4-4.243
									c-2.142-2.605-4.231-5.234-6.116-8.034c-0.988-1.467-1.981-3.039-3.644-3.812c-1.395-0.648-3.135-0.699-4.519,0.003
									c-1.459,0.739-2.191,2.29-2.196,3.883c-0.007,2.092,1.187,3.89,2.336,5.541c0.235-0.306,0.47-0.612,0.706-0.918
									c-3.098-0.785-5.01,2.231-5.318,4.945c-0.373,3.283,2.083,6.546,4.242,8.793c0-0.295,0-0.589,0-0.884
									c-2.507,2.003-1.68,4.98-0.24,7.419c1.776,3.008,3.997,5.817,6.359,8.385c2.33,2.533,4.898,4.845,7.67,6.885
									c2.345,1.727,4.91,3.452,7.627,4.536c3.543,1.413,7.594,1.836,11.342,2.355c5.749,0.797,11.533,1.348,17.321,1.771
									c6.741,0.492,13.504,0.816,20.265,0.793C301.812,300.495,301.814,299.245,301.008,299.247L301.008,299.247z"/>
							</g>
						</g>
					</g>
					<g>
						<g>
							<path style="fill:#F7C2A0;" d="M235.906,297.157l-48.543-37.083l27.165-94.444c-21.88,4.291-32.006,1.701-43.305,28.923
								c0,0-12.357,39.266-18.602,60.528c-3.914,13.328-1.055,27.243,15.365,37.806c7.521,4.838,60.668,27.984,60.668,27.984
								L235.906,297.157z"/>
						</g>
						<g>
							<g>
								<path style="fill:#F07666;" d="M174.06,265.015c3.384-2.979,8.095-4.303,12.535-3.503c0.786,0.142,1.124-1.063,0.332-1.205
									c-4.906-0.883-10.008,0.529-13.751,3.825C172.572,264.664,173.458,265.545,174.06,265.015L174.06,265.015z"/>
							</g>
						</g>
						<g>
							<g>
								<path style="fill:#F7C2A0;" d="M281.301,301.136c1.314-0.596,2.656-1.21,3.698-2.207c1.042-0.998,1.746-2.471,1.448-3.883
									c-0.333-1.581-1.853-2.701-3.436-3.021c-1.583-0.32-3.327-0.27-4.782,0.432c-6.701,3.232-10.047,4.491-16.699,7.49
									c-4.859,1.988-7.25,0.649-7.899-1.038c-0.649-1.687,0.241-3.568,1.563-4.8c1.322-1.232,4.103-1.869,5.719-2.677
									c1.617-0.808,2.177-1.886,3.032-3.478c0.855-1.592-0.699-2.816-2.242-3.758c-1.283-0.784-7.297-1.468-8.746-1.067
									c-4.821,1.333-4.374,1.701-9.195,3.034c-4.089,1.131-8.181,4.75-11.494,7.4c-2.981,2.385-4.699,4.323-6.007,7.91
									c-1.307,3.587-1.949,7.375-2.585,11.14c-0.296,1.753-0.557,3.694,0.404,5.19c0.798,1.243,2.252,1.869,3.62,2.426
									c5.572,2.268,11.252,4.562,17.248,5.05c8.888,0.722,17.598-2.587,25.619-6.486c1.449-0.704,2.925-1.458,3.995-2.663
									c1.07-1.205,1.656-2.976,1.041-4.465c1.79-0.46,3.609-0.932,5.187-1.894c1.578-0.961,2.907-2.502,3.158-4.333
									C284.2,303.606,283.101,301.554,281.301,301.136z"/>
							</g>
							<g>
								<path style="fill:#F7C2A0;" d="M232.776,293.702c3.92-3.05,7.881-6.126,12.379-8.233c4.497-2.107,9.641-3.192,14.476-2.054
									c2.161,0.509,4.551,1.925,4.56,4.146c0.008,2.004-1.96,3.439-3.852,4.096c-1.893,0.657-4.005,0.946-5.522,2.255
									c-1.773,1.529-2.121,4.669-0.316,6.16c2.003,1.655,4.985,0.535,7.34-0.563c5.209-2.427,10.605-4.454,16.124-6.056
									c1.292-0.375,2.629-0.73,3.967-0.591s3,0.206,4.005,2.217c0.956,1.911-0.937,3.85-2.281,4.867l-2.687,1.372
									c-7.559,4.426-12.289,6.257-20.516,9.264"/>
								<g>
									<path style="fill:#F07666;" d="M233.218,294.144c6.94-5.399,14.927-11.445,24.263-10.466
										c1.918,0.201,4.41,0.712,5.589,2.419c1.398,2.024-0.51,3.91-2.307,4.716c-3.02,1.355-7.117,1.46-7.96,5.393
										c-0.702,3.275,1.84,5.662,5.051,5.267c1.749-0.215,3.354-0.994,4.936-1.72c2.14-0.981,4.31-1.892,6.508-2.734
										c2.176-0.833,4.378-1.598,6.601-2.294c2.128-0.666,4.287-1.465,6.547-1.188c2.003,0.246,3.954,1.854,2.669,3.991
										c-0.71,1.181-1.729,1.852-2.908,2.453c-3.216,1.642-6.299,3.515-9.572,5.053c-4.017,1.887-8.184,3.418-12.349,4.941
										c-0.749,0.274-0.426,1.483,0.332,1.205c3.923-1.435,7.847-2.879,11.652-4.608c3.351-1.522,6.474-3.423,9.743-5.092
										c2.167-1.107,5.345-2.96,4.75-5.898c-0.78-3.851-5.667-3.653-8.534-2.861c-4.757,1.314-9.418,3.039-13.943,5.001
										c-2.097,0.909-4.219,2.193-6.515,2.499c-2.501,0.333-4.408-1.456-3.687-3.998c0.676-2.386,3.164-2.99,5.264-3.607
										c1.746-0.513,3.514-1.213,4.644-2.718c2.293-3.052-0.635-5.996-3.543-6.911c-4.753-1.495-10.143-0.415-14.607,1.491
										c-4.974,2.122-9.271,5.481-13.508,8.778C231.7,293.753,232.59,294.632,233.218,294.144L233.218,294.144z"/>
								</g>
							</g>
							<g>
								<g>
									<path style="fill:#F07666;" d="M282.068,301.397c0.389,0.478,0.871,1.328,1.104,2.013c0.473,1.386,0.098,2.666-0.713,3.848
										c-1.008,1.471-2.567,2.017-4.096,2.845c-5.172,2.8-10.556,5.492-16.221,7.135c-0.771,0.224-0.443,1.43,0.332,1.205
										c3.2-0.928,6.288-2.229,9.307-3.629c3.006-1.394,6.024-2.865,8.88-4.55c1.612-0.951,2.824-1.881,3.583-3.71
										c0.88-2.121,0.103-4.328-1.292-6.041C282.444,299.889,281.565,300.778,282.068,301.397L282.068,301.397z"/>
								</g>
							</g>
						</g>
						<g>
							<g>
								<path style="fill:#F07666;" d="M187.548,261.114c4.409-13.059,8.817-26.118,13.226-39.177
									c0.258-0.764-0.949-1.092-1.205-0.332c-4.409,13.059-8.817,26.118-13.226,39.177
									C186.084,261.546,187.291,261.873,187.548,261.114L187.548,261.114z"/>
							</g>
						</g>
						<g>
							<path style="fill:#FFFFFF;" d="M183.812,174.898l16.925,49.376l15.892-9.819l-27.969-43.296
								C188.66,171.159,185.133,170.236,183.812,174.898z"/>
						</g>
					</g>
				</g>
			</g>
		</g>
		<path style="fill:#588B7E;" d="M118.861,235.705c10.359,3.918,22.997-0.06,29.823-9.385
			C138.807,221.378,126.06,225.73,118.861,235.705"/>
		<g>
			<path style="fill:#FFFFFF;" d="M101.492,87.857l3.736,1.931c0.689,0.356,0.712,1.333,0.04,1.721l-3.641,2.104
				c-0.162,0.094-0.295,0.232-0.381,0.399l-1.931,3.736c-0.356,0.689-1.333,0.712-1.721,0.04l-2.104-3.642
				c-0.094-0.162-0.232-0.295-0.399-0.381l-3.736-1.931c-0.689-0.356-0.712-1.333-0.04-1.721l3.642-2.104
				c0.162-0.094,0.295-0.232,0.381-0.399l1.931-3.736c0.356-0.689,1.333-0.712,1.721-0.04l2.104,3.642
				C101.187,87.639,101.325,87.771,101.492,87.857z"/>
			<path style="fill:#FFFFFF;" d="M44.955,356.385l1.522,0.787c0.281,0.145,0.29,0.543,0.016,0.701l-1.484,0.857
				c-0.066,0.038-0.12,0.095-0.155,0.163l-0.787,1.522c-0.145,0.281-0.543,0.29-0.701,0.016l-0.857-1.484
				c-0.038-0.066-0.095-0.12-0.163-0.155l-1.522-0.787c-0.281-0.145-0.29-0.543-0.016-0.701l1.484-0.857
				c0.066-0.038,0.12-0.095,0.155-0.163l0.787-1.522c0.145-0.281,0.543-0.29,0.701-0.016l0.857,1.484
				C44.831,356.296,44.887,356.349,44.955,356.385z"/>
			<path style="fill:#FFFFFF;" d="M404.886,204.58l1.522,0.787c0.281,0.145,0.29,0.543,0.016,0.701l-1.484,0.857
				c-0.066,0.038-0.12,0.095-0.155,0.163l-0.787,1.522c-0.145,0.281-0.543,0.29-0.701,0.016l-0.857-1.484
				c-0.038-0.066-0.095-0.12-0.163-0.155l-1.522-0.787c-0.281-0.145-0.29-0.543-0.016-0.701l1.484-0.857
				c0.066-0.038,0.12-0.095,0.155-0.163l0.787-1.522c0.145-0.281,0.543-0.29,0.701-0.016l0.857,1.484
				C404.762,204.491,404.818,204.545,404.886,204.58z"/>
			<path style="fill:#FFFFFF;" d="M70.239,368.528l3.736,1.931c0.689,0.356,0.712,1.333,0.04,1.721l-3.642,2.104
				c-0.162,0.094-0.295,0.232-0.381,0.399l-1.931,3.736c-0.356,0.689-1.333,0.712-1.721,0.04l-2.104-3.642
				c-0.094-0.162-0.232-0.295-0.399-0.381l-3.736-1.931c-0.689-0.356-0.712-1.333-0.04-1.721l3.641-2.104
				c0.162-0.094,0.295-0.232,0.381-0.399l1.931-3.736c0.356-0.689,1.333-0.712,1.721-0.04l2.104,3.642
				C69.934,368.309,70.073,368.441,70.239,368.528z"/>
			<path style="fill:#FFFFFF;" d="M412.625,97.454l3.736,1.931c0.689,0.356,0.712,1.333,0.04,1.721l-3.642,2.104
				c-0.162,0.094-0.295,0.232-0.381,0.399l-1.931,3.736c-0.356,0.689-1.333,0.712-1.721,0.04l-2.104-3.641
				c-0.094-0.162-0.232-0.295-0.399-0.381l-3.736-1.931c-0.689-0.356-0.712-1.333-0.04-1.721l3.642-2.104
				c0.163-0.094,0.295-0.232,0.381-0.399l1.931-3.736c0.356-0.689,1.333-0.712,1.721-0.04l2.104,3.642
				C412.32,97.236,412.458,97.368,412.625,97.454z"/>
		</g>
		<g>
			<path style="fill:#D6D6BF;" d="M382.292,123.452c-9.903-16.009-6.322-36.553,7.614-48.368c-1.708,0.731-3.383,1.597-5.01,2.603
				c-17.637,10.91-23.09,34.051-12.18,51.689c10.91,17.637,34.052,23.09,51.689,12.18c1.628-1.007,3.15-2.12,4.566-3.32
				C412.176,145.43,392.195,139.462,382.292,123.452z"/>
			<path style="fill:#D6D6BF;" d="M160.254,77.901l3.736,1.931c0.689,0.356,0.712,1.333,0.04,1.721l-3.641,2.104
				c-0.163,0.094-0.295,0.232-0.381,0.399l-1.931,3.736c-0.356,0.689-1.333,0.712-1.721,0.04l-2.104-3.642
				c-0.094-0.162-0.232-0.295-0.399-0.381l-3.736-1.931c-0.689-0.356-0.712-1.333-0.04-1.721l3.641-2.104
				c0.163-0.094,0.295-0.232,0.381-0.399l1.931-3.736c0.356-0.689,1.333-0.712,1.721-0.04l2.104,3.642
				C159.949,77.683,160.088,77.815,160.254,77.901z"/>
			<path style="fill:#D6D6BF;" d="M404.187,178.691l3.736,1.931c0.689,0.356,0.712,1.333,0.04,1.721l-3.642,2.104
				c-0.162,0.094-0.295,0.232-0.381,0.399l-1.931,3.736c-0.356,0.689-1.333,0.712-1.721,0.04l-2.104-3.642
				c-0.094-0.162-0.232-0.295-0.399-0.381l-3.736-1.931c-0.689-0.356-0.712-1.333-0.04-1.721l3.642-2.104
				c0.162-0.094,0.295-0.232,0.381-0.399l1.931-3.736c0.356-0.689,1.333-0.712,1.721-0.04l2.104,3.641
				C403.882,178.472,404.021,178.605,404.187,178.691z"/>
			<path style="fill:#D6D6BF;" d="M448.768,291.012l3.736,1.931c0.689,0.356,0.712,1.333,0.04,1.721l-3.641,2.104
				c-0.162,0.094-0.295,0.232-0.381,0.399l-1.931,3.736c-0.356,0.689-1.333,0.712-1.721,0.04l-2.104-3.642
				c-0.094-0.162-0.232-0.295-0.399-0.381l-3.736-1.931c-0.689-0.356-0.712-1.333-0.04-1.721l3.642-2.104
				c0.162-0.094,0.295-0.232,0.381-0.399l1.931-3.736c0.356-0.689,1.333-0.712,1.721-0.04l2.104,3.642
				C448.463,290.794,448.601,290.926,448.768,291.012z"/>
			<path style="fill:#D6D6BF;" d="M54.978,315.998l3.736,1.931c0.689,0.356,0.712,1.333,0.04,1.721l-3.641,2.104
				c-0.163,0.094-0.295,0.232-0.381,0.399l-1.931,3.736c-0.356,0.689-1.333,0.712-1.721,0.04l-2.104-3.642
				c-0.094-0.162-0.232-0.295-0.399-0.381l-3.736-1.931c-0.689-0.356-0.712-1.333-0.04-1.721l3.641-2.104
				c0.162-0.094,0.295-0.232,0.381-0.399l1.931-3.736c0.356-0.689,1.333-0.712,1.721-0.04l2.104,3.641
				C54.672,315.78,54.811,315.912,54.978,315.998z"/>
			<path style="fill:#D6D6BF;" d="M85.433,229.214l3.736,1.931c0.689,0.356,0.712,1.333,0.04,1.721l-3.641,2.104
				c-0.162,0.094-0.295,0.232-0.381,0.399l-1.931,3.736c-0.356,0.689-1.333,0.712-1.721,0.04l-2.104-3.641
				c-0.094-0.162-0.232-0.295-0.399-0.381l-3.736-1.931c-0.689-0.356-0.712-1.333-0.04-1.721l3.641-2.104
				c0.162-0.094,0.295-0.232,0.381-0.399l1.931-3.736c0.356-0.689,1.333-0.712,1.721-0.04l2.104,3.641
				C85.127,228.996,85.266,229.128,85.433,229.214z"/>
			<path style="fill:#D6D6BF;" d="M143.72,70.88l1.299,0.672c0.24,0.124,0.247,0.464,0.014,0.599l-1.266,0.732
				c-0.057,0.033-0.102,0.081-0.132,0.139l-0.672,1.299c-0.124,0.24-0.464,0.248-0.598,0.014l-0.732-1.266
				c-0.033-0.057-0.081-0.102-0.139-0.132l-1.299-0.672c-0.24-0.124-0.247-0.464-0.014-0.598l1.266-0.732
				c0.056-0.033,0.102-0.081,0.132-0.139l0.672-1.299c0.124-0.24,0.464-0.248,0.598-0.014l0.732,1.266
				C143.614,70.804,143.662,70.85,143.72,70.88z"/>
			<path style="fill:#D6D6BF;" d="M411.777,170.413l1.299,0.672c0.24,0.124,0.248,0.464,0.014,0.599l-1.266,0.732
				c-0.057,0.033-0.102,0.081-0.132,0.139l-0.672,1.299c-0.124,0.239-0.464,0.247-0.599,0.014l-0.732-1.266
				c-0.033-0.057-0.081-0.102-0.139-0.132l-1.299-0.672c-0.24-0.124-0.247-0.464-0.014-0.599l1.267-0.732
				c0.056-0.033,0.102-0.081,0.132-0.139l0.672-1.299c0.124-0.24,0.464-0.248,0.599-0.014l0.732,1.266
				C411.671,170.337,411.719,170.383,411.777,170.413z"/>
			<g>
				<path style="fill:#D6D6BF;" d="M96.803,173.264c1.428-10.47-7.359-21.192-17.905-21.848
					c-10.546-0.656-20.595,8.893-20.476,19.459c-2.753-2.147-8.277-2.608-11.448-1.148c-3.171,1.461-7.082,6.941-4.003,13.313
					l71.85,0C116.237,174.544,103.149,168.673,96.803,173.264z"/>
			</g>
			<g>
				<path style="fill:#D6D6BF;" d="M116.775,136.314c0.847-6.208-4.363-12.565-10.616-12.954
					c-6.253-0.389-12.211,5.273-12.141,11.537c-1.632-1.273-4.908-1.546-6.788-0.68c-1.88,0.866-4.199,4.115-2.374,7.894l42.601,0
					C128.298,137.073,120.537,133.592,116.775,136.314z"/>
			</g>
			<g>
				<path style="fill:#D6D6BF;" d="M447.061,365.685c0.847-6.208-4.363-12.565-10.616-12.954
					c-6.253-0.389-12.211,5.273-12.141,11.537c-1.632-1.273-4.907-1.546-6.788-0.68c-1.88,0.866-4.199,4.115-2.374,7.893h42.601
					C458.583,366.444,450.823,362.963,447.061,365.685z"/>
			</g>
			<g>
				<path style="fill:#D6D6BF;" d="M424.179,225.359c0.847-6.208-4.363-12.565-10.616-12.954
					c-6.253-0.389-12.211,5.273-12.141,11.537c-1.632-1.273-4.908-1.546-6.788-0.68c-1.88,0.866-4.199,4.115-2.374,7.894l42.601,0
					C435.702,226.117,427.942,222.637,424.179,225.359z"/>
			</g>
			<g>
				<path style="fill:#D6D6BF;" d="M308.132,44.639c0.847-6.208-4.363-12.565-10.616-12.954
					c-6.253-0.389-12.211,5.273-12.141,11.537c-1.632-1.273-4.908-1.546-6.788-0.68c-1.88,0.866-4.199,4.115-2.374,7.894h42.601
					C319.654,45.398,311.894,41.917,308.132,44.639z"/>
			</g>
		</g>
		<g>
			<path style="fill:#E4E5D1;" d="M143.624,91.446c0.847-6.208-4.363-12.565-10.616-12.954c-6.253-0.389-12.211,5.273-12.141,11.537
				c-1.632-1.273-4.908-1.546-6.788-0.68c-1.88,0.866-4.199,4.115-2.374,7.894l42.601,0
				C155.147,92.204,147.387,88.723,143.624,91.446z"/>
		</g>
	</g>
</g>
</svg>
