<?xml version="1.0" encoding="utf-8"?>
<!-- Generator: Adobe Illustrator 27.5.0, SVG Export Plug-In . SVG Version: 6.00 Build 0)  -->
<svg version="1.1" xmlns="http://www.w3.org/2000/svg" xmlns:xlink="http://www.w3.org/1999/xlink" x="0px" y="0px"
	 viewBox="0 0 750 500" style="enable-background:new 0 0 750 500;" xml:space="preserve">
<g id="BACKGROUND">
	<g>
		<rect style="fill:#FFE0BD;" width="750" height="500"/>
	</g>
</g>
<g id="OBJECTS">
	<path style="fill:#FFEBD6;" d="M93.906,440.981h576.385c13.589-41.83,20.049-85.507,21.051-129.51
		c1.002-44.004-12.558-90.449-45.583-119.246c-22.284-19.43-51.11-29.157-76.414-44.372c-36.689-22.061-65.321-55.232-98.707-82.098
		s-75.777-48.14-117.654-39.62c-39.957,8.13-69.861,41.203-93.691,74.538c-23.831,33.335-45.796,69.952-80.34,91.765
		c-36.467,23.026-84.81,28.056-112.745,61.047c-21.695,25.622-25.327,62.957-17.552,95.718S76.479,412.238,93.906,440.981z"/>
	<ellipse style="fill:#F5E4D2;" cx="377.629" cy="451.188" rx="318.314" ry="20.481"/>
	<g>
		<g>
			<path style="fill:#FFB31A;" d="M439.605,335.618c1.982-3.707,4.408-7.319,7.885-9.682c3.477-2.363,8.196-3.258,11.941-1.35
				c2.822,1.438,4.751,4.276,5.65,7.313c0.9,3.036,0.872,6.272,0.568,9.424c-1.356,14.023-8.28,27.432-18.928,36.657
				c-1.815,1.573-3.771,3.049-6.026,3.874c-2.366,0.865-6.478,1.426-7.501-1.408c-1.198-3.317-1.215-7.626-1.336-11.116
				c-0.257-7.423,0.724-14.888,2.892-21.992C435.986,343.287,437.608,339.354,439.605,335.618z"/>
			<path style="fill:#FFB31A;" d="M409.601,340.993c-2.073-4.863-4.531-9.59-7.171-14.317c-1.942-3.476-3.904-6.981-6.536-9.968
				c-2.631-2.988-6.02-5.458-9.913-6.291c-3.893-0.834-8.309,0.199-10.931,3.195c-2.223,2.54-2.911,6.08-3.02,9.454
				c-0.225,6.989,1.688,13.948,4.858,20.182c3.169,6.234,7.562,11.78,12.423,16.808c3.423,3.54,7.191,6.908,11.748,8.774
				c3.425,1.403,11.929,2.947,14.355-1.138c1.8-3.034-0.443-9.322-1.157-12.518C413.17,350.309,411.554,345.576,409.601,340.993z"/>
			<path style="fill:#D15009;" d="M425.886,395.059c-5.64-16.859-13.221-33.061-22.612-48.159
				c-2.674-4.299-5.496-8.503-8.449-12.614c-0.886-1.233-2.952-0.046-2.056,1.202c13.214,18.4,23.634,38.72,30.821,60.204
				C424.074,397.137,426.374,396.517,425.886,395.059z"/>
			<path style="fill:#FFC82E;" d="M425.023,307.012c1.504-2.279,3.368-4.613,6.023-5.25c2.872-0.689,5.922,0.905,7.724,3.244
				c1.803,2.339,2.585,5.295,3.143,8.196c2.883,14.98,0.795,30.805-5.448,44.724c-1.096,2.444-2.341,4.868-4.177,6.818
				c-1.835,1.95-4.344,3.397-7.021,3.447c-9.314,0.177-10.151-12.788-10.704-19.327c-0.788-9.316,0.4-18.799,3.465-27.632
				C419.765,316.229,422.106,311.433,425.023,307.012z"/>
			<path style="fill:#FF931D;" d="M384.343,360.463c-2.006-3.431-3.446-7.317-3.308-11.289c0.137-3.972,2.064-8.018,5.509-9.999
				c3.626-2.085,8.344-1.555,11.973,0.524c3.629,2.078,6.313,5.489,8.444,9.088c3.768,6.365,6.082,13.584,6.718,20.953
				c0.176,2.043,0.391,6.795-1.913,7.918c-1.64,0.799-5.442-0.751-7.08-1.251c-5.453-1.665-10.494-4.659-14.585-8.628
				C387.867,365.611,385.915,363.151,384.343,360.463z"/>
			<path style="fill:#D15009;" d="M417.585,392.711c-3.023-13.154-9.365-25.379-18.327-35.465c-1.02-1.148-2.698,0.541-1.683,1.683
				c8.695,9.785,14.784,21.661,17.715,34.415C415.632,394.836,417.928,394.204,417.585,392.711z"/>
			<path style="fill:#D15009;" d="M448.987,342.437c-7.749,17.657-13.024,36.31-15.595,55.423c-0.202,1.498,2.092,2.147,2.296,0.633
				c2.541-18.89,7.695-37.398,15.355-54.854C451.652,342.249,449.602,341.036,448.987,342.437z"/>
			<path style="fill:#D15009;" d="M430.557,323.449c-8.98,22.94-9.112,47.912-9.137,72.188c-0.002,1.532,2.379,1.534,2.381,0
				c0.025-24.084,0.142-48.795,9.052-71.555C433.411,322.655,431.11,322.036,430.557,323.449z"/>
		</g>
		<path style="fill:#AD2727;" d="M407.963,389.846c-3.167,6.374-5.082,14.623-5.082,23.642c0,20.183,9.57,36.545,21.375,36.545
			c11.805,0,21.375-16.362,21.375-36.545c0-9.019-1.915-17.268-5.082-23.642H407.963z"/>
		<path style="fill:#D9A4A4;" d="M440.549,389.846h-13.814c3.167,6.374,5.082,14.624,5.082,23.642
			c0,16.049-6.054,29.672-14.468,34.583c2.167,1.265,4.489,1.961,6.907,1.961c11.805,0,21.375-16.362,21.375-36.545
			C445.631,404.47,443.716,396.22,440.549,389.846z"/>
	</g>
	<g>
		<rect x="468.91" y="83.575" style="fill:#D8B288;" width="86.441" height="131.84"/>
		<rect x="473.125" y="87.494" style="fill:#FFE6CA;" width="78.011" height="124.002"/>
		<rect x="485.86" y="102.107" style="fill:#FFF4E9;" width="52.542" height="94.776"/>
		
			<ellipse transform="matrix(0.2671 -0.9637 0.9637 0.2671 249.9728 588.8898)" style="fill:#D83E3A;" cx="512.131" cy="130.109" rx="19.386" ry="19.386"/>
		
			<ellipse transform="matrix(0.5843 -0.8115 0.8115 0.5843 80.6516 483.335)" style="fill:#AD2727;" cx="512.131" cy="162.94" rx="19.386" ry="19.386"/>
	</g>
	<g>
		<g>
			<rect x="572.232" y="51.842" style="fill:#D8B288;" width="107.246" height="163.573"/>
			<rect x="577.461" y="56.704" style="fill:#FFE6CA;" width="96.788" height="153.848"/>
			<rect x="593.261" y="74.834" style="fill:#FFF4E9;" width="65.188" height="117.588"/>
		</g>
		<path style="fill:#FFC82E;" d="M636.899,142.635c-0.692,0.148-1.385,0.286-2.077,0.433c4.236-7.088,8.781-13.99,13.643-20.703
			c4.982-6.878-1.535-16.099-9.044-16.549c1.581-1.684,3.161-3.368,4.742-5.053c6.617-7.051,1.848-18.508-7.796-18.82
			c-7.7-0.249-15.401-0.498-23.101-0.748c-13.665-0.442-14.152,19.973-1.517,21.902c-1.774,1.89-3.547,3.78-5.321,5.67
			c-6.501,6.927-1.938,18.727,7.796,18.821c1.399,0.013,2.798,0.027,4.198,0.04c-5.098,8.191-9.779,16.633-14.023,25.338
			c-3.638,7.462,0.765,15.057,7.965,16.253c-5.932,12.711,12.993,23.831,19.076,11.04c3.299-6.937,7.655-12.953,13.956-17.472
			C655.427,155.589,649.57,139.934,636.899,142.635z"/>
	</g>
	<g>
		<g>
			<path style="fill:#29477C;" d="M525.338,289.271h41.059c4.923,0,8.613,4.506,7.642,9.332l-14.342,71.29h-56.961l14.96-74.364
				C518.428,291.888,521.626,289.271,525.338,289.271z"/>
			<path style="fill:#385D93;" d="M516.692,289.271h41.059c4.923,0,8.613,4.506,7.642,9.332l-14.342,71.29h-56.961l14.96-74.364
				C509.782,291.888,512.979,289.271,516.692,289.271z"/>
			<path style="fill:#29477C;" d="M527.048,440.981h-60.49c-4.503,0-8.64-2.063-11.35-5.659c-2.71-3.596-3.552-8.141-2.311-12.469
				l12.237-42.666c1.738-6.062,7.356-10.294,13.661-10.294h48.252v4.081h-48.252c-4.495,0-8.499,3.017-9.738,7.337l-12.237,42.666
				c-0.885,3.086-0.284,6.326,1.647,8.889c1.931,2.564,4.881,4.035,8.091,4.035h60.49V440.981z"/>
			<path style="fill:#29477C;" d="M559.697,359.249h-89.29c-2.959,0-5.358,2.399-5.358,5.358l0,0c0,2.959,2.399,5.358,5.358,5.358
				h89.29V359.249z"/>
			<path style="fill:#385D93;" d="M559.697,440.981h-60.489c-4.504,0-8.64-2.063-11.35-5.659c-2.71-3.596-3.552-8.141-2.311-12.469
				l12.237-42.666c1.738-6.062,7.356-10.294,13.661-10.294h48.252v4.081h-48.252c-4.495,0-8.499,3.017-9.738,7.337l-12.237,42.666
				c-0.885,3.086-0.284,6.326,1.647,8.889c1.932,2.564,4.881,4.035,8.091,4.035h60.489V440.981z"/>
		</g>
		<g>
			<path style="fill:#1A0F24;" d="M507.188,210.836c-0.44,0.848-1.057,1.67-1.409,2.465c-0.678,1.533-1.106,3.201-0.933,4.886
				c0.187,1.826,1.058,3.554,1.063,5.389c0.006,2.234-1.268,4.263-2.683,5.991c-1.415,1.728-3.042,3.336-3.978,5.364
				c-1.62,3.507-0.733,8.009,2.095,10.641c2.784,2.59,6.939,3.222,10.7,2.66c3.761-0.562,7.273-2.16,10.815-3.544
				c3.542-1.385,7.282-2.586,11.074-2.296c3.234,0.247,6.281,1.564,9.45,2.257c3.169,0.693,6.804,0.646,9.266-1.465
				c2.299-1.97,3.001-5.365,2.347-8.321c-0.654-2.956-2.463-5.531-4.506-7.765c-1.682-1.839-3.543-3.501-5.247-5.318
				c-1.431-1.526-2.2-3.971-2.506-6.027c-0.51-3.432,0.558-6.882,0.795-10.344c0.491-7.188-5.063-12.558-11.203-15.236
				c-3.174-1.384-6.679-2.192-10.153-1.953c-1.161,0.08-2.309,0.315-3.399,0.725c-1.017,0.382-1.917,1.15-3.012,1.3
				c-0.622,0.085-1.247-0.073-1.871-0.142c-2.589-0.288-5.226,1.033-6.783,3.122c-1.557,2.089-2.084,4.844-1.705,7.422
				c0.25,1.701,0.864,3.313,1.37,4.948c0.341,1.102,1.027,2.564,0.912,3.744C507.637,209.846,507.442,210.346,507.188,210.836z"/>
			<g>
				<path style="fill:#EBAC97;" d="M498.809,314.843c0,0-50.678,14.889-55.772,30.287c-4.648,14.049,0.428,83.832,0.428,83.832
					s5.713,1.054,11.441,0c0,0,8.854-69.708,10.938-71.444c2.084-1.737,52.915-12.156,59.395-18.176
					c6.48-6.02,4.28-24.238,4.28-24.238L498.809,314.843z"/>
				<g>
					<path style="fill:#FEBAA3;" d="M449.128,441.195c0,0,20.667,0.72,27.632-2.216l1.238,2.216c0,0,8.563,0.115,8.578,0
						c0.029-0.101,0.59-4.13-0.302-8.506c-0.259-1.238-0.619-2.518-1.166-3.728h-11.441c0,0-4.893,2.001-10.002,3.785
						c-3.339,1.18-6.779,2.274-8.995,2.663C449.056,436.388,449.128,441.195,449.128,441.195z"/>
					<path style="fill:#0D1B35;" d="M449.128,441.195c0,0,20.667,0.72,27.632-2.216l1.238,2.216c0,0,8.563,0.115,8.578,0
						c0.029-0.101,0.59-4.13-0.302-8.506c-5.066,1.008-14.277,2.216-22.609,0.058c-3.339,1.18-6.779,2.274-8.995,2.663
						C449.056,436.388,449.128,441.195,449.128,441.195z"/>
				</g>
				<g>
					<path style="fill:#EBAC97;" d="M418.927,441.195c0,0,20.667,0.72,27.632-2.216l1.238,2.216c0,0,8.563,0.115,8.578,0
						c0.029-0.101,0.59-4.13-0.302-8.506c-0.259-1.238-0.619-2.518-1.166-3.728h-11.441c0,0-4.893,2.001-10.002,3.785
						c-3.339,1.18-6.779,2.274-8.995,2.663C418.855,436.388,418.927,441.195,418.927,441.195z"/>
					<path style="fill:#0D1B35;" d="M418.927,441.195c0,0,20.667,0.72,27.632-2.216l1.238,2.216c0,0,8.563,0.115,8.578,0
						c0.029-0.101,0.59-4.13-0.302-8.506c-5.066,1.008-14.277,2.216-22.609,0.058c-3.339,1.18-6.779,2.274-8.995,2.663
						C418.855,436.388,418.927,441.195,418.927,441.195z"/>
				</g>
				<path style="fill:#FEBAA3;" d="M551.93,314.843c0,0,6.793,17.687-3.704,32.704c-14.464,20.691-70.381,7.947-73.196,9.855
					c-2.815,1.908,10.077,71.561,10.077,71.561s-4.995,1.632-11.441,0c0,0-29.628-81.216-23.145-90.102
					c8.382-11.488,61.787-23.557,61.787-23.557L551.93,314.843z"/>
			</g>
			<g>
				<path style="fill:#FEBAA3;" d="M509.549,241.248c-4.689,1.422-8.278,38.354-9.898,41.48
					c-1.621,3.126-21.534,39.595-21.534,39.595l10.304,2.967c0,0,24.497-35.05,26.084-40.311
					C516.09,279.717,509.549,241.248,509.549,241.248z"/>
				<path style="fill:#FFC82E;" d="M509.549,241.248c-7.667,1.662-12.038,22.53-11.748,23.109
					c0.289,0.579,11.517,6.118,17.479,4.868C521.242,267.974,509.549,241.248,509.549,241.248z"/>
				<path style="fill:#AD2727;" d="M477.306,360.315c0,0-1.274-24.679-21.187-28.731c0,0,15.514-12.388,43.026-17.413h52.677
					c0,0,12.967,28.069-10.188,40.572C518.48,367.247,477.306,360.315,477.306,360.315z"/>
				<path style="fill:#FFC82E;" d="M497.422,314.171c17.944,5.616,55.636,2.918,55.636,2.918
					c-0.516-9.029-6.537-39.699-6.537-39.699l-0.093-6.7l-0.095-6.809l-0.307-21.511l-12.051-4.376l-12.054-0.368l-12.37,3.621
					c-4.317,7.393-4.594,16.023-3.668,23.126c0.313,2.455,0.783,4.721,1.271,6.688c1.119,4.524,2.377,7.477,2.377,7.477
					L497.422,314.171z"/>
				<g>
					
						<rect x="481.52" y="319.718" transform="matrix(-1 -0.0072 0.0072 -1 1019.0653 645.438)" style="fill:#1A3263;" width="58.333" height="2.358"/>
					<polygon style="fill:#29477C;" points="448.932,321.635 514.827,322.106 509.521,279.198 443.627,278.726 					"/>
					
						<ellipse transform="matrix(0.7152 -0.6989 0.6989 0.7152 -73.852 420.6075)" style="fill:#FFFFFF;" cx="479.223" cy="300.931" rx="5.569" ry="5.57"/>
				</g>
				<g>
					<g>
						<path style="fill:#FEBAA3;" d="M514.504,306.21l2.666,8.299c0,0-14.008,7.078-14.727,5.882
							c-0.719-1.196,3.866-3.452,3.866-3.452s-10.119,4.545-10.865,2.972c-0.745-1.574,9.798-5.503,9.798-5.503
							s-12.786,4.816-13.473,3.126c-0.687-1.689,12.205-6.172,12.205-6.172s-10.381,2.469-10.847,0.706
							C492.488,309.647,514.504,306.21,514.504,306.21z"/>
						<path style="fill:#FEBAA3;" d="M514.504,306.21c0,0-9.675-4.629-11.282-3.274c-1.606,1.355,5.276,5.818,5.276,5.818
							L514.504,306.21z"/>
					</g>
					<path style="fill:#FEBAA3;" d="M546.024,242.37c8.213,2.673,15.797,42.904,11.397,49.272
						c-4.399,6.368-40.251,22.867-40.251,22.867l-2.666-8.299c0,0,29.256-19.893,29.488-21.167c0.232-1.273-1.55-33.343-1.55-33.343
						L546.024,242.37z"/>
					<path style="fill:#FFC82E;" d="M546.024,242.37c6.151,2.124,12.738,17.558,12.69,19.555
						c-0.048,1.997-14.636,9.768-18.326,6.512c-3.69-3.256,0.391-17.626,0.391-17.626L546.024,242.37z"/>
				</g>
				<g>
					<path style="fill:#FFC82E;" d="M543.203,267.523c-0.457-1.538-1.065-3.015-1.749-4.455c0.018-0.239-0.072-0.484-0.286-0.609
						c-1.04-2.077-2.285-4.049-3.762-5.859c-0.554-0.679-1.511,0.289-0.962,0.962c1.062,1.302,1.982,2.707,2.805,4.166
						c-0.833-0.24-1.687-0.401-2.563-0.459c-0.356-0.024-0.696,0.33-0.68,0.68c0.017,0.389,0.299,0.655,0.68,0.68
						c0.66,0.044,1.232,0.134,1.923,0.314c0.562,0.146,1.069,0.347,1.559,0.562c0.677,1.416,1.275,2.872,1.723,4.38
						C542.141,268.722,543.454,268.365,543.203,267.523z"/>
					<path style="fill:#FFC82E;" d="M506.615,253.281c0.056-0.874-1.304-0.871-1.36,0c-0.346,5.37,0.212,10.766,1.64,15.955
						c0.232,0.843,1.545,0.485,1.312-0.362C506.809,263.794,506.276,258.538,506.615,253.281z"/>
				</g>
			</g>
			<g>
				<g>
					<path style="fill:#FEBAA3;" d="M508.57,217.465c0.65,4.679,2.413,7.529,4.812,9.557c1.471,1.246,2.797,2.094,3.937,2.877
						c2.876,1.988,4.6,3.579,4.6,10.18c1.949,4.904,9.451,5.567,11.863,0c-0.106-8.722,2.002-15.933,3.208-19.339
						c0.371-1.047,0.663-1.736,0.782-2.002c0.04-0.093,0.053-0.132,0.053-0.132s-0.027-1.405-0.133-3.473
						c-0.013-0.252-0.026-0.517-0.04-0.782c-0.265-4.838-0.888-12.433-2.346-15.111c-5.355-9.809-24.191-6.469-25.662,1.339
						C508.252,208.014,507.987,213.422,508.57,217.465z"/>
					<path style="fill:#1A0F24;" d="M507.865,207.452c2.297-0.253,4.421-1.433,6.124-2.996c1.702-1.563,3.021-3.496,4.206-5.48
						c0.681,2.53,2.125,4.715,4.38,6.048c2.255,1.333,5.037,1.745,7.582,1.123c0.543,2.117,1.768,4.178,3.479,5.538
						c1.71,1.36,3.871,2.143,6.056,2.195c1.766-6.304-0.355-13.636-5.228-18.008c-4.873-4.372-12.282-5.682-18.359-3.246
						c-1.853,0.743-3.605,1.826-4.891,3.353C508.712,198.949,507.857,203.57,507.865,207.452z"/>
					<g>
						<path style="fill:#1A0F24;" d="M515.262,209.649c-1.517-1.056-3.488-0.995-4.918,0.241c-0.268,0.232-0.314,0.697-0.111,0.999
							c0.208,0.308,0.602,0.359,0.871,0.127c0.587-0.507,1.334-0.737,2.065-0.683c0.369,0.027,0.734,0.126,1.073,0.295
							c0.3,0.15,0.592,0.409,0.93,0.215c0.081-0.046,0.15-0.114,0.204-0.196C515.563,210.368,515.55,209.849,515.262,209.649z"/>
						<path style="fill:#1A0F24;" d="M519.971,209.649c1.74-1.056,3.999-0.995,5.639,0.241c0.307,0.232,0.361,0.697,0.127,0.999
							c-0.238,0.308-0.691,0.359-0.998,0.127c-0.673-0.507-1.53-0.727-2.366-0.671c-0.423,0.028-0.841,0.126-1.231,0.29
							c-0.345,0.145-0.683,0.401-1.067,0.209c-0.092-0.046-0.171-0.115-0.234-0.196
							C519.626,210.368,519.641,209.849,519.971,209.649z"/>
						<path style="fill:#C16B5B;" d="M517.446,221.245c-0.659,0-1.345-0.144-2.006-0.493c-0.309-0.162-0.428-0.544-0.265-0.852
							c0.162-0.308,0.543-0.427,0.852-0.265c1.598,0.838,3.38-0.023,3.889-0.722c0.205-0.28,0.6-0.343,0.882-0.137
							c0.282,0.206,0.343,0.6,0.137,0.882C520.336,220.479,518.963,221.245,517.446,221.245z"/>
						<path style="fill:#C16B5B;" d="M515.955,217.653c-0.068,0-0.131-0.045-0.151-0.114c-0.299-1.03,0.051-1.38,0.397-1.492
							c0.351-0.112,0.772-0.022,1.251,0.274c0.074,0.046,0.097,0.143,0.051,0.218c-0.047,0.073-0.145,0.096-0.218,0.051
							c-0.395-0.244-0.728-0.326-0.987-0.242c-0.311,0.1-0.375,0.472-0.192,1.104c0.024,0.083-0.024,0.171-0.108,0.195
							C515.984,217.652,515.969,217.653,515.955,217.653z"/>
						<g>
							<circle cx="522.516" cy="214.209" r="1.337"/>
							<circle style="fill:#FFFFFF;" cx="522.161" cy="213.662" r="0.429"/>
						</g>
						<g>
							<path d="M511.467,214.209c0,0.738,0.598,1.337,1.337,1.337c0.738,0,1.337-0.599,1.337-1.337c0-0.738-0.598-1.337-1.337-1.337
								C512.065,212.872,511.467,213.471,511.467,214.209z"/>
							<path style="fill:#FFFFFF;" d="M512.057,213.72c0,0.237,0.192,0.429,0.43,0.429c0.237,0,0.429-0.192,0.429-0.429
								s-0.192-0.43-0.429-0.43C512.249,213.29,512.057,213.482,512.057,213.72z"/>
						</g>
					</g>
					<g>
						<path style="fill:#FEBAA3;" d="M541.955,218.952c-1.615,1.926-4.163,2.448-5.692,1.166c-1.529-1.282-1.458-3.882,0.156-5.808
							c1.615-1.926,4.163-2.448,5.692-1.166C543.64,214.426,543.57,217.027,541.955,218.952z"/>
						<path style="fill:#C16B5B;" d="M541.057,214.087c-0.686-0.363-1.602-0.346-2.448,0.047c-0.422,0.195-0.727,0.434-0.936,0.728
							c-0.276,0.389-0.353,0.879-0.2,1.276c0.136,0.357,0.421,0.589,0.672,0.793c0.182,0.148,0.354,0.288,0.451,0.455
							c0.149,0.256,0.112,0.616-0.088,0.836c-0.199,0.219-0.553,0.29-0.823,0.166c-0.159-0.073-0.346-0.004-0.419,0.154
							c-0.073,0.158-0.004,0.346,0.154,0.419c0.173,0.08,0.361,0.118,0.55,0.118c0.375,0,0.75-0.152,1.005-0.433
							c0.383-0.422,0.453-1.085,0.166-1.578c-0.155-0.266-0.39-0.457-0.598-0.626c-0.208-0.169-0.405-0.33-0.481-0.53
							c-0.077-0.2-0.028-0.469,0.126-0.685c0.062-0.087,0.146-0.166,0.239-0.242c0.314-0.003,0.706,0.094,0.904,0.31
							c0.223,0.245,0.329,0.599,0.275,0.924c-0.028,0.172,0.088,0.334,0.26,0.362c0.017,0.003,0.034,0.004,0.052,0.004
							c0.152,0,0.285-0.11,0.311-0.264c0.086-0.52-0.075-1.063-0.432-1.453c-0.133-0.145-0.299-0.243-0.472-0.323
							c0.522-0.141,1.037-0.113,1.437,0.098c0.494,0.261,0.867,0.934,0.613,1.483c-0.073,0.158-0.004,0.346,0.154,0.419
							c0.158,0.073,0.345,0.004,0.419-0.154C542.317,215.594,541.909,214.538,541.057,214.087z"/>
					</g>
				</g>
				<g>
					<path style="fill:#FFB31A;" d="M533.519,237.246l-5.708,6.353c0,0,2.634,3.517,6.541,1.78c3.907-1.737,0.55-5.528,0.55-5.528
						S535.899,238.114,533.519,237.246z"/>
					<path style="fill:#FFB31A;" d="M522.103,237.246l5.708,6.353c0,0-2.634,3.517-6.541,1.78c-3.907-1.737-0.55-5.528-0.55-5.528
						S519.723,238.114,522.103,237.246z"/>
				</g>
			</g>
		</g>
	</g>
	<g>
		<g>
			<path style="fill:#29477C;" d="M634.484,289.271h41.059c4.923,0,8.613,4.506,7.642,9.332l-14.342,71.29h-56.961l14.96-74.364
				C627.574,291.888,630.771,289.271,634.484,289.271z"/>
			<path style="fill:#385D93;" d="M625.837,289.271h41.059c4.922,0,8.613,4.506,7.642,9.332l-14.342,71.29h-56.961l14.96-74.364
				C618.928,291.888,622.125,289.271,625.837,289.271z"/>
			<path style="fill:#29477C;" d="M636.194,440.981h-60.489c-4.504,0-8.64-2.063-11.35-5.659c-2.71-3.596-3.552-8.141-2.311-12.469
				l12.237-42.666c1.738-6.062,7.356-10.294,13.661-10.294h48.252v4.081h-48.252c-4.495,0-8.5,3.017-9.738,7.337l-12.237,42.666
				c-0.885,3.086-0.284,6.326,1.647,8.889c1.932,2.564,4.881,4.035,8.091,4.035h60.489V440.981z"/>
			<path style="fill:#29477C;" d="M668.842,359.249h-89.29c-2.959,0-5.358,2.399-5.358,5.358l0,0c0,2.959,2.399,5.358,5.358,5.358
				h89.29V359.249z"/>
			<path style="fill:#385D93;" d="M668.842,440.981h-60.489c-4.503,0-8.64-2.063-11.35-5.659c-2.71-3.596-3.552-8.141-2.311-12.469
				l12.237-42.666c1.738-6.062,7.356-10.294,13.661-10.294h48.252v4.081H620.59c-4.495,0-8.5,3.017-9.738,7.337l-12.237,42.666
				c-0.885,3.086-0.284,6.326,1.647,8.889c1.932,2.564,4.881,4.035,8.091,4.035h60.489V440.981z"/>
		</g>
		<g>
			<path style="fill:#F7D4AA;" d="M621.538,238.754c-10.597,4.59-13.184,43.287-14.689,47.339
				c-0.951,2.561-27.294,40.615-27.294,40.615l9.725,5.746c0,0,31.462-34.726,33.083-39.473
				C623.983,288.235,621.538,238.754,621.538,238.754z"/>
			<g>
				<g>
					<path style="fill:#1A3263;" d="M536.893,441.195c0,0,20.667,0.72,27.632-2.216l1.238,2.216c0,0,8.563,0.115,8.578,0
						c0.029-0.101,0.59-4.13-0.302-8.506c-0.259-1.238-0.619-2.518-1.166-3.728h-11.442c0,0-4.893,2.001-10.002,3.785
						c-3.339,1.18-6.779,2.274-8.995,2.663C536.821,436.388,536.893,441.195,536.893,441.195z"/>
				</g>
				<path style="fill:#081121;" d="M607.629,314.843c0,0-50.679,14.889-55.773,30.287c-4.648,14.049,9.574,83.832,9.574,83.832
					s5.713,1.054,11.442,0c0,0-0.292-69.708,1.792-71.444c2.084-1.737,52.915-12.156,59.395-18.176
					c6.48-6.02,4.28-24.238,4.28-24.238L607.629,314.843z"/>
				<g>
					<path style="fill:#1A3263;" d="M557.947,441.195c0,0,20.667,0.72,27.632-2.216l1.238,2.216c0,0,8.563,0.115,8.578,0
						c0.029-0.101,0.59-4.13-0.302-8.506c-0.259-1.238-0.619-2.518-1.166-3.728h-11.441c0,0-4.893,2.001-10.002,3.785
						c-3.339,1.18-6.779,2.274-8.995,2.663C557.875,436.388,557.947,441.195,557.947,441.195z"/>
				</g>
				<path style="fill:#0D1B35;" d="M660.584,316.858c0,0,4.77,19.134-4.395,31.854c-11.061,15.351-64.722,8.248-67.994,11.13
					c-2.552,2.247,5.733,69.121,5.733,69.121s-4.995,1.632-11.441,0c0,0-29.629-81.216-23.145-90.102
					c8.382-11.488,61.787-23.557,61.787-23.557L660.584,316.858z"/>
			</g>
			<g>
				<path style="fill:#F7D4AA;" d="M607.322,314.934c17.674,6.413,53.477,1.897,53.477,1.897
					c-0.111-9.043-2.873-75.324-2.873-75.324l-11.844-4.91l-12.026-0.907l-12.519,3.064L607.322,314.934z"/>
				<polygon style="fill:#29477C;" points="639.441,241.908 635.789,243.295 637.929,245.428 631.016,289.271 635.869,296.551 
					641.957,289.271 640.028,245.456 642.693,243.451 				"/>
				<g>
					<path style="fill:#D15009;" d="M621.113,295.883h-3.168v-7.325c0-1.555-1.265-2.82-2.821-2.82h-18.201
						c-1.555,0-2.82,1.265-2.82,2.82v7.325h-3.168v-7.325c0-3.301,2.686-5.989,5.989-5.989h18.201c3.303,0,5.989,2.687,5.989,5.989
						V295.883z"/>
					<path style="fill:#D15009;" d="M637.311,327.83h-55.025c-0.516,0-0.935-0.419-0.935-0.935v-33.184
						c0-0.516,0.419-0.935,0.935-0.935h55.025c0.516,0,0.935,0.419,0.935,0.935v33.184
						C638.246,327.411,637.828,327.83,637.311,327.83z"/>
					<path style="fill:#FFB31A;" d="M633.132,327.83h-54.216c-0.74,0-1.34-0.6-1.34-1.34v-32.375c0-0.74,0.6-1.34,1.34-1.34h54.216
						c0.74,0,1.34,0.6,1.34,1.34v32.375C634.471,327.23,633.872,327.83,633.132,327.83z"/>
					<path style="fill:#FF931D;" d="M627.739,311.246h-43.43c-3.718,0-6.732-3.014-6.732-6.733v-10.399c0-0.74,0.6-1.34,1.34-1.34
						h54.216c0.74,0,1.34,0.6,1.34,1.34v10.399C634.471,308.232,631.457,311.246,627.739,311.246z"/>
					<rect x="600.844" y="308.039" style="fill:#D15009;" width="10.36" height="4.528"/>
				</g>
				<path style="fill:#FEBAA3;" d="M616.192,282.027c0,0-5.215-3.463-7.585-3.316c-2.371,0.147-9.187,5.203-8.97,6.843
					s2.344,7.151,4.428,6.63c2.084-0.521,10.675-2.391,10.675-2.391L616.192,282.027z"/>
				<path style="fill:#F7D4AA;" d="M657.926,241.507c7.041,3.313,15.984,48.805,7.388,55.498c-6.88,5.356-51.018-4.428-51.018-4.428
					c-1.852-4.11,1.466-11.577,1.466-11.577s38.437,3.278,39.218,2.774c0.781-0.504-0.347-28.012-0.347-28.012L657.926,241.507z"/>
				<g>
					<path style="fill:#FFD1A3;" d="M659.377,283.272c-1.153-0.075-2.306-0.149-3.458-0.223c0.427-2.972,0.401-5.965-0.117-8.928
						c-0.151-0.861-1.462-0.496-1.312,0.362c0.489,2.796,0.512,5.673,0.084,8.48c-12.007-0.776-24.014-1.551-36.022-2.326
						c-0.874-0.056-0.871,1.304,0,1.36c13.608,0.879,27.217,1.758,40.825,2.637C660.251,284.688,660.248,283.328,659.377,283.272z"
						/>
					<path style="fill:#FFD1A3;" d="M617.275,256.681c-1.174,7.11-2.347,14.22-3.521,21.33c-0.142,0.863,1.215,0.961,1.356,0.103
						c1.174-7.11,2.348-14.22,3.521-21.33C618.774,255.921,617.416,255.823,617.275,256.681z"/>
				</g>
			</g>
			<g>
				<path style="fill:#1A0F24;" d="M656.747,201.585c0.009-1.551-0.123-3.143-0.789-4.544c-0.666-1.401-1.954-2.585-3.495-2.764
					c-0.099-1.568-0.992-3.007-2.16-4.058c-1.169-1.051-2.6-1.76-4.04-2.389c-4.962-2.168-10.272-3.538-15.663-4.04
					c-1.877-0.175-3.792-0.242-5.624,0.2c-1.832,0.442-3.591,1.45-4.602,3.04c-1.011,1.59-1.131,3.804-0.007,5.318
					c-2.418,1.825-3.729,4.909-3.713,7.938c0.016,3.029,1.265,5.975,3.159,8.339c1.894,2.364,4.403,4.179,7.084,5.588
					c5.001,2.628,10.704,3.864,16.343,3.645c2.688-0.105,5.367-0.553,7.957-1.277c2.173-0.608,2.985-3.356,3.713-5.262
					C656.094,208.219,656.728,204.905,656.747,201.585z"/>
				<g>
					<path style="fill:#FEBAA3;" d="M620.844,215.396c0.65,4.682,2.414,7.533,4.814,9.562c1.472,1.247,2.798,2.096,3.939,2.878
						c2.878,1.989,4.602,3.581,4.602,10.185c1.95,4.907,9.456,5.57,11.87,0c-0.106-8.727,2.003-15.941,3.209-19.35
						c0.371-1.048,0.663-1.737,0.783-2.003c0.04-0.093,0.053-0.132,0.053-0.132s-0.026-1.406-0.133-3.475
						c-0.013-0.252-0.027-0.517-0.04-0.783c-0.265-4.841-0.889-12.44-2.347-15.119c-5.358-9.814-24.204-6.472-25.676,1.339
						C620.526,205.94,620.261,211.351,620.844,215.396z"/>
					<path style="fill:#1A0F24;" d="M648.484,196.736c-3.459-4-8.914-5.828-14.199-6.003c-3.708-0.123-7.592,0.55-10.55,2.79
						c-1.771,1.341-3.138,3.209-3.879,5.303l0.822,0.137c2.957,1.225,6.255,1.446,9.437,1.099c3.182-0.347,6.276-1.24,9.336-2.181
						c-0.315,0.709-0.201,1.589,0.284,2.194c0.484,0.605,1.318,0.91,2.078,0.758c-0.383,2.684,0.323,5.508,1.925,7.696
						c1.602,2.188,4.08,3.715,6.755,4.16C653.028,207.605,652.201,201.033,648.484,196.736z"/>
					<g>
						<path style="fill:#1A0F24;" d="M627.54,207.575c-1.518-1.057-3.49-0.996-4.921,0.241c-0.268,0.232-0.315,0.698-0.111,0.999
							c0.208,0.308,0.603,0.36,0.872,0.127c0.587-0.508,1.335-0.737,2.066-0.683c0.369,0.027,0.734,0.126,1.074,0.295
							c0.301,0.15,0.593,0.409,0.93,0.215c0.081-0.046,0.15-0.115,0.205-0.196C627.841,208.295,627.829,207.776,627.54,207.575z"/>
						<path style="fill:#1A0F24;" d="M632.252,207.575c1.74-1.057,4.002-0.996,5.642,0.241c0.307,0.232,0.361,0.698,0.127,0.999
							c-0.239,0.308-0.691,0.36-0.999,0.127c-0.673-0.508-1.531-0.727-2.367-0.672c-0.423,0.028-0.841,0.126-1.232,0.29
							c-0.345,0.145-0.684,0.401-1.068,0.209c-0.092-0.046-0.172-0.115-0.234-0.196
							C631.907,208.295,631.921,207.776,632.252,207.575z"/>
						<path style="fill:#C16B5B;" d="M629.725,219.178c-0.659,0-1.346-0.144-2.007-0.493c-0.309-0.162-0.428-0.544-0.265-0.852
							c0.162-0.308,0.543-0.427,0.852-0.265c1.599,0.839,3.382-0.023,3.891-0.722c0.205-0.28,0.601-0.343,0.883-0.137
							c0.282,0.206,0.343,0.601,0.137,0.883C632.616,218.411,631.243,219.178,629.725,219.178z"/>
						<path style="fill:#C16B5B;" d="M628.233,215.584c-0.068,0-0.131-0.045-0.152-0.114c-0.299-1.03,0.051-1.381,0.398-1.493
							c0.352-0.112,0.773-0.022,1.252,0.274c0.074,0.046,0.097,0.143,0.051,0.218c-0.047,0.073-0.145,0.096-0.218,0.051
							c-0.395-0.244-0.728-0.326-0.988-0.242c-0.311,0.1-0.375,0.472-0.192,1.104c0.024,0.083-0.024,0.171-0.108,0.195
							C628.263,215.582,628.247,215.584,628.233,215.584z"/>
						<g>
							<path d="M633.461,212.138c0,0.739,0.599,1.338,1.338,1.338c0.739,0,1.338-0.599,1.338-1.338c0-0.739-0.599-1.338-1.338-1.338
								C634.06,210.8,633.461,211.399,633.461,212.138z"/>
							<path style="fill:#FFFFFF;" d="M634.013,211.591c0,0.237,0.192,0.43,0.43,0.43s0.43-0.192,0.43-0.43
								c0-0.237-0.192-0.43-0.43-0.43S634.013,211.353,634.013,211.591z"/>
						</g>
						<g>
							<path d="M623.743,212.138c0,0.739,0.599,1.338,1.338,1.338c0.739,0,1.338-0.599,1.338-1.338c0-0.739-0.599-1.338-1.338-1.338
								C624.342,210.8,623.743,211.399,623.743,212.138z"/>
							<path style="fill:#FFFFFF;" d="M624.333,211.648c0,0.237,0.192,0.43,0.43,0.43s0.43-0.192,0.43-0.43
								c0-0.237-0.192-0.43-0.43-0.43S624.333,211.411,624.333,211.648z"/>
						</g>
					</g>
					<g>
						<path style="fill:#FEBAA3;" d="M654.248,216.884c-1.616,1.927-4.165,2.449-5.695,1.167c-1.529-1.283-1.459-3.884,0.157-5.811
							c1.616-1.927,4.166-2.449,5.695-1.167C655.933,212.355,655.864,214.957,654.248,216.884z"/>
						<path style="fill:#C16B5B;" d="M653.349,212.016c-0.687-0.363-1.603-0.346-2.449,0.048c-0.422,0.196-0.728,0.434-0.937,0.728
							c-0.276,0.39-0.353,0.879-0.2,1.277c0.136,0.357,0.421,0.589,0.673,0.794c0.182,0.148,0.354,0.288,0.451,0.455
							c0.149,0.257,0.112,0.616-0.088,0.836c-0.199,0.219-0.553,0.29-0.823,0.166c-0.159-0.073-0.346-0.004-0.419,0.154
							c-0.073,0.158-0.004,0.346,0.154,0.419c0.173,0.08,0.361,0.118,0.55,0.118c0.375,0,0.75-0.152,1.006-0.433
							c0.383-0.423,0.453-1.086,0.166-1.579c-0.155-0.266-0.39-0.458-0.598-0.626c-0.208-0.17-0.405-0.33-0.482-0.53
							c-0.077-0.2-0.028-0.469,0.126-0.686c0.062-0.087,0.146-0.166,0.239-0.242c0.314-0.003,0.706,0.094,0.905,0.31
							c0.223,0.245,0.329,0.599,0.275,0.925c-0.028,0.172,0.088,0.334,0.26,0.363c0.017,0.003,0.034,0.004,0.052,0.004
							c0.152,0,0.285-0.11,0.311-0.264c0.086-0.52-0.075-1.063-0.432-1.453c-0.133-0.145-0.299-0.243-0.473-0.323
							c0.522-0.141,1.038-0.113,1.438,0.098c0.494,0.261,0.867,0.935,0.613,1.484c-0.073,0.158-0.004,0.346,0.154,0.419
							c0.159,0.073,0.345,0.004,0.419-0.154C654.61,213.523,654.202,212.467,653.349,212.016z"/>
					</g>
				</g>
			</g>
			<g>
				<polygon style="fill:#FFE6CA;" points="633.999,234.632 639.441,241.908 632.735,245.051 630.979,236.443 				"/>
				<polygon style="fill:#FFE6CA;" points="639.441,241.908 646.137,234.632 648.806,237.726 645.238,245.341 				"/>
			</g>
		</g>
	</g>
	<g>
		<rect x="71.919" y="432.827" style="fill:#385D93;" width="368.092" height="17.029"/>
		<rect x="77.322" y="185.701" style="opacity:0.2;fill:#385D93;" width="357.288" height="247.52"/>
		<polygon style="opacity:0.3;fill:#FFFFFF;" points="393.182,185.701 145.676,433.221 83.528,433.221 331.048,185.701 		"/>
		<polygon style="opacity:0.3;fill:#FFFFFF;" points="434.609,185.701 434.609,194.968 196.356,433.221 165.649,433.221 
			413.169,185.701 		"/>
	</g>
	<g>
		<g>
			<g>
				<g>
					<path style="fill:#0D1B35;" d="M170.177,363.597h-44.744c-6.352,0-12.265-5.15-13.206-11.502l-10.746-72.551
						c-0.941-6.352,3.446-11.502,9.799-11.502h44.744c6.352,0,12.265,5.15,13.206,11.502l10.746,72.551
						C180.917,358.447,176.53,363.597,170.177,363.597z"/>
					<path style="fill:#1A3263;" d="M178.166,363.597h-44.744c-6.352,0-12.265-5.15-13.206-11.502l-10.746-72.551
						c-0.941-6.352,3.446-11.502,9.799-11.502h44.744c6.352,0,12.265,5.15,13.206,11.502l10.746,72.551
						C188.905,358.447,184.518,363.597,178.166,363.597z"/>
				</g>
				<g>
					<g>
						<path style="fill:#29477C;" d="M189.685,384.089h-68.485l0,0c0-4.895,3.968-8.863,8.863-8.863h50.758
							C185.717,375.226,189.685,379.194,189.685,384.089L189.685,384.089z"/>
						<path style="fill:#1A3263;" d="M190.956,385.941H119.93c-0.639,0-1.158-0.518-1.158-1.158l0,0
							c0-0.639,0.518-1.158,1.158-1.158h71.026c0.639,0,1.158,0.518,1.158,1.158l0,0
							C192.114,385.423,191.595,385.941,190.956,385.941z"/>
					</g>
					<path style="fill:#1A3263;" d="M161.781,389.762h-12.677c-1.582,0-2.865-1.283-2.865-2.865v-2.808h18.407v2.808
						C164.646,388.479,163.364,389.762,161.781,389.762z"/>
					<rect x="151.883" y="387.68" style="fill:#1A3263;" width="7.119" height="64.223"/>
					<path style="fill:#1A3263;" d="M162.91,451.903h-14.934v-5.732c0-1.199,0.972-2.17,2.17-2.17h10.593
						c1.199,0,2.17,0.972,2.17,2.17V451.903z"/>
					<path style="fill:#0D1B35;" d="M180.189,458.647h-49.492l0,0c0-4.12,3.34-7.459,7.459-7.459h34.574
						C176.849,451.188,180.189,454.527,180.189,458.647L180.189,458.647z"/>
				</g>
			</g>
			<g>
				<g>
					<g>
						<path style="fill:#FEBAA3;" d="M239.152,457.909c0,0-20.667,0.72-27.632-2.216l-1.238,2.216c0,0-8.563,0.115-8.578,0
							c-0.029-0.101-0.59-4.13,0.302-8.506c0.259-1.238,0.619-2.519,1.166-3.728h11.441c0,0,4.893,2,10.002,3.785
							c3.339,1.18,6.779,2.274,8.995,2.663C239.224,453.102,239.152,457.909,239.152,457.909z"/>
						<path style="fill:#0D1B35;" d="M239.152,457.909c0,0-20.667,0.72-27.632-2.216l-1.238,2.216c0,0-8.563,0.115-8.578,0
							c-0.029-0.101-0.59-4.13,0.302-8.506c5.066,1.007,14.277,2.216,22.609,0.058c3.339,1.18,6.779,2.274,8.995,2.663
							C239.224,453.102,239.152,457.909,239.152,457.909z"/>
					</g>
					<g>
						<path style="fill:#FEAE93;" d="M194.152,458.575c0,0-15.183-14.032-18.062-21.026l-2.432,0.691c0,0-6.102-5.872-6.102-6.045
							c0.057-0.072,2.188-2.95,5.526-5.339c1.223-0.892,2.619-1.713,4.13-2.303l8.117,8.045c0,0,2.734,6.448,5.498,11.931
							c1.238,2.403,2.461,4.62,3.454,6.045C197.577,455.221,194.152,458.575,194.152,458.575z"/>
						<path style="fill:#0D1B35;" d="M194.152,458.575c0,0-15.183-14.032-18.062-21.026l-2.432,0.691c0,0-6.102-5.872-6.102-6.045
							c0.057-0.072,2.188-2.95,5.526-5.339c2.216,3.756,8.376,12.953,17.745,17.673c1.238,2.403,2.461,4.62,3.454,6.045
							C197.577,455.221,194.152,458.575,194.152,458.575z"/>
					</g>
					<path style="fill:#FEAE93;" d="M176.773,330.285c0,0,50.258,16.46,55.356,40.298c3.091,14.455-46.799,62.014-46.799,62.014
						s-6.768-2.415-8.117-8.045c0,0,29.452-47.022,29.188-48.738c-0.264-1.715-57.86-18.26-57.86-18.26v-27.469L176.773,330.285z"/>
					<path style="fill:#FEBAA3;" d="M124.973,331.557c0,0-6.793,17.687,3.704,32.704c14.464,20.691,71.736,7.206,74.551,9.114
						c2.815,1.908-0.055,72.302-0.055,72.302s4.995,1.632,11.441,0c0,0,18.252-81.216,11.768-90.102
						c-8.382-11.488-61.787-23.557-61.787-23.557L124.973,331.557z"/>
				</g>
				<g>
					<g>
						<path style="fill:#FEBAA3;" d="M234.123,287.685l3.995,7.747c0,0,14.902-4.923,14.563-6.277
							c-0.339-1.353-5.174,0.301-5.174,0.301s10.363-3.958,9.775-5.596c-0.588-1.639-10.815,3.054-10.815,3.054
							s12.438-5.656,11.726-7.335c-0.712-1.679-12.988,4.286-12.988,4.286s9.078-5.609,8.158-7.183
							C252.1,274.52,234.123,287.685,234.123,287.685z"/>
						<path style="fill:#FEBAA3;" d="M234.123,287.685c0,0,3.552-10.12,5.646-10.301c2.094-0.181,0.396,7.844,0.396,7.844
							L234.123,287.685z"/>
					</g>
					<path style="fill:#FFB31A;" d="M175.439,260.678c4.924,1.848,19.425,35.451,20.814,35.798
						c1.389,0.347,38.119-11.201,38.119-11.201s4.457,5.803,4.689,10.723c0,0-41.39,15.786-46.671,14.674
						c-6.599-1.389-20.101-23.748-20.101-23.748L175.439,260.678z"/>
					<path style="fill:#0D1B35;" d="M194.776,377.716c0,0,11.695-20.5,27.671-25.709c0,0-17.425-14.473-44.69-21.121h-52.677
						c0,0-12.967,28.069,10.188,40.572C158.423,383.961,194.776,377.716,194.776,377.716z"/>
					<path style="fill:#FFB31A;" d="M180.103,331.37c-18.438,3.683-55.963,0.115-55.963,0.115
						c1.469-8.924,10.706-38.783,10.706-38.783l0.803-6.652l0.816-6.761l2.585-21.357l12.447-3.074l12.025,0.911l11.917,4.911
						c3.51,7.808,2.87,16.419,1.197,23.384c-0.571,2.408-1.279,4.611-1.972,6.516c-1.592,4.38-3.156,7.183-3.156,7.183
						L180.103,331.37z"/>
					<g>
						<path style="fill:#FEBAA3;" d="M176.073,309.513l-1.311,8.618c0,0,14.956,4.758,15.475,3.463
							c0.519-1.295-4.367-2.793-4.367-2.793s10.714,2.876,11.199,1.204c0.485-1.672-10.549-3.873-10.549-3.873
							s13.39,2.719,13.799,0.942c0.409-1.777-13.032-4.151-13.032-4.151s10.642,0.785,10.821-1.029
							C198.354,309.401,176.073,309.513,176.073,309.513z"/>
						<path style="fill:#FEBAA3;" d="M176.073,309.513c0,0,8.815-6.11,10.617-5.028c1.802,1.082-4.282,6.584-4.282,6.584
							L176.073,309.513z"/>
					</g>
					<path style="fill:#FFB31A;" d="M139.049,257.931c-7.601,2.164-24.504,46.426-18.166,54.697
						c4.04,5.271,54.996,6.139,54.996,6.139s2.488-7.346,1.909-10.587c0,0-40.938-7.096-40.938-7.674
						c0-0.579,5.363-20.728,5.363-20.728L139.049,257.931z"/>
					<g>
						<path style="fill:#FFC757;" d="M171.606,306.336c-11.125-2.055-22.286-3.904-33.476-5.571
							c0.002-0.027,0.014-0.047,0.014-0.075c-0.093-4.492,0.787-8.964,2.619-13.07c0.354-0.793-0.818-1.485-1.175-0.687
							c-1.916,4.292-2.883,8.932-2.804,13.633c-1.647-0.243-3.292-0.495-4.94-0.729c-0.856-0.122-1.226,1.189-0.362,1.312
							c13.297,1.892,26.554,4.059,39.761,6.499C172.1,307.805,172.467,306.495,171.606,306.336z"/>
						<path style="fill:#FFC757;" d="M176.941,275.587c-0.144-0.862-1.455-0.496-1.312,0.362c0.657,3.945,0.079,8.06-1.632,11.674
							c-0.372,0.787,0.8,1.478,1.175,0.687C177.052,284.336,177.663,279.921,176.941,275.587z"/>
					</g>
				</g>
				<g>
					<path style="fill:#1A0F24;" d="M150.087,241.182c-2.497-0.072-4.8-1.581-6.294-3.583c-1.495-2.002-2.274-4.45-2.758-6.9
						c-0.719-3.635-0.841-7.412-0.107-11.044c0.734-3.632,2.345-7.116,4.828-9.867c4.63-5.128,12.305-7.27,18.92-5.28
						c3.462-2.118,8.287-1.477,11.533,0.959c3.246,2.435,5.04,6.516,5.185,10.571c0.145,4.056-1.234,8.065-3.371,11.514
						c-2.797,4.514-6.923,8.193-11.727,10.457C161.493,240.272,155.395,241.335,150.087,241.182z"/>
					
						<ellipse transform="matrix(0.4271 -0.9042 0.9042 0.4271 -112.7647 250.5663)" style="fill:#1A0F24;" cx="141.347" cy="214.269" rx="12.59" ry="10.014"/>
					<g>
						<path style="fill:#FEBAA3;" d="M176.754,234.948c-0.646,4.655-2.4,7.49-4.787,9.507c-1.464,1.239-2.782,2.083-3.916,2.861
							c-2.861,1.978-4.576,3.56-4.576,10.127c-1.938,4.879-9.402,5.538-11.802,0c0.106-8.677-1.991-15.85-3.191-19.239
							c-0.369-1.042-0.659-1.727-0.778-1.991c-0.04-0.092-0.053-0.132-0.053-0.132s0.026-1.398,0.132-3.455
							c0.013-0.251,0.026-0.514,0.04-0.778c0.264-4.813,0.883-12.369,2.334-15.033c5.327-9.758,24.065-6.435,25.529,1.332
							C177.07,225.546,177.334,230.926,176.754,234.948z"/>
						<path style="fill:#1A0F24;" d="M176.959,225.823c-1.681-3.739-4.664-6.878-8.314-8.746c-1.405,2.483-3.527,4.448-5.996,5.876
							c-2.469,1.429-5.323,2.184-8.176,2.164c0.058,2.036-0.775,4.024-2.198,5.481c-1.423,1.457-3.45,2.306-5.487,2.296
							c-0.599-4.244-0.823-8.661,0.324-12.79c1.147-4.13,3.837-7.997,7.759-9.723c2.109-0.928,4.444-1.198,6.745-1.325
							c2.276-0.126,4.581-0.119,6.805,0.381c2.224,0.5,4.377,1.527,5.928,3.198c1.594,1.717,2.459,4.01,2.82,6.325
							C177.532,221.275,177.089,223.484,176.959,225.823z"/>
						<g>
							<path style="fill:#1A0F24;" d="M170.096,227.172c1.509-1.051,3.47-0.99,4.893,0.24c0.266,0.23,0.313,0.694,0.11,0.993
								c-0.207,0.306-0.599,0.357-0.867,0.127c-0.584-0.505-1.327-0.733-2.054-0.679c-0.367,0.027-0.73,0.125-1.067,0.293
								c-0.299,0.149-0.589,0.407-0.925,0.214c-0.08-0.046-0.149-0.114-0.203-0.195C169.797,227.888,169.81,227.371,170.096,227.172
								z"/>
							<path style="fill:#1A0F24;" d="M165.412,227.172c-1.731-1.051-3.979-0.99-5.61,0.24c-0.305,0.23-0.359,0.694-0.127,0.993
								c0.237,0.306,0.687,0.357,0.993,0.127c0.669-0.505,1.522-0.723,2.353-0.668c0.42,0.028,0.836,0.125,1.225,0.288
								c0.343,0.144,0.68,0.399,1.062,0.208c0.092-0.046,0.17-0.114,0.233-0.195C165.755,227.888,165.741,227.371,165.412,227.172z"
								/>
							<path style="fill:#C16B5B;" d="M167.924,238.708c0.655,0,1.338-0.144,1.996-0.49c0.307-0.161,0.426-0.541,0.264-0.847
								c-0.161-0.307-0.54-0.425-0.847-0.264c-1.59,0.834-3.362-0.023-3.869-0.718c-0.204-0.278-0.597-0.342-0.877-0.137
								c-0.28,0.205-0.341,0.597-0.137,0.877C165.049,237.946,166.415,238.708,167.924,238.708z"/>
							<path style="fill:#C16B5B;" d="M169.408,235.135c0.068,0,0.13-0.045,0.151-0.113c0.297-1.025-0.051-1.373-0.395-1.484
								c-0.35-0.112-0.768-0.022-1.245,0.272c-0.074,0.045-0.096,0.142-0.051,0.216c0.047,0.073,0.144,0.095,0.216,0.051
								c0.393-0.243,0.724-0.324,0.982-0.24c0.309,0.099,0.373,0.469,0.191,1.098c-0.024,0.083,0.024,0.17,0.107,0.194
								C169.378,235.133,169.393,235.135,169.408,235.135z"/>
							<g>
								<path d="M164.21,231.709c0,0.734-0.595,1.33-1.33,1.33c-0.735,0-1.33-0.595-1.33-1.33s0.595-1.33,1.33-1.33
									C163.615,230.379,164.21,230.974,164.21,231.709z"/>
								<path style="fill:#FFFFFF;" d="M163.66,231.165c0,0.236-0.191,0.427-0.427,0.427c-0.236,0-0.427-0.191-0.427-0.427
									c0-0.236,0.191-0.427,0.427-0.427C163.469,230.737,163.66,230.929,163.66,231.165z"/>
							</g>
							<g>
								<path d="M173.872,231.709c0,0.734-0.595,1.33-1.33,1.33c-0.735,0-1.33-0.595-1.33-1.33s0.595-1.33,1.33-1.33
									C173.277,230.379,173.872,230.974,173.872,231.709z"/>
								<path style="fill:#FFFFFF;" d="M173.286,231.222c0,0.236-0.191,0.427-0.427,0.427c-0.236,0-0.427-0.191-0.427-0.427
									c0-0.236,0.191-0.427,0.427-0.427C173.094,230.794,173.286,230.986,173.286,231.222z"/>
							</g>
						</g>
						<g>
							<path style="fill:#FEBAA3;" d="M143.542,236.427c1.607,1.916,4.142,2.435,5.662,1.16c1.521-1.275,1.451-3.862-0.156-5.778
								c-1.607-1.916-4.142-2.435-5.662-1.16C141.866,231.925,141.935,234.512,143.542,236.427z"/>
							<path style="fill:#C16B5B;" d="M144.435,231.587c0.683-0.361,1.594-0.345,2.435,0.047c0.419,0.194,0.723,0.432,0.931,0.724
								c0.275,0.387,0.351,0.874,0.199,1.27c-0.135,0.355-0.419,0.585-0.669,0.789c-0.181,0.147-0.352,0.286-0.449,0.452
								c-0.148,0.255-0.111,0.613,0.088,0.831c0.198,0.218,0.55,0.289,0.819,0.165c0.158-0.073,0.344-0.004,0.417,0.153
								c0.072,0.157,0.004,0.344-0.153,0.417c-0.172,0.08-0.359,0.118-0.547,0.118c-0.373,0-0.746-0.151-1-0.431
								c-0.381-0.42-0.451-1.08-0.165-1.57c0.154-0.264,0.388-0.455,0.595-0.623c0.207-0.169,0.403-0.328,0.479-0.527
								c0.077-0.199,0.027-0.467-0.125-0.682c-0.061-0.087-0.145-0.165-0.238-0.24c-0.312-0.003-0.702,0.093-0.899,0.309
								c-0.222,0.243-0.327,0.595-0.273,0.92c0.028,0.171-0.088,0.332-0.259,0.361c-0.017,0.003-0.034,0.004-0.051,0.004
								c-0.151,0-0.284-0.109-0.309-0.263c-0.086-0.517,0.075-1.057,0.429-1.445c0.132-0.144,0.297-0.242,0.47-0.321
								c-0.519-0.14-1.032-0.112-1.43,0.098c-0.491,0.259-0.862,0.93-0.609,1.475c0.072,0.158,0.004,0.344-0.153,0.417
								c-0.158,0.072-0.343,0.004-0.417-0.153C143.182,233.086,143.588,232.036,144.435,231.587z"/>
						</g>
					</g>
					<g>
						<path style="fill:#FFFFFF;" d="M151.547,254.677l5.555,6.659c0,0-2.934,3.365-6.886,1.415c-3.952-1.95-0.253-5.55-0.253-5.55
							S149.029,255.412,151.547,254.677z"/>
						<path style="fill:#FFFFFF;" d="M163.387,255.309l-6.285,6.027c0,0,2.529,3.657,6.681,2.139s0.888-5.489,0.888-5.489
							S165.805,256.307,163.387,255.309z"/>
					</g>
				</g>
			</g>
		</g>
		<g>
			<path style="fill:#D8B288;" d="M296.082,458.267h-14.76c0-8.23-9.073-14.909-20.269-14.909c-11.182,0-20.269,6.679-20.269,14.909
				h-14.746l5.047-120.894l0.218-5.278h59.515l0.218,5.278L296.082,458.267z"/>
			<rect x="74.82" y="326.34" style="fill:#F7D4AA;" width="224.204" height="5.762"/>
			<path style="fill:#D8B288;" d="M148.525,458.267h-14.76c0-8.23-9.073-14.909-20.269-14.909c-11.196,0-20.269,6.679-20.269,14.909
				h-14.76l5.047-120.894l0.218-5.278h59.515l0.218,5.278L148.525,458.267z"/>
			<polygon style="fill:#FFE6CA;" points="143.465,337.374 83.515,337.374 83.732,332.095 143.247,332.095 			"/>
			<polygon style="fill:#FFE6CA;" points="291.035,337.374 231.085,337.374 231.302,332.095 290.817,332.095 			"/>
		</g>
		<g>
			
				<rect x="143.825" y="323.833" transform="matrix(-1 -0.0013 0.0013 -1 354.3643 650.6012)" style="fill:#AD2727;" width="67.123" height="2.713"/>
			<polygon style="fill:#D83E3A;" points="106.333,326.457 182.159,326.552 175.762,277.215 99.937,277.12 			"/>
			<path style="fill:#FFFFFF;" d="M134.638,302.421c-0.004,3.54,2.861,6.412,6.401,6.417c3.54,0.004,6.412-2.861,6.417-6.401
				c0.004-3.539-2.861-6.412-6.401-6.417C137.516,296.016,134.643,298.882,134.638,302.421z"/>
		</g>
		<g>
			<path style="fill:#FFC82E;" d="M83.096,274.811c-1.081-1.289-2.519-2.762-4.201-2.793c-0.893,11.103,1.056,22.422,5.612,32.587
				l11.329,0.184C94.672,293.833,90.176,283.253,83.096,274.811z"/>
			<path style="fill:#FFB31A;" d="M102.579,266.629c-7.011,11.531-11.337,24.684-12.538,38.126l7.919-0.043
				C103.575,292.991,105.22,279.354,102.579,266.629z"/>
			<path style="fill:#FF931D;" d="M96.434,288.897c-1.405-5.369-4.406-10.352-8.084-14.509c-1.328,5.098-2.398,10.299-2.517,15.566
				c-0.118,5.267,0.752,10.629,3.137,15.326l7.823,0.11C97.963,299.966,97.839,294.266,96.434,288.897z"/>
			<path style="fill:#FFB31A;" d="M90.704,291.46c-3.711-3.754-8.771-6.235-13.952-7.244c0.944,3.815,1.917,7.643,3.469,11.254
				c1.551,3.611,3.718,7.024,6.725,9.553l10.965,0.274C96.962,300.104,94.415,295.214,90.704,291.46z"/>
			<path style="fill:#385D93;" d="M91.221,326.34L91.221,326.34c-4.661,0-8.439-3.779-8.439-8.44v-14.99h16.879v14.99
				C99.661,322.562,95.882,326.34,91.221,326.34z"/>
		</g>
	</g>
	<g>
		<circle style="fill:#29477C;" cx="202.439" cy="122.743" r="33.749"/>
		<circle style="fill:#29477C;" cx="198.217" cy="122.743" r="33.749"/>
		
			<ellipse transform="matrix(0.2202 -0.9755 0.9755 0.2202 38.1355 293.1882)" style="fill:#385D93;" cx="202.439" cy="122.743" rx="29.527" ry="29.527"/>
		<rect x="201.621" y="94.422" style="fill:#FF931D;" width="1.637" height="5.027"/>
		
			<rect x="227.428" y="120.229" transform="matrix(-1.836970e-16 1 -1 -1.836970e-16 350.9896 -105.5044)" style="fill:#FF931D;" width="1.637" height="5.026"/>
		
			<rect x="201.621" y="146.037" transform="matrix(-1 -1.224647e-16 1.224647e-16 -1 404.8789 297.1003)" style="fill:#FF931D;" width="1.637" height="5.027"/>
		
			<rect x="175.813" y="120.229" transform="matrix(6.123234e-17 -1 1 6.123234e-17 53.8892 299.3745)" style="fill:#FF931D;" width="1.637" height="5.026"/>
		<path style="fill:#FF931D;" d="M202.439,125.753c-0.339,0-0.681-0.109-0.967-0.332l-14.06-10.957l1.936-2.486l12.867,10.028
			l15.624-18.449l2.404,2.036l-16.602,19.603C203.331,125.563,202.886,125.753,202.439,125.753z"/>
	</g>
	<g>
		<g>
			<g>
				<path style="fill:#0D1B35;" d="M337.507,357.908h44.744c6.352,0,12.265-5.15,13.206-11.502l10.746-72.551
					c0.941-6.352-3.446-11.502-9.798-11.502H351.66c-6.352,0-12.265,5.15-13.206,11.502l-10.746,72.551
					C326.768,352.758,331.155,357.908,337.507,357.908z"/>
				<path style="fill:#1A3263;" d="M329.519,357.908h44.744c6.352,0,12.265-5.15,13.206-11.502l10.746-72.551
					c0.941-6.352-3.446-11.502-9.798-11.502h-44.744c-6.352,0-12.265,5.15-13.206,11.502l-10.746,72.551
					C318.779,352.758,323.166,357.908,329.519,357.908z"/>
			</g>
			<g>
				<g>
					<path style="fill:#29477C;" d="M317.999,378.4h68.484v0c0-4.895-3.968-8.863-8.863-8.863h-50.758
						C321.967,369.537,317.999,373.505,317.999,378.4L317.999,378.4z"/>
					<path style="fill:#1A3263;" d="M316.729,380.252h71.026c0.639,0,1.158-0.518,1.158-1.158l0,0c0-0.639-0.518-1.158-1.158-1.158
						h-71.026c-0.639,0-1.158,0.518-1.158,1.158l0,0C315.571,379.734,316.089,380.252,316.729,380.252z"/>
				</g>
				<path style="fill:#1A3263;" d="M345.903,384.073h12.677c1.582,0,2.865-1.283,2.865-2.865V378.4h-18.407v2.808
					C343.038,382.79,344.321,384.073,345.903,384.073z"/>
				
					<rect x="348.682" y="381.991" transform="matrix(-1 -1.224647e-16 1.224647e-16 -1 704.4831 828.2055)" style="fill:#1A3263;" width="7.119" height="64.223"/>
				<path style="fill:#0D1B35;" d="M327.495,452.958h49.492l0,0c0-4.12-3.34-7.459-7.459-7.459h-34.574
					C330.835,445.499,327.495,448.838,327.495,452.958L327.495,452.958z"/>
				<path style="fill:#1A3263;" d="M344.775,446.214h14.934v-5.731c0-1.199-0.972-2.17-2.17-2.17h-10.593
					c-1.198,0-2.17,0.972-2.17,2.17V446.214z"/>
			</g>
		</g>
		<g>
			<g>
				<g>
					<path style="fill:#FEBAA3;" d="M276.467,452.958c0,0,20.423-3.246,26.698-7.46l1.639,1.939c0,0,8.427-1.525,8.419-1.641
						c0.009-0.104-0.211-4.167-1.923-8.291c-0.491-1.165-1.089-2.354-1.857-3.436l-11.23,2.188c0,0-4.42,2.899-9.094,5.628
						c-3.052,1.797-6.219,3.528-8.32,4.334C275.477,448.254,276.467,452.958,276.467,452.958z"/>
					<path style="fill:#0D1B35;" d="M276.467,452.958c0,0,20.423-3.246,26.698-7.46l1.639,1.939c0,0,8.427-1.525,8.419-1.641
						c0.009-0.104-0.211-4.167-1.923-8.291c-4.78,1.958-13.589,4.906-22.181,4.381c-3.052,1.797-6.219,3.528-8.32,4.334
						C275.477,448.254,276.467,452.958,276.467,452.958z"/>
				</g>
				<g>
					<path style="fill:#FEBAA3;" d="M313.532,452.958c0,0,15.183-14.032,18.062-21.027l2.432,0.691c0,0,6.102-5.872,6.102-6.045
						c-0.058-0.072-2.188-2.95-5.526-5.339c-1.223-0.892-2.619-1.713-4.13-2.303l-8.117,8.045c0,0-2.734,6.447-5.498,11.931
						c-1.238,2.403-2.461,4.62-3.454,6.045C310.107,449.605,313.532,452.958,313.532,452.958z"/>
					<path style="fill:#0D1B35;" d="M313.532,452.958c0,0,15.183-14.032,18.062-21.027l2.432,0.691c0,0,6.102-5.872,6.102-6.045
						c-0.058-0.072-2.188-2.95-5.526-5.339c-2.216,3.756-8.376,12.953-17.745,17.673c-1.238,2.403-2.461,4.62-3.454,6.045
						C310.107,449.605,313.532,452.958,313.532,452.958z"/>
				</g>
				<path style="fill:#091326;" d="M330.911,324.668c0,0-50.258,16.46-55.356,40.298c-3.091,14.455,46.8,62.014,46.8,62.014
					s6.768-2.416,8.117-8.045c0,0-29.452-47.023-29.188-48.738c0.264-1.715,57.86-18.26,57.86-18.26v-27.469L330.911,324.668z"/>
				<path style="fill:#0D1B35;" d="M382.712,325.94c0,0,6.793,17.687-3.704,32.703c-14.464,20.691-71.736,7.206-74.551,9.114
					c-2.815,1.908,4.987,66.312,4.987,66.312s-4.434,1.877-11.23,2.188c0,0-23.395-77.415-16.911-86.3
					c8.382-11.488,61.787-23.558,61.787-23.558L382.712,325.94z"/>
			</g>
			<g>
				<path style="fill:#FEBAA3;" d="M273.56,311.76c0,0-7.247-2.035-11.067-1.941c-3.82,0.094-15.084,6.241-14.861,10.832h26.265
					L273.56,311.76z"/>
				<path style="fill:#AD2727;" d="M332.246,255.062c-7.671,3.281-12.128,49.726-13.344,49.976
					c-1.216,0.25-46.715,5.547-46.715,5.547s-1.042,5.824,0.434,10.032l0,0c0,0,50.969,0.909,56.874-2.652
					c5.904-3.56,8.857-33.256,8.857-33.256L332.246,255.062z"/>
				<path style="fill:#D83E3A;" d="M327.582,325.753c18.438,3.683,55.963,0.115,55.963,0.115
					c-1.469-8.924-10.706-38.783-10.706-38.783l-0.803-6.652l-0.816-6.761l-2.585-21.357l-12.447-3.074l-12.025,0.911l-11.917,4.911
					c-3.51,7.808-2.87,16.419-1.197,23.384c0.571,2.408,1.279,4.612,1.972,6.516c1.592,4.38,3.156,7.183,3.156,7.183
					L327.582,325.753z"/>
				<g>
					<path style="fill:#FEBAA3;" d="M321.317,311.76c0,0-7.247-2.035-11.067-1.941c-3.82,0.094-15.084,6.241-14.861,10.832h26.265
						L321.317,311.76z"/>
					<path style="fill:#AD2727;" d="M368.629,252.315c5.977,1.248,25.295,42.853,19.721,56.693
						c-4.904,12.18-66.826,11.605-66.826,11.605c-1.585-5.076,0.286-10.797,0.286-10.797s48.732-8.143,49.325-9.317
						C371.729,299.324,361.064,250.735,368.629,252.315z"/>
				</g>
				<g>
					<path style="fill:#FFC82E;" d="M372.561,299.142c-0.653,0.21-1.312,0.397-1.971,0.585c-0.553-1.853-1.218-3.669-1.989-5.443
						c-0.091-0.209-0.399-0.258-0.579-0.152c-0.216,0.128-0.244,0.368-0.152,0.579c0.743,1.709,1.376,3.466,1.908,5.252
						c-2.682,0.724-5.412,1.265-8.171,1.606c-0.534,0.066-0.54,0.913,0,0.846c3.797-0.47,7.537-1.285,11.179-2.457
						C373.302,299.792,373.081,298.974,372.561,299.142z"/>
					<path style="fill:#FFC82E;" d="M333.45,278.517c0.01-0.545-0.837-0.545-0.846,0c-0.07,3.941,0.792,7.839,2.497,11.391
						c0.236,0.491,0.966,0.062,0.731-0.427C334.191,286.064,333.383,282.304,333.45,278.517z"/>
				</g>
			</g>
			<g>
				<ellipse style="fill:#1A0F24;" cx="348.198" cy="219.804" rx="20.078" ry="20.571"/>
				<circle style="fill:#1A0F24;" cx="360.506" cy="204.283" r="10.397"/>
				<g>
					<path style="fill:#FEBAA3;" d="M331.223,229.391c0.637,4.588,2.366,7.382,4.718,9.371c1.443,1.222,2.742,2.053,3.86,2.82
						c2.82,1.95,4.51,3.509,4.51,9.982c1.911,4.809,9.267,5.459,11.633,0c-0.104-8.552,1.963-15.623,3.145-18.963
						c0.364-1.027,0.65-1.703,0.767-1.963c0.039-0.091,0.052-0.13,0.052-0.13s-0.026-1.378-0.13-3.405
						c-0.013-0.247-0.026-0.507-0.039-0.767c-0.26-4.744-0.871-12.191-2.3-14.817c-5.251-9.618-23.72-6.343-25.163,1.313
						C330.911,220.124,330.651,225.426,331.223,229.391z"/>
					<path style="fill:#1A0F24;" d="M330.74,221.181c0.512-3.319,2.297-6.425,4.905-8.539c0.242,0.895,0.903,1.564,1.666,2.09
						c0.763,0.526,1.645,0.852,2.528,1.133c3.694,1.174,7.613,1.636,11.479,1.354c0.735,1.69,1.569,3.523,2.698,4.98
						c2.029,2.618,5.282,4.245,8.594,4.298c-0.118-3.837-0.743-7.906-1.33-11.7c-0.354-2.288-0.814-4.62-2.023-6.594
						c-1.291-2.109-3.374-3.665-5.668-4.587c-2.294-0.923-4.794-1.244-7.267-1.24c-2.919,0.005-5.873,0.465-8.524,1.687
						c-2.651,1.222-4.986,3.248-6.265,5.872C329.835,213.416,330.407,217.319,330.74,221.181z"/>
					<g>
						<polygon style="fill:#AD2727;" points="341.612,251.304 344.064,248.33 350.09,255.418 343.669,258.69 						"/>
						<polygon style="fill:#AD2727;" points="359.273,250.092 356.115,248.33 350.09,255.418 356.516,258.391 						"/>
					</g>
					<g>
						<path style="fill:#1A0F24;" d="M337.785,221.726c-1.488-1.036-3.42-0.976-4.823,0.237c-0.263,0.227-0.308,0.684-0.109,0.979
							c0.204,0.302,0.591,0.352,0.854,0.125c0.576-0.498,1.309-0.723,2.025-0.67c0.362,0.027,0.719,0.124,1.052,0.289
							c0.295,0.147,0.581,0.401,0.912,0.211c0.079-0.045,0.147-0.112,0.2-0.192C338.08,222.432,338.068,221.923,337.785,221.726z"/>
						<path style="fill:#1A0F24;" d="M342.402,221.726c1.706-1.036,3.922-0.976,5.529,0.237c0.301,0.227,0.353,0.684,0.125,0.979
							c-0.234,0.302-0.677,0.352-0.979,0.125c-0.659-0.497-1.5-0.713-2.319-0.658c-0.414,0.028-0.824,0.123-1.207,0.284
							c-0.338,0.142-0.67,0.393-1.046,0.205c-0.09-0.045-0.168-0.112-0.23-0.192C342.064,222.432,342.078,221.923,342.402,221.726z"
							/>
						<path style="fill:#C16B5B;" d="M339.926,233.097c-0.646,0-1.319-0.141-1.967-0.483c-0.303-0.159-0.419-0.533-0.26-0.835
							c0.159-0.302,0.532-0.419,0.835-0.26c1.567,0.822,3.314-0.023,3.813-0.708c0.201-0.274,0.589-0.337,0.865-0.135
							c0.276,0.202,0.336,0.589,0.135,0.865C342.76,232.345,341.414,233.097,339.926,233.097z"/>
						<path style="fill:#C16B5B;" d="M338.464,229.575c-0.067,0-0.129-0.044-0.149-0.112c-0.293-1.01,0.05-1.353,0.39-1.463
							c0.345-0.11,0.757-0.021,1.227,0.268c0.073,0.045,0.095,0.14,0.05,0.213c-0.046,0.072-0.142,0.094-0.213,0.05
							c-0.387-0.239-0.714-0.32-0.968-0.237c-0.305,0.098-0.368,0.462-0.188,1.082c0.024,0.082-0.023,0.167-0.106,0.192
							C338.493,229.573,338.478,229.575,338.464,229.575z"/>
						<path d="M334.385,227.071c-0.008,0-0.017,0-0.026-0.001c-0.172-0.014-0.3-0.165-0.286-0.337
							c0.057-0.694,0.494-2.007,1.739-2.007c1.254,0,1.639,1.274,1.668,1.948c0.007,0.172-0.126,0.317-0.298,0.325
							c-0.176,0.011-0.318-0.125-0.326-0.297c-0.003-0.055-0.076-1.351-1.044-1.351c-0.987,0-1.115,1.419-1.116,1.433
							C334.682,226.947,334.545,227.071,334.385,227.071z"/>
						<path d="M343.507,227.071c-0.008,0-0.017,0-0.026-0.001c-0.172-0.014-0.3-0.165-0.286-0.337
							c0.057-0.694,0.494-2.007,1.739-2.007c1.254,0,1.639,1.274,1.668,1.948c0.007,0.172-0.126,0.317-0.298,0.325
							c-0.176,0.011-0.318-0.125-0.326-0.297c-0.003-0.055-0.076-1.351-1.044-1.351c-0.987,0-1.115,1.419-1.116,1.433
							C343.804,226.947,343.667,227.071,343.507,227.071z"/>
					</g>
					<g>
						<path style="fill:#FEBAA3;" d="M363.959,230.849c-1.583,1.888-4.082,2.4-5.581,1.143c-1.499-1.257-1.43-3.807,0.153-5.695
							c1.584-1.888,4.082-2.4,5.581-1.143C365.611,226.411,365.542,228.96,363.959,230.849z"/>
						<path style="fill:#C16B5B;" d="M363.078,226.078c-0.673-0.356-1.571-0.34-2.4,0.047c-0.413,0.192-0.713,0.425-0.918,0.714
							c-0.271,0.382-0.346,0.862-0.196,1.252c0.133,0.35,0.413,0.577,0.659,0.778c0.178,0.145,0.347,0.282,0.442,0.446
							c0.146,0.251,0.109,0.604-0.086,0.82c-0.195,0.215-0.542,0.285-0.807,0.163c-0.156-0.072-0.339-0.004-0.411,0.151
							c-0.071,0.155-0.004,0.339,0.151,0.411c0.17,0.079,0.354,0.116,0.539,0.116c0.368,0,0.736-0.149,0.986-0.425
							c0.376-0.414,0.444-1.064,0.163-1.547c-0.152-0.26-0.383-0.448-0.586-0.614c-0.204-0.166-0.397-0.323-0.472-0.52
							c-0.076-0.196-0.027-0.46,0.123-0.672c0.06-0.085,0.143-0.163,0.234-0.237c0.307-0.003,0.692,0.092,0.887,0.304
							c0.219,0.24,0.322,0.587,0.27,0.906c-0.028,0.169,0.086,0.327,0.255,0.355c0.017,0.003,0.034,0.004,0.051,0.004
							c0.149,0,0.28-0.108,0.305-0.259c0.085-0.509-0.074-1.042-0.423-1.424c-0.13-0.142-0.293-0.238-0.463-0.316
							c0.512-0.138,1.017-0.111,1.409,0.096c0.484,0.256,0.85,0.916,0.601,1.454c-0.071,0.155-0.004,0.339,0.151,0.411
							c0.155,0.071,0.339,0.004,0.411-0.151C364.314,227.555,363.914,226.52,363.078,226.078z"/>
					</g>
				</g>
			</g>
		</g>
	</g>
</g>
</svg>
