<?xml version="1.0" encoding="utf-8"?>
<!-- Generator: Adobe Illustrator 27.5.0, SVG Export Plug-In . SVG Version: 6.00 Build 0)  -->
<svg version="1.1" xmlns="http://www.w3.org/2000/svg" xmlns:xlink="http://www.w3.org/1999/xlink" x="0px" y="0px"
	 viewBox="0 0 500 500" style="enable-background:new 0 0 500 500;" xml:space="preserve">
<g id="Floor">
	<path id="Floor_00000134943238524783665200000009170466119259491206_" style="fill:#FAFAFA;" d="M78.974,246.802
		c-94.452,54.532-94.45,142.947,0.005,197.479c94.455,54.533,247.595,54.533,342.048,0c94.453-54.532,94.45-142.947-0.005-197.479
		S173.426,192.27,78.974,246.802z"/>
</g>
<g id="Plants">
	<g id="Plants_5_">
		<g>
			<g>
				<path style="fill:#BA68C8;" d="M107.962,417.589c-0.189-0.133-0.309-0.341-0.33-0.572c-2.92-31.745-29.931-54.716-41.465-64.526
					c-1.865-1.585-3.338-2.838-4.282-3.76c-4.226-4.129-6.061-9.553-4.902-14.508c1.042-4.465,4.464-7.946,9.387-9.548
					c12.045-3.924,30.943,11.012,43.018,33.989c16.921,32.204,8.98,55.958,8.897,56.195c-0.086,0.248-0.292,0.438-0.547,0.504
					l-9.125,2.345c-0.105,0.026-0.212,0.032-0.315,0.016C108.179,417.706,108.063,417.661,107.962,417.589z M107.994,359.399
					c-11.729-22.319-29.798-36.912-41.135-33.226c-4.452,1.45-7.414,4.436-8.342,8.409c-1.029,4.414,0.64,9.283,4.471,13.023
					c0.905,0.885,2.36,2.121,4.2,3.687c11.57,9.84,38.516,32.758,41.922,64.662l7.809-2.007
					C117.854,410.758,123.389,388.702,107.994,359.399z"/>
			</g>
			<g>
				<path style="fill:#BA68C8;" d="M113.481,416.391c0.035,0.005,0.07,0.009,0.106,0.008c0.435,0.009,0.794-0.337,0.801-0.773
					c0.675-37.078-24.99-72.801-42.259-80.157c-0.402-0.173-0.863,0.015-1.035,0.416c-0.17,0.4,0.016,0.863,0.416,1.034
					c17.076,7.273,41.942,43.516,41.303,78.679C112.807,415.997,113.098,416.332,113.481,416.391z"/>
			</g>
		</g>
		<g>
			<g>
				<path style="fill:#BA68C8;" d="M117.423,415.379c0.112,0.017,0.23,0.01,0.346-0.025l6.187-1.871
					c0.25-0.076,0.446-0.268,0.524-0.517c0.111-0.352,11.02-35.779,2.981-83.497c-4.095-24.309-18.264-48.02-33.693-56.383
					c-7.419-4.016-14.709-4.521-21.672-1.492c-3.936,1.713-6.4,4.237-7.324,7.503c-2.553,9.029,6.82,22.469,16.743,36.699
					c6.944,9.955,14.123,20.249,17.398,29.34c0.148,0.41,0.6,0.619,1.008,0.474c0.41-0.148,0.622-0.598,0.474-1.008
					c-3.345-9.287-10.586-19.668-17.587-29.708c-9.704-13.915-18.871-27.058-16.521-35.369c0.799-2.827,2.905-4.95,6.438-6.487
					c6.492-2.827,13.319-2.347,20.29,1.434c15.038,8.149,28.869,31.389,32.891,55.258c7.521,44.646-1.65,78.37-2.814,82.365
					l-5.78,1.749c-0.416,0.125-0.653,0.565-0.526,0.982C116.879,415.128,117.132,415.335,117.423,415.379z"/>
			</g>
			<g>
				<path style="fill:#BA68C8;" d="M118.956,392.817c0.018,0.003,0.038,0.006,0.056,0.007c0.434,0.035,0.813-0.289,0.85-0.722
					c4.662-57.358-27.336-103.284-36.803-111.167c-0.333-0.276-0.832-0.234-1.11,0.101c-0.278,0.335-0.234,0.832,0.1,1.11
					c9.33,7.768,40.854,53.091,36.24,109.829C118.256,392.389,118.551,392.755,118.956,392.817z"/>
			</g>
		</g>
	</g>
</g>
<g id="Shadow">
	<path id="Shadow_00000154393185269202440150000011058542164828560007_" style="fill:#E0E0E0;" d="M383.94,315.191
		c-17.861-10.311-44.599-12.359-66.002-6.16c-47.189-13.725-106.206-9.231-145.608,13.518c-33.68,19.445-44.277,47.168-31.8,71.825
		c-10.029,1.35-19.551,4.276-27.368,8.789c-22.31,12.88-22.309,33.763,0,46.644c22.31,12.88,58.481,12.88,80.791,0
		c5.405-3.121,9.488-6.713,12.274-10.545c46.933,13.196,105.116,8.559,144.101-13.948c30.267-17.475,41.887-41.634,34.878-64.246
		C406.226,348.138,405.815,327.82,383.94,315.191z"/>
</g>
<g id="Character">
	<g id="Character_12_">
		<g id="Chest_00000072253770701741575760000017440499903340767366_">
			<path style="fill:#455A64;" d="M392.78,333.707l0.01,0c-12.556-32.103-30.336-62.598-42.688-78.218
				c-18.539-19.62-56.294-16.457-74.27-10.046l17.057,90.545c0,14.236,21.054,25.776,47.026,25.776
				C366.563,361.527,394.111,349.509,392.78,333.707z"/>
			<path style="fill:#37474F;" d="M372.652,367.911L372.652,367.911c9.307-40.685-18.016-70.6-26.951-80.647
				c-25.963-29.197-41.466-50.976-80.549-39.372c-33.673,9.385-64.974,23.886-88.131,35.295c-4.454,2.195-7.794,4.636-10.183,6.476
				c-5.593,4.306-9.252,12.799-10.268,18.871c-3.249,19.41-4.994,36.423-6.051,50.835c-0.191,1.594-0.32,3.191-0.32,4.788v0l0,0
				c-2.178,18.955,2.462,30.856,25.85,44.359c46.775,27.005,116.379,27.171,161.305,3.598
				C361.551,399.417,372.514,378.684,372.652,367.911z"/>
			<path style="fill:#455A64;" d="M278.233,250.149l-5.267-4.187c-2.502,0.493-5.095,1.122-7.814,1.93
				c-23.789,6.63-46.379,15.812-65.765,24.655c14.198,14.899,51.431,36.839,84.426,23.605
				C320.905,281.274,278.233,250.149,278.233,250.149z"/>
			<path style="fill:#455A64;" d="M177.021,283.186c-34.788,17.105-44.487,23.804-50.908,59.706
				c-4.258,23.81-13.981,71.049-14.782,76.647c-0.801,5.598,4.886,14.359,13.151,19.128c16.509,9.53,51.54,8.901,68.74-1.798
				c7.961-4.952,11.324-11.3,12.376-18.38l0,0l7.017-44.234C212.615,374.255,214.566,303.64,177.021,283.186z"/>
		</g>
		<g id="Head_2_">
			<g>
				<g>
					<path style="fill:#37474F;" d="M213.274,63.18c-0.338-1.923-0.853-3.815-1.559-5.651
						c-6.476-16.849-25.546-19.437-41.425-17.614c-15.547,1.784-29.765,10.524-35.111,25.751
						c-5.665,16.137-3.57,36.575,11.588,46.863c14.424,9.789,31.296,5.185,44.286-4.691c7.748-5.891,14.661-13.158,18.818-21.958
						C213.189,78.855,214.609,70.774,213.274,63.18z"/>
					<path style="fill:#455A64;" d="M193.903,102.045c-5.442,2.323-10.972,4.23-16.947,4.369c-5.729,0.134-11.492-1.093-16.57-3.777
						c-5.728-3.027-10.057-8.004-13.62-13.323c-3.779-5.639-6.689-12.111-7.468-18.904c-0.404-3.524-0.244-7.231,0.669-10.667
						c0.639-2.402,1.371-5.194,3.557-6.613c0.752-0.488,1.849-0.848,2.746-0.894c2.885-0.148,5.766,0.604,8.466,1.566
						c2.955,1.053,5.704,2.611,8.196,4.51c5.337,4.067,9.295,9.616,12.576,15.402c0.294,0.518,0.59-0.187,0.415-0.536
						c-3.184-6.34-7.266-12.445-12.884-16.886c-2.614-2.066-5.539-3.789-8.675-4.931c-3.111-1.134-7.018-2.432-10.308-1.16
						c-3.057,1.182-4.898,4.916-5.848,7.834c-1.064,3.269-1.462,6.735-1.258,10.162c0.418,7.012,3.036,13.757,6.669,19.711
						c3.588,5.88,8.103,11.522,13.973,15.244c5.215,3.307,11.363,5.068,17.516,5.322c6.682,0.276,14.138-1.01,19.508-5.212
						C195.073,102.905,194.452,101.811,193.903,102.045z"/>
					<path style="fill:#37474F;" d="M162.57,114.441c-1.564,0.5-2.983,1.073-4.641,1.231c-1.579,0.151-3.166,0.072-4.729-0.188
						c-3.755-0.625-7.423-2.09-10.67-4.058c-5.734-3.475-10.079-8.996-10.869-15.783c-0.067-0.577-0.629-0.522-0.619,0.051
						c0.126,7.59,5.137,14.061,11.396,17.893c2.597,1.59,5.449,2.868,8.408,3.67c-7.611,0.548-15.43-1.791-21.401-6.559
						c2.177,5.129,6.787,10.811,12.225,12.025c6.657,1.486,13.283-0.787,15.814-4.454c-0.001-0.03-0.012-0.055-0.014-0.084
						c2.315-0.003,4.659-0.405,6.492-1.583C165.112,115.862,163.639,114.1,162.57,114.441z"/>
					<path style="fill:#37474F;" d="M215.148,58.907c-0.293-2.565-0.907-5.091-1.923-7.468c-1.693-3.961-4.622-7.309-8.148-9.751
						c-7.901-5.473-17.713-6.446-27.006-4.958c-6.336,1.014-12.676,2.952-18.479,5.682c-0.274,0.129-0.136,0.852,0.194,0.785
						c5.247-1.056,10.318-2.817,15.566-3.872c4.926-0.99,9.968-1.605,14.99-1.063c7.659,0.828,15.756,4.427,19.805,11.289
						c1.327,2.248,2.152,4.731,2.615,7.292c0.247,1.366,0.389,2.745,0.451,4.131c0.029,0.666,0.031,1.33,0.04,1.996
						c0.016,1.141,0.47,2.088,0.523,3.235c0.018,0.38,0.728,1.221,0.86,0.48c0.132-0.736,0.538-1.359,0.697-2.073
						c0.133-0.596,0.072-1.306,0.062-1.91C215.374,61.432,215.292,60.166,215.148,58.907z"/>
					<path style="fill:#455A64;" d="M194.346,73.29c-0.646,3.714-2.028,6.972-3.727,10.311c-0.281,0.57-0.757-0.195-0.63-0.579
						c1.088-3.368,1.676-7.01,2.109-10.516c0.409-3.326,0.377-6.666-0.094-9.983c-1.38-9.839-7.604-19.696-17.289-22.974
						c-0.537-0.192-1.082-0.354-1.637-0.496c-4.915-1.246-10.178-0.68-14.758,1.495c-2.335,1.099-4.464,2.661-6.17,4.589
						c-0.298,0.35-0.597,0.7-0.865,1.069l-0.01,0c-1.53,0.922-2.997,1.941-4.38,3.058c0.659-1.533,1.479-3.031,2.424-4.404
						c1.832-2.663,4.343-4.768,7.184-6.274c4.945-2.627,10.977-3.269,16.421-2.051c2.561,0.585,5.006,1.583,7.251,2.899
						c2.93,1.733,5.537,4.007,7.677,6.647c3.986,4.889,6.427,10.861,6.978,17.146C195.122,66.581,194.916,69.98,194.346,73.29z"/>
					<path style="fill:#455A64;" d="M137.815,59.855c-4.579,3.695-7.425,9.524-9.122,15.024c-1.914,6.188-2.741,12.849-2.055,19.3
						c0.657,6.171,2.884,12.32,7.19,16.899c4.679,4.966,11.255,7.717,18.045,7.92c3.105,0.096,6.172-0.357,9.134-1.216
						c0.763-0.226,1.525-0.481,2.276-0.767c3.726-1.385,7.68-3.409,10.35-6.43c0.463-0.526-0.407-1.707-1.045-1.326
						c-3.031,1.822-5.842,3.908-9.117,5.308c-2.466,1.063-5.102,1.832-7.771,2.181c-0.747,0.105-1.495,0.18-2.244,0.215
						c-6.334,0.292-13.025-1.735-17.522-6.347c-8.196-8.4-8.126-22.16-5.331-32.79c0.897-3.382,2.096-6.714,3.805-9.783
						L137.815,59.855z"/>
				</g>
				<path style="opacity:0.2;" d="M213.274,63.18c-0.338-1.923-0.853-3.815-1.559-5.651c-0.338-0.879-0.717-1.709-1.121-2.512
					c-0.16,0.007-0.318,0.009-0.479,0.021c-3.831,0.284-7.43,1.433-10.863,3.157c-5.986,3.007-10.952,6.467-14.483,12.16
					c-4.043,6.517-6.108,11.438-7.488,19.047c-6.118,2.547-13.193,5.486-17.488,10.533c-3.799,4.464-6.364,10.105-6.697,15.93
					c12.849,5.016,26.827,0.434,37.958-8.029c0.894-0.679,1.775-1.379,2.643-2.095c2.426-2.739,4.815-5.512,7.244-8.21
					c2.044-2.271,4.137-4.505,6.233-6.737c0.992-1.583,1.898-3.22,2.698-4.916C213.189,78.855,214.609,70.774,213.274,63.18z"/>
				<g>
					<path style="fill:#455A64;" d="M348.869,178.059c-0.738-4.411-1.497-8.122-4.63-11.54c-0.924-1.009-1.994-1.928-3.272-2.414
						c-0.997-0.379-2.076-0.479-3.141-0.536c-2.909-0.155-5.871-0.103-8.776,0.394c0.408,1.457,0.831,3.801,2.828,6.123
						c2.572,2.989,4.557,5.588,6.348,9.19c1.192,2.397,2.214,4.851,2.708,7.49c0.53,2.833,0.601,5.697,0.438,8.57
						c-0.023,0.406,0.613,1.153,0.814,0.48c0.823-2.743,1.015-5.646,0.796-8.498c-0.237-3.086-0.75-6.205-1.878-9.094
						c-1.531-3.921-3.816-7.047-6.906-9.964c0.321,0.03,0.641,0.062,0.952,0.104C341.087,169.165,346.286,172.656,348.869,178.059z"
						/>
					<path style="fill:#37474F;" d="M208.298,238.355c-0.244-6.889-10.235-10.289-14.072-20.213
						c-3.954-3.623-8.668-8.631-14.144-16.736c-5.644-8.355-10.391-17.629-13.747-27.17c-16.182-14.308-21.164-66.875,16.023-79.89
						c14.117-42.565,64.208-43.021,90.824-38.394c19.687,3.423,31.487,12.642,35.845,21.815c5.088,5.854,8.553,10.098,11.68,15.23
						c24.758,13.102,17.905,46.459,4.513,58.727L208.298,238.355z"/>
					<path style="fill:#37474F;" d="M294.438,63.507c-4.34-3.942-9.776-6.998-15.13-9.334c-5.419-2.364-11.143-4.041-16.977-4.995
						c-11.908-1.947-24.212-0.715-35.536,3.435c-3.196,1.171-6.312,2.608-9.298,4.238c-1.507,0.822-2.984,1.7-4.426,2.632
						c-0.596,0.386-1.167,0.792-1.718,1.241c-0.762,0.621-1.11,1.253-1.523,2.121c-0.145,0.305-0.007,1.044,0.468,0.933
						c2.862-0.67,5.12-2.512,7.633-3.958c2.516-1.448,5.124-2.744,7.806-3.855c5.128-2.123,10.464-3.701,15.945-4.594
						c11.609-1.891,23.605-0.687,34.637,3.38c2.832,1.044,5.613,2.25,8.297,3.629c3.346,1.719,6.433,3.801,9.6,5.814
						C294.577,64.424,294.639,63.69,294.438,63.507z"/>
					<path style="fill:#37474F;" d="M349.461,109.644c-4.361-7.532-11.949-12.509-20.075-15.199
						c-2.166-0.717-4.388-1.286-6.64-1.654c-1.272-0.208-2.561-0.407-3.85-0.469c-0.713-0.034-1.444-0.015-2.151,0.097
						c-1.075,0.17-1.613,0.559-2.573,1.044c-1.217,0.616,0.502,2.076,1.345,1.943c0.543-0.086,1.817,0.09,2.592,0.114
						c1.067,0.032,2.115,0.158,3.166,0.34c1.779,0.307,3.549,0.687,5.288,1.172c3.564,0.994,6.985,2.434,10.139,4.374
						c6.137,3.773,10.965,9.264,13.344,16.121c1.613,4.65,2.051,9.57,0.97,14.396c-0.044,0.197,0.162,0.458,0.285,0.189
						C354.596,124.893,353.364,116.384,349.461,109.644z"/>
					<path style="fill:#37474F;" d="M205.911,226.48c0.135-0.717-0.233-1.525-1.161-1.808c-2.786-0.85-6.271,0.342-8.76,1.612
						c-2.456,1.252-4.705,3.037-6.441,5.179c-3.625,4.473-5.05,10.593-2.274,15.898c0.124,0.237,0.262-0.14,0.226-0.265
						c-1.383-4.811,1.649-10.235,4.835-13.692c1.491-1.618,3.225-3.034,5.191-4.034c0.637-0.324,1.296-0.579,1.967-0.802
						c-0.079,0.101-0.156,0.197-0.227,0.287c-2.958,3.696-4.871,8.285-5.046,13.041c-0.241,6.567,3.051,13.296,8.71,16.637
						c-2.824-9.171-2.036-19.402,2.158-28.032C205.567,229.517,206.211,227.733,205.911,226.48z"/>
					<g>
						<path style="fill:#455A64;" d="M239.917,65.718c-1.746-0.373-3.508-0.671-5.279-0.895c-3.652-0.462-7.337-0.594-11.013-0.404
							c-7.399,0.382-15.072,1.889-21.629,5.458c-0.146,0.08-0.145,0.497,0.065,0.431c7.106-2.232,14.223-4.136,21.702-4.501
							c3.8-0.185,7.626-0.044,11.402,0.429c1.758,0.22,3.507,0.515,5.24,0.885c1.707,0.364,3.439,1.003,5.168,1.208
							c0.503,0.06,0.328-0.832,0.023-0.979C243.854,66.51,241.8,66.12,239.917,65.718z"/>
						<path style="fill:#455A64;" d="M211.774,82.065c2.965,0.459,5.805,1.363,8.736,1.957c0.734,0.149,0.468-0.959,0.023-1.177
							c-5.403-2.648-12.157-3.264-18.094-3.074c-0.662,0.021-1.324,0.06-1.985,0.108c1.786-0.448,3.584-0.839,5.406-1.115
							c4.946-0.748,9.838-0.429,14.8-0.717c0.283-0.016,0.232-0.604-0.001-0.67c-4.884-1.396-10.256-1.023-15.235-0.24
							c-2.362,0.372-4.706,0.906-6.995,1.6c-1.765,0.535-3.99,1.16-5.579,2.28c-1.896,0.418-4.171,1.031-5.576,2.36
							c-0.252,0.431-0.495,0.872-0.737,1.315c0.065,0.297,0.25,0.577,0.519,0.459c1.326-0.58,2.479-1.358,3.881-1.786
							c1.242-0.38,2.523-0.666,3.795-0.924c2.769-0.562,5.581-0.87,8.405-0.934C206.023,81.442,208.92,81.624,211.774,82.065z"/>
						<path style="fill:#455A64;" d="M171.356,102.239c0.581-1.199,1.346-2.308,1.981-3.479c-1.218,0.795-2.369,1.645-3.458,2.543
							c-0.743,1.587-1.302,3.27-1.725,4.767c-0.972,3.44-1.309,7.075-0.99,10.635c0.676,7.529,4.016,14.765,9.23,20.238
							c0.361,0.378,0.468-0.383,0.287-0.631c-4.183-5.724-7.418-12.37-7.958-19.54c-0.248-3.29,0.031-6.618,0.887-9.807
							C170.045,105.342,170.622,103.751,171.356,102.239z"/>
					</g>
					<path style="fill:#455A64;" d="M241.113,107.454c-0.969,0.011-1.903,0.364-2.848,0.564c-0.956,0.203-1.925,0.375-2.899,0.466
						c-1.831,0.171-3.714,0.111-5.53-0.195c-1.713-0.289-3.393-0.819-4.975-1.532c-0.798-0.36-1.563-0.765-2.335-1.174
						c-0.96-0.509-1.852-1.152-2.825-1.628c-0.589-0.288-0.898,0.491-0.66,0.929c0.966,1.78,3.157,3.114,4.941,3.952
						c1.959,0.92,4.048,1.494,6.184,1.813c1.9,0.284,3.84,0.303,5.744,0.039c0.743-0.103,1.465-0.257,2.181-0.441
						c-3.405,2.256-7.61,2.572-11.766,2.027c-2.263-0.297-4.474-0.876-6.598-1.708c-2.609-1.022-4.929-2.448-7.391-3.74
						c-0.531-0.279-0.39,0.681-0.203,0.888c3.551,3.935,9.399,5.856,14.515,6.499c4.667,0.586,11.506,0.392,13.516-4.629
						c0.589-0.239,1.152-0.545,1.496-1.057C241.896,108.178,241.548,107.449,241.113,107.454z"/>
					<path style="fill:#455A64;" d="M274.133,111.522c-1.954-5.809-6.26-11.097-10.689-15.223c-2.334-2.175-4.901-4.108-7.628-5.764
						c-2.688-1.633-5.663-3.272-8.762-3.944c-0.71-0.154-0.478,0.943-0.035,1.154c2.837,1.354,5.716,2.567,8.409,4.204
						c2.546,1.548,4.931,3.349,7.147,5.341c-2.368-1.66-4.959-3.015-7.663-4.107c-5.746-2.321-12.11-3.866-18.295-4.287
						c-0.475-0.032-0.303,0.829,0.063,0.917c5.993,1.438,12.061,2.373,17.818,4.673c4.931,1.97,9.542,4.768,13.385,8.438
						c0.348,0.436,0.696,0.871,1.029,1.318c1.804,2.429,3.243,5.043,4.812,7.62C273.958,112.245,274.233,111.821,274.133,111.522z"
						/>
					<path style="fill:#455A64;" d="M306.705,85.325c-1.101-2.017-2.606-3.796-4.299-5.342c-1.878-1.715-4.099-3.547-6.483-4.498
						c-0.69-0.275-0.48,0.923-0.202,1.174c1.661,1.503,3.604,2.669,5.246,4.206c1.728,1.617,3.192,3.47,4.231,5.604
						c2.094,4.303,2.164,9.212,3.432,13.764c0.091,0.327,0.527,0.614,0.615,0.112C310.111,95.395,309.117,89.742,306.705,85.325z
						 M301.425,87.739c-3.111-4.733-7.364-8.712-12.339-11.425c-0.993-0.542-1.184,0.896-0.418,1.319
						c4.795,2.648,8.82,6.448,11.78,11.057c2.991,4.657,5.153,10.228,5.76,15.74c0.032,0.292,0.327,0.18,0.32-0.072
						c-0.072-3.002-0.393-6.086-1.354-8.943C304.26,92.695,303,90.136,301.425,87.739z"/>
					<path style="fill:#455A64;" d="M331.276,101.537c-0.074-0.302-0.368-0.261-0.406,0.031c-0.46,3.515-1.081,7.053-2.857,10.174
						c-1.839,3.232-4.582,5.989-7.901,7.685c-0.583,0.298-0.016,1.554,0.581,1.28C327.598,117.551,333.163,109.282,331.276,101.537z
						"/>
					<path style="fill:#37474F;" d="M170.68,181.707c-5.816-3.985-10.349-9.152-13.089-15.695
						c-2.912-6.954-3.452-14.531-2.757-21.975c0.481-5.163,1.654-10.232,2.948-15.243c0.075-0.291-0.256-0.737-0.407-0.308
						c-5.211,14.734-6.083,32.601,3.772,45.672c2.46,3.262,5.672,6.266,9.452,7.908C170.768,182.138,170.794,181.785,170.68,181.707
						z"/>
					<path style="fill:#37474F;" d="M167.806,172.598c-2.297-1.088-4.566-2.226-6.386-4.048c-0.862-0.863-1.605-1.859-2.381-2.792
						c-0.821-0.988-1.681-1.913-2.437-2.957c-2.521-3.477-4.622-7.312-5.73-11.482c-2.379-8.944-0.552-18.253,4.613-25.867
						c1.397-2.059,2.967-3.994,4.612-5.857c1.715-1.942,3.797-3.833,4.706-6.292c0.227-0.613-0.518-1.482-1.146-1.181
						c-2.383,1.143-4.31,3.126-6.094,5.041c-1.777,1.908-3.485,3.885-5.027,5.988c-3.114,4.244-5.392,8.975-6.418,14.157
						c-1.913,9.66,0.592,20.274,7.446,27.477c2.014,2.116,4.238,3.659,6.793,5.041c2.353,1.272,4.822,2.584,7.381,3.39
						C168.036,173.308,168.027,172.703,167.806,172.598z"/>
				</g>
			</g>
			<g>
				<path id="XMLID_00000054980432552820512140000002642887934654804904_" style="fill:#FFA8A7;" d="M328.457,136.049
					c3.866,13.71,4.69,28.048,5.593,42.191c2.337,36.589-9.138,58.785-27.456,67.923c-6.506,3.245-11.818,5.012-24.113,4.513
					l0.578,15.541c0,0,13.219,12.546-1.375,19.113c-27.788,12.505-64.769-7.723-72.204-16.878l-2.479-64.301
					c-0.912,7.753-13.206,12.476-24.892,2.459c-5.232-16.09-13.984-32.544-3.945-40.125c5.98-4.515,14.004-4.608,19.73,0.038
					c3.815,3.096,4.248,4.37,6.857,7.878c1.264,1.699,2.921,2.67,3.855,2.835c6.83,1.207,10.32-4.943,10.692-9.435
					c0.148-1.794-0.129-3.593-0.405-5.372c-0.418-2.692-1.41-5.936,0.31-8.311c9.515-13.136,15.856-24.672,18.031-40.745
					c0.199-1.471,0.448-3.103,1.607-4.032c0.473-0.379,1.054-0.597,1.638-0.759c2.526-0.7,4.551-0.192,6.99,0.229
					c2.993,0.517,14.757,2.606,28.155,1.322c9.915-0.95,20.062-2.932,28.138-8.761c0.969-0.7,2.072-1.488,3.245-1.253
					c0.901,0.181,1.519,0.968,2.149,1.637C320.815,114.141,326.529,129.212,328.457,136.049z"/>
				<g>
					
						<ellipse transform="matrix(0.683 -0.7304 0.7304 0.683 -56.3155 237.7894)" style="fill:#F28F8F;" cx="245.814" cy="183.779" rx="15.992" ry="15.992"/>
					<path style="fill:#F28F8F;" d="M314.298,179.485c0.296,8.827,7.691,15.743,16.518,15.447c1.149-0.038,2.263-0.203,3.336-0.469
						c0.29-5.055,0.266-10.459-0.102-16.223c-0.32-5.006-0.632-10.037-1.07-15.055c-1.048-0.178-2.13-0.254-3.234-0.217
						C320.918,163.263,314.002,170.658,314.298,179.485z"/>
					<g id="XMLID_00000142869924768703116260000015432821360335758495_">
						<path style="fill:#F28F8F;" d="M328.457,136.049c3.594,11.95,4.763,24.469,5.671,36.865
							c2.614,26.714-0.964,61.211-28.303,73.991c-8.674,3.711-14.078,4.226-23.344,3.772c9.238,0.116,14.523-0.608,23.057-4.402
							c26.716-13.086,29.947-46.855,27.752-73.306C332.566,160.567,331.61,148.113,328.457,136.049L328.457,136.049z"/>
					</g>
					<g id="XMLID_00000059995515318394022680000018010658775869269679_">
						<path id="XMLID_00000088848467235996811500000004617114249625975436_" style="fill:#F28F8F;" d="M282.482,250.676
							c-36.701-2.713-62.297-17.637-67.116-31.635c0,0,2.394,17.02,14.422,25.929c21.514,15.936,53.052,15.514,53.052,15.514
							L282.482,250.676z"/>
					</g>
					<g>
						<g id="XMLID_00000049934208527329440660000001065909198396012979_">
							<path id="XMLID_00000025401339919842899850000016571407262068731294_" style="fill:#B16668;" d="M293.668,210.152
								l-23.417-6.476c-2.069,6.403,1.497,13.044,7.965,14.832C284.68,220.292,291.6,216.552,293.668,210.152z"/>
						</g>
						<path style="fill:#F28F8F;" d="M283.456,218.768c-1.712,0.27-3.49,0.222-5.241-0.261c-4.508-1.247-7.553-4.867-8.315-9.104
							C276.091,209.273,281.503,213.136,283.456,218.768z"/>
						<g id="XMLID_00000060008469670078832220000016240384825348582323_">
							<path id="XMLID_00000091730091155915112200000011678781674702600633_" style="fill:#263238;" d="M318.275,143.158
								l-16.87-4.284c1.03-4.706,5.644-7.561,10.303-6.378C316.365,133.68,319.306,138.454,318.275,143.158z"/>
						</g>
						<g id="XMLID_00000028299527100264496030000001967658076872420999_">
							<path id="XMLID_00000075154208484238221930000017503488356166425520_" style="fill:#263238;" d="M245.663,148.627
								l15.548-8.291c-2.157-4.378-7.387-6.072-11.681-3.781C245.238,138.846,243.507,144.252,245.663,148.627z"/>
						</g>
						<path style="fill:#263238;" d="M258.476,160.555c-3.152,0.568-5.45,3.098-5.849,6.091c-0.648,0.675-1.388,1.256-2.243,1.63
							c-1.374,0.6-2.659,0.514-3.957-0.236c0.877,1.353,1.8,2.021,3.179,2.289c0.682,0.132,1.387,0.083,2.07-0.046
							c0.459-0.087,0.913-0.22,1.339-0.41c1.045,1.819,3.641-1.734,7.08-2.355c3.901-0.703,7.406,2.643,6.708-1.228
							C266.104,162.419,262.376,159.852,258.476,160.555z"/>
						<path style="fill:#263238;" d="M315.179,157.884c3.202,0.045,5.883,2.166,6.766,5.053c0.75,0.56,1.574,1.012,2.479,1.241
							c1.454,0.367,2.707,0.073,3.865-0.88c-0.644,1.478-1.445,2.288-2.762,2.778c-0.651,0.242-1.355,0.309-2.049,0.293
							c-0.466-0.01-0.937-0.068-1.388-0.186c-0.734,1.965-3.875-1.116-7.37-1.166c-3.963-0.056-6.874,3.818-6.818-0.115
							C307.959,160.97,311.217,157.828,315.179,157.884z"/>
					</g>
					<g>
						<path style="fill:#263238;" d="M342.628,139.965c-1.052-0.052-2.148-0.092-3.281-0.117
							c-10.576-0.252-24.29,0.512-32.294,3.538c-10.03,3.809-13.333,7.441-19.054,7.919c-6.123,0.454-10.336-2.593-21.678-4.723
							c-9.039-1.679-23.635-0.222-34.724,1.733c-1.19,0.212-2.342,0.43-3.442,0.648c-1.892,0.379-3.721,2.962-3.291,5.775
							c0.43,2.813,2.902,4.889,3.978,6.102c0.479,0.538,0.965,1.324,1.402,2.474c1.636,4.321,3.247,12.719,6.029,17.238
							c1.12,1.813,2.69,4.025,5.08,5.963c4.832,3.966,11.391,5.048,17.568,4.551c14.225-1.059,19.502-7.977,22.348-14.914
							c2.855-6.927,0.976-16.273,7.534-16.763c0.415-0.03,0.822-0.024,1.218,0.029c4.954,0.7,5.248,9.369,8.937,15.348
							c1.417,2.294,3.127,4.549,5.344,6.423c3.2,2.713,6.778,4.195,11.082,4.771c2.083,0.281,4.406,0.338,6.993,0.119
							c13.306-1.101,17.134-8.897,18.829-13.768c1.687-4.876,1.642-13.374,2.259-17.894c0.136-1.003,0.523-1.794,0.973-2.402
							c0.857-1.157,2.462-3.889,2.339-6.717C346.651,142.47,344.442,140.056,342.628,139.965z M276.945,170.175
							c-0.344,2.605-1.267,6.393-3.982,9.661l-0.008,0.004c-2.742,3.281-7.315,6.027-14.956,6.509
							c-7.723,0.495-12.533-2.219-15.596-5.597c-2.444-2.661-3.986-6.096-5.092-9.45c-1.574-4.566-3.814-13.608-1.582-15.861
							c2.154-2.169,8.479-4.901,19.165-4.745c5.727,0.077,11.658,1.027,16.902,3.246c1.547,0.673,2.743,1.429,3.422,2.189
							C277.629,158.82,277.615,164.904,276.945,170.175z M338.49,163.356c-0.446,3.695-1.402,11.672-8.471,15.683
							c-2.013,1.145-4.55,1.967-7.706,2.256c-8.369,0.807-13.456-2.14-16.542-5.729c-1.786-2.02-3.221-4.91-3.979-7.344
							c-1.616-5.09-2.812-11.071-1.11-14.086c1.701-3.015,9.188-6.758,16.615-8.237c1.711-0.342,3.323-0.58,4.828-0.73
							c4.017-0.364,8.183-0.322,12.007,0.957c1.201,0.405,2.127,0.884,2.773,1.369C339.395,149.366,339.048,158.622,338.49,163.356z
							"/>
						<path style="fill:#263238;" d="M230.26,160.037l-10.987,5.351l-15.555,7.595c-1.491-2.091-2.294-3.355-4.418-5.255
							l18.935-9.719l10.801-5.535L230.26,160.037z"/>
					</g>
					<path style="fill:#F28F8F;" d="M310.239,188.066l-21.179,8.982l-5.66-30.436c0.691-3.865,1.708-6.951,5.401-7.225
						c0.32-0.021,0.62-0.021,0.921,0.009c1.434,0.993,2.875,2.195,4.354,3.646C298.617,167.463,306.958,179.731,310.239,188.066z"/>
				</g>
			</g>
			<g>
				<path style="fill:#37474F;" d="M279.703,113.169c-0.457-0.828-0.97-1.622-1.541-2.371c0.594-0.097,1.191,0.126,1.744,0.363
					c8.809,3.776,15.321,12.455,16.484,21.968c1.878-3.602,2.898-7.708,2.516-11.751c-0.561-5.941-3.935-10.326-9.272-12.732
					c-4.757-2.145-9.801-4.284-14.996-3.799c-4.333,0.405-1.402,4.23,0.018,5.898c0.935,1.098,1.77,2.289,2.461,3.555
					c1.257,2.301,2.146,4.767,2.561,7.359c0.858,5.351-0.496,10.784-3.162,15.43c-0.26,0.452,0.367,1.526,0.823,0.991
					c3.877-4.552,5.583-10.668,4.95-16.582C281.981,118.614,281.115,115.73,279.703,113.169z"/>
				<path style="fill:#455A64;" d="M236.029,120.258c-0.041-0.211-0.38-0.624-0.577-0.301c-0.733,1.199-1.055,2.568-1.9,3.74
					c-0.687,0.953-1.484,1.82-2.371,2.59c-2.183,1.897-4.773,3.255-7.474,4.252c-3.008,1.11-6.152,1.826-9.344,2.122
					c-6.335,0.588-11.957-0.335-17.66-3.149c-0.204,0.303,0.092,0.688,0.373,0.92c7.823,6.441,20.026,5.379,28.79,1.748
					c2.662-1.103,5.266-2.514,7.282-4.611C234.925,125.72,236.552,122.926,236.029,120.258z"/>
				<path style="fill:#455A64;" d="M223.537,187.079c-0.738-4.411-1.497-8.122-4.629-11.54c-0.924-1.009-1.994-1.928-3.273-2.414
					c-0.997-0.379-2.076-0.479-3.141-0.536c-2.909-0.155-5.871-0.103-8.776,0.394c0.408,1.457,0.831,3.801,2.828,6.123
					c2.572,2.989,4.557,5.588,6.348,9.19c1.192,2.397,2.214,4.851,2.708,7.49c0.531,2.834,0.601,5.697,0.439,8.57
					c-0.023,0.406,0.613,1.153,0.814,0.48c0.823-2.743,1.015-5.646,0.796-8.498c-0.237-3.086-0.75-6.205-1.878-9.094
					c-1.531-3.921-3.816-7.047-6.906-9.964c0.321,0.03,0.641,0.062,0.952,0.104C215.755,178.184,220.954,181.676,223.537,187.079z"
					/>
			</g>
			<g id="Bandana">
				<g>
					<path style="fill:#BA68C8;" d="M194.227,218.141c-8.266-24.919-1.844-88.847,18.208-114.594
						c55.578-26.661,95.495-23.677,108.272-10.55c-2.063-5.822-6.18-10.945-11.679-15.232C297.827,60.49,254.38,58.102,230.1,69.022
						c-10.733,4.828-17.535,10.39-27.355,26.524c-1.131,1.858-3.829,3.551-5.405,5.086c-1.775,1.729-3.517,3.491-5.215,5.295
						c-3.227,3.43-6.298,7.013-9.105,10.797c-5.399,7.277-9.738,15.304-12.529,23.937c-3.596,11.124-5.489,24.181-4.218,35.822
						c0.52,4.764,1.928,9.528,4.767,13.389c1.606,2.184,3.644,4.05,5.036,6.377c1.45,2.425,2.122,5.22,3.097,7.872
						C181.595,210.71,187.869,215.561,194.227,218.141z"/>
					<path style="opacity:0.2;" d="M252.853,81.771c2.172-3.405,3.524-7.256,4.858-11.068c0.928-2.653,1.852-5.392,2.14-8.161
						c-8.217,0.414-16.321,1.787-23.411,4.073c-0.909,0.41-1.808,0.844-2.69,1.313c-3.315,1.762-6.385,3.966-9.749,5.631
						c-1.725,0.854-3.518,1.556-5.322,2.23c-5.226,4.194-10.035,10.068-15.932,19.758c-1.131,1.858-3.829,3.551-5.405,5.086
						c-1.775,1.729-3.517,3.491-5.215,5.296c-3.227,3.43-6.298,7.013-9.105,10.797c-0.24,0.324-0.467,0.658-0.704,0.985
						c5.765-0.853,11.287-3.365,15.666-7.215c0.577-0.507,1.181-1.06,1.939-1.184c0.705-0.116,1.406,0.163,2.081,0.393
						c1.862,0.636,3.854,0.923,5.818,0.832c1.448-2.553,2.985-4.899,4.613-6.99c10.958-5.256,21.295-9.344,30.947-12.446
						C247.125,88.598,250.434,85.561,252.853,81.771z"/>
					<path style="opacity:0.1;" d="M304.188,75.688c1.693,0.659,3.364,1.409,4.998,2.207c-0.054-0.043-0.103-0.088-0.158-0.13
						c-0.659-1.016-1.439-1.976-2.31-2.89c-0.356-0.138-0.705-0.29-1.067-0.418c-3.598-1.271-7.303-2.293-11.046-3.033
						c-8.186-1.617-16.681-1.647-24.997-1.396c-0.148,0.004-0.184,0.342-0.035,0.35c7.901,0.403,15.718,0.925,23.52,2.32
						C296.871,73.372,300.608,74.294,304.188,75.688z"/>
					<path style="opacity:0.1;" d="M178.9,152.019c-4.531,10.113-6.724,21.02-6.499,32.094c0.055,2.7,0.236,5.395,0.531,8.078
						c1.125,1.3,2.263,2.588,3.144,4.06c0.673,1.125,1.175,2.331,1.621,3.564c-0.047-0.228-0.105-0.454-0.151-0.683
						c-1.014-5.133-1.544-10.362-1.624-15.593c-0.16-10.386,1.083-20.806,3.761-30.837
						C179.807,152.235,179.219,151.307,178.9,152.019z"/>
					<path style="opacity:0.1;" d="M180.456,187.44c-2.2-4.258-2.866-9.114-3.609-13.849c-0.223-1.419-0.493-2.918-1.446-3.993
						c-0.686-0.773-1.648-1.233-2.483-1.843c-2.429-1.773-3.681-4.727-4.523-7.615c-0.549-1.883-0.961-3.804-1.249-5.742
						c-1.243,7.383-1.647,14.997-0.873,22.086c0.52,4.764,1.928,9.528,4.767,13.389c1.606,2.184,3.644,4.05,5.036,6.377
						c1.45,2.425,2.122,5.22,3.097,7.872c2.422,6.587,8.696,11.438,15.054,14.018c-1.594-4.804-2.635-11.069-3.145-18.22
						c-0.684-0.708-1.378-1.406-2.073-2.095C185.811,194.654,182.524,191.442,180.456,187.44z"/>
				</g>
				<g>
					<g>
						<path style="fill:#BA68C8;" d="M166.128,91.793c-10.143,2.904-19.108,9.732-24.604,18.739
							c-0.295,0.483-0.588,1.001-0.592,1.567c-0.034,4.68,11.189,6.18,14.389,6.578c7.315,0.912,14.806,0.058,21.826-2.139
							c6.462-2.023,12.539-5.163,18.103-9.005c2.018-1.393,4.79-2.802,5.664-5.186c1.123-3.065-0.992-5.176-3.315-6.89
							C189.285,89.325,175.751,89.037,166.128,91.793z"/>
						<path style="opacity:0.2;" d="M166.128,91.793c-10.143,2.904-19.108,9.732-24.604,18.739
							c-0.295,0.483-0.588,1.001-0.592,1.567c-0.034,4.68,11.189,6.18,14.389,6.578c7.315,0.912,14.806,0.058,21.826-2.139
							c6.462-2.023,12.539-5.163,18.103-9.005c2.018-1.393,4.79-2.802,5.664-5.186c1.123-3.065-0.992-5.176-3.315-6.89
							C189.285,89.325,175.751,89.037,166.128,91.793z"/>
						<path style="opacity:0.2;" d="M196.317,99.994c-1.333-2.392-5.516-2.04-7.782-1.94c-4.363,0.194-8.745,0.503-13.026,1.408
							c-3.453,0.73-7.791,1.258-10.676,3.467c-1.124,0.861-1.876,2.421-0.955,3.712c1.345,1.886,4.109,2.229,6.173,1.603
							c2.642-0.801,5.378-1.504,7.998-2.444C184.156,103.608,189.816,100.867,196.317,99.994z"/>
						<path style="opacity:0.3;fill:#BA68C8;" d="M171.617,92.149c-0.347-0.246-1.25-0.418-1.636-0.36
							c-5.504,0.824-10.609,3.297-15.2,6.365c-4.399,2.939-8.434,6.582-11.166,11.173c-0.523,0.879-1.481,2.347-0.907,3.389
							c0.212,0.384,0.552,0.678,0.89,0.957c0.989,0.817,2.042,1.736,3.283,2.139c0.782,0.254,1.398,0.172,1.705-0.152
							c0.317-0.335,0.305-0.927-0.192-1.673c-0.773-1.158-0.763-2.707-0.278-4.012c0.486-1.305,1.39-2.407,2.335-3.429
							c2.709-2.928,5.875-5.457,9.136-7.802c1.866-1.342,3.817-2.564,5.838-3.657c1.979-1.07,4.116-1.783,6.107-2.841"/>
					</g>
					<g>
						<path style="fill:#BA68C8;" d="M229.589,62.852c8.769-5.867,19.773-8.299,30.198-6.676c0.559,0.087,1.144,0.198,1.579,0.56
							c3.595,2.997-2.511,12.533-4.274,15.233c-4.029,6.173-9.52,11.34-15.732,15.279c-5.719,3.626-12.041,6.236-18.568,8.002
							c-2.367,0.64-5.234,1.846-7.618,0.973c-3.065-1.123-3.31-4.1-3.118-6.981C212.746,78.935,221.269,68.418,229.589,62.852z"/>
						<path style="opacity:0.1;" d="M229.589,62.852c8.769-5.867,19.773-8.299,30.198-6.676c0.559,0.087,1.144,0.198,1.579,0.56
							c3.595,2.997-2.511,12.533-4.274,15.233c-4.029,6.173-9.52,11.34-15.732,15.279c-5.719,3.626-12.041,6.236-18.568,8.002
							c-2.367,0.64-5.234,1.846-7.618,0.973c-3.065-1.123-3.31-4.1-3.118-6.981C212.746,78.935,221.269,68.418,229.589,62.852z"/>
						<path style="opacity:0.2;" d="M216.347,91.194c-0.965-2.563,2.006-5.529,3.547-7.193c2.966-3.205,6.033-6.35,9.489-9.034
							c2.788-2.164,5.993-5.135,9.544-5.91c1.384-0.302,3.06,0.132,3.45,1.669c0.571,2.245-0.953,4.576-2.764,5.748
							c-2.318,1.5-4.622,3.134-7.033,4.526C226.961,84.246,221.213,86.796,216.347,91.194z"/>
						<path style="opacity:0.3;fill:#BA68C8;" d="M226.314,67.272c0.037-0.424,0.488-1.224,0.782-1.481
							c4.185-3.669,9.37-5.968,14.678-7.491c5.085-1.459,10.473-2.186,15.742-1.306c1.008,0.169,2.748,0.385,3.173,1.497
							c0.156,0.41,0.161,0.859,0.156,1.298c-0.015,1.283,0.006,2.68-0.488,3.888c-0.311,0.761-0.772,1.178-1.217,1.203
							c-0.46,0.026-0.905-0.366-1.153-1.227c-0.385-1.338-1.573-2.332-2.883-2.803c-1.31-0.472-2.735-0.494-4.126-0.433
							c-3.984,0.176-7.96,0.959-11.857,1.934c-2.229,0.557-4.423,1.257-6.563,2.094c-2.095,0.819-4.02,1.99-6.114,2.826"/>
					</g>
					<g>
						<path style="fill:#BA68C8;" d="M204.418,87.394c1.149-0.615,2.356-1.063,3.721-1.06c1.132,0.002,2.262,0.285,3.266,0.808
							c1.141,0.595,1.736,1.224,2.478,2.298c1.489,2.155,3.016,4.399,3.477,6.978c0.592,3.318-0.818,6.914-3.509,8.945
							c-0.52,0.392-1.245,0.818-1.866,1.013c-0.835,0.262-1.881,0.427-2.745,0.286c-3.308-0.542-5.725-3.19-7.758-5.856
							c-1.833-2.404-3.306-5.556-2.23-8.382c0.664-1.743,2.033-3.099,3.583-4.085C203.357,88.005,203.881,87.681,204.418,87.394z"/>
						<path style="opacity:0.2;" d="M204.418,87.394c1.149-0.615,2.356-1.063,3.721-1.06c1.132,0.002,2.262,0.285,3.266,0.808
							c1.141,0.595,1.736,1.224,2.478,2.298c1.489,2.155,3.016,4.399,3.477,6.978c0.592,3.318-0.818,6.914-3.509,8.945
							c-0.52,0.392-1.245,0.818-1.866,1.013c-0.835,0.262-1.881,0.427-2.745,0.286c-3.308-0.542-5.725-3.19-7.758-5.856
							c-1.833-2.404-3.306-5.556-2.23-8.382c0.664-1.743,2.033-3.099,3.583-4.085C203.357,88.005,203.881,87.681,204.418,87.394z"/>
						<path style="opacity:0.2;" d="M210.301,91.14c-0.421-1.732-1.738-3.094-3.107-4.236c-0.159-0.133-0.331-0.262-0.507-0.387
							c-0.794,0.184-1.546,0.489-2.269,0.876c-0.537,0.287-1.061,0.612-1.583,0.944c-1.549,0.986-2.919,2.343-3.583,4.085
							c-1.076,2.826,0.398,5.978,2.23,8.382c2.032,2.665,4.45,5.314,7.758,5.856c0.645,0.106,1.391,0.04,2.076-0.109
							c-1.088-0.458-2.074-1.08-2.699-2.061c-1.246-1.953-0.586-4.525,0.286-6.671C209.776,95.674,210.848,93.391,210.301,91.14z"/>
						<path style="fill:#BA68C8;" d="M200.484,108.49c1.881,0.446,3.857,0.159,5.742-0.274c1.685-0.387,3.349-0.891,4.91-1.632
							c-1.834-0.533-3.539-1.61-4.65-3.163c-1.933-2.7-1.172-5.45-0.027-8.264c1.35-3.318,2.543-7.63-2.048-8.948
							c-2.769-0.795-6.481,0.638-8.378,2.698C190.852,94.533,192.12,106.508,200.484,108.49z"/>
						<path style="opacity:0.1;" d="M200.484,108.49c1.881,0.446,3.857,0.159,5.742-0.274c1.685-0.387,3.349-0.891,4.91-1.632
							c-1.834-0.533-3.539-1.61-4.65-3.163c-1.933-2.7-1.172-5.45-0.027-8.264c1.35-3.318,2.543-7.63-2.048-8.948
							c-2.769-0.795-6.481,0.638-8.378,2.698C190.852,94.533,192.12,106.508,200.484,108.49z"/>
					</g>
				</g>
			</g>
		</g>
	</g>
</g>
<g id="Hearts">
	<g id="Hearts_1_">
		<path style="fill:#BA68C8;" d="M388.364,222.064c8.056-2.585,15.47,4.455,15.079,15.422c4.319-10.088,14.026-13.299,20.213-7.528
			c6.187,5.772,0.417,25.492-26.422,35.285C377.125,244.948,380.307,224.649,388.364,222.064z"/>
		<g>
			<path style="fill:#BA68C8;" d="M385.396,131.698c6.144-3.628,13.553,0.781,15.275,9.874c1.672-9.102,9.057-13.551,15.221-9.958
				c6.164,3.594,5.093,20.887-15.155,33.943C380.417,152.613,379.251,135.325,385.396,131.698z"/>
			<path style="opacity:0.3;fill:#FFFFFF;" d="M385.396,131.698c6.144-3.628,13.553,0.781,15.275,9.874
				c1.672-9.102,9.057-13.551,15.221-9.958c6.164,3.594,5.093,20.887-15.155,33.943
				C380.417,152.613,379.251,135.325,385.396,131.698z"/>
		</g>
		<g>
			<path style="fill:#BA68C8;" d="M444.955,177.384c5.782-0.811,9.996,4.846,8.442,12.258c4.122-6.352,11.099-7.395,14.628-2.744
				c3.529,4.651-2.711,17.382-22.111,20.889C434.626,191.624,439.173,178.196,444.955,177.384z"/>
			<path style="opacity:0.6;fill:#FFFFFF;" d="M444.955,177.384c5.782-0.811,9.996,4.846,8.442,12.258
				c4.122-6.352,11.099-7.395,14.628-2.744c3.529,4.651-2.711,17.382-22.111,20.889
				C434.626,191.624,439.173,178.196,444.955,177.384z"/>
		</g>
	</g>
	<g id="Hearts_00000160889209014478627110000007461296266083996083_">
		<path style="fill:#BA68C8;" d="M132.669,195.838c-9.204-2.09-16.758,6.454-15.258,18.603c-5.78-10.791-16.878-13.416-23.193-6.402
			c-6.315,7.015,2.013,28.368,32.789,36.644C147.381,220.176,141.873,197.928,132.669,195.838z"/>
		<path style="opacity:0.3;fill:#FFFFFF;" d="M132.669,195.838c-9.204-2.09-16.758,6.454-15.258,18.603
			c-5.78-10.791-16.878-13.416-23.193-6.402c-6.315,7.015,2.013,28.368,32.789,36.644
			C147.381,220.176,141.873,197.928,132.669,195.838z"/>
		<g>
			<path style="fill:#BA68C8;" d="M93.38,97.248c-6.935-1.679-12.736,4.698-11.733,13.898c-4.253-8.219-12.614-10.322-17.463-5.088
				c-4.849,5.235,1.217,21.465,24.392,28.05C104.24,115.803,100.315,98.927,93.38,97.248z"/>
			<path style="opacity:0.6;fill:#FFFFFF;" d="M93.38,97.248c-6.935-1.679-12.736,4.698-11.733,13.898
				c-4.253-8.219-12.614-10.322-17.463-5.088c-4.849,5.235,1.217,21.465,24.392,28.05C104.24,115.803,100.315,98.927,93.38,97.248z"
				/>
		</g>
		<g>
			<path style="fill:#BA68C8;" d="M55.032,167.45c-5.73-1.12-10.241,4.303-9.087,11.787c-3.775-6.564-10.687-7.98-14.46-3.525
				c-3.773,4.456,1.775,17.503,20.959,22.044C64.583,182.224,60.762,168.571,55.032,167.45z"/>
		</g>
	</g>
</g>
</svg>
